<svg width="48" height="40" viewBox="0 0 48 40" fill="none" xmlns="http://www.w3.org/2000/svg">
<g clip-path="url(#clip0)">
<path d="M7.4353 18.6021H21.7329" stroke="white" stroke-width="2" stroke-miterlimit="10" stroke-linecap="round" stroke-linejoin="round"/>
<path d="M7.4353 24.7715H21.7329" stroke="white" stroke-width="2" stroke-miterlimit="10" stroke-linecap="round" stroke-linejoin="round"/>
<path d="M7.4353 30.9277H21.7329" stroke="white" stroke-width="2" stroke-miterlimit="10" stroke-linecap="round" stroke-linejoin="round"/>
<path d="M38.1492 31.4225C42.3292 31.4225 45.7178 28.0192 45.7178 23.8211C45.7178 19.623 42.3292 16.2197 38.1492 16.2197C33.9692 16.2197 30.5807 19.623 30.5807 23.8211C30.5807 28.0192 33.9692 31.4225 38.1492 31.4225Z" stroke="white" stroke-width="2" stroke-miterlimit="10" stroke-linecap="round" stroke-linejoin="round"/>
<path d="M35.311 24.089L36.9233 26.712L41.667 21.9478" stroke="white" stroke-width="2" stroke-miterlimit="10" stroke-linecap="round" stroke-linejoin="round"/>
<path d="M41.9068 34.5409V37.7661C41.9068 38.1676 41.587 38.4888 41.1873 38.4888H2.052C1.65226 38.4888 1.33246 38.1676 1.33246 37.7661V2.06104C1.33246 1.65956 1.65226 1.33838 2.052 1.33838H41.174C41.5737 1.33838 41.8935 1.65956 41.8935 2.06104V13.1018" stroke="white" stroke-width="2" stroke-miterlimit="10" stroke-linecap="round" stroke-linejoin="round"/>
<path d="M1.33246 10.9336H41.9068" stroke="white" stroke-width="2" stroke-miterlimit="10"/>
<path d="M7.90167 7.60157C8.85836 7.60157 9.63391 6.82266 9.63391 5.86182C9.63391 4.90098 8.85836 4.12207 7.90167 4.12207C6.94498 4.12207 6.16943 4.90098 6.16943 5.86182C6.16943 6.82266 6.94498 7.60157 7.90167 7.60157Z" fill="white"/>
<path d="M13.0851 7.60157C14.0418 7.60157 14.8173 6.82266 14.8173 5.86182C14.8173 4.90098 14.0418 4.12207 13.0851 4.12207C12.1284 4.12207 11.3528 4.90098 11.3528 5.86182C11.3528 6.82266 12.1284 7.60157 13.0851 7.60157Z" fill="white"/>
</g>
<defs>
<clipPath id="clip0">
<rect width="47.037" height="39.8269" fill="white"/>
</clipPath>
</defs>
</svg>
