<svg width="46" height="43" viewBox="0 0 46 43" fill="none" xmlns="http://www.w3.org/2000/svg">
<g clip-path="url(#clip0)">
<path d="M32.21 12.36V8.74L24.47 1H1V41.83H32.21V35.79" stroke="white" stroke-width="2" stroke-miterlimit="10" stroke-linecap="round" stroke-linejoin="round"/>
<path d="M6.95001 13.4102H18.36" stroke="white" stroke-width="2" stroke-miterlimit="10" stroke-linecap="round" stroke-linejoin="round"/>
<path d="M6.95001 18.52H18.36" stroke="white" stroke-width="2" stroke-miterlimit="10" stroke-linecap="round" stroke-linejoin="round"/>
<path d="M6.95001 23.6304H18.36" stroke="white" stroke-width="2" stroke-miterlimit="10" stroke-linecap="round" stroke-linejoin="round"/>
<path d="M6.95001 28.73H18.36" stroke="white" stroke-width="2" stroke-miterlimit="10" stroke-linecap="round" stroke-linejoin="round"/>
<path d="M6.95001 33.8403H18.36" stroke="white" stroke-width="2" stroke-miterlimit="10" stroke-linecap="round" stroke-linejoin="round"/>
<path d="M24.47 1V9.54H31.93" stroke="white" stroke-width="2" stroke-miterlimit="10" stroke-linecap="round" stroke-linejoin="round"/>
<path d="M36.07 32.7001C40.919 32.7001 44.85 28.7692 44.85 23.9201C44.85 19.0711 40.919 15.1401 36.07 15.1401C31.2209 15.1401 27.29 19.0711 27.29 23.9201C27.29 28.7692 31.2209 32.7001 36.07 32.7001Z" stroke="white" stroke-width="2" stroke-miterlimit="10"/>
<path d="M36.07 23.8598V19.0698" stroke="white" stroke-width="2" stroke-miterlimit="10" stroke-linecap="round" stroke-linejoin="round"/>
<path d="M36.07 28.6698V28.0498" stroke="white" stroke-width="2" stroke-miterlimit="10" stroke-linecap="round" stroke-linejoin="round"/>
</g>
<defs>
<clipPath id="clip0">
<rect width="45.85" height="42.83" fill="white"/>
</clipPath>
</defs>
</svg>
