<svg width="120" height="120" viewBox="0 0 120 120" fill="none" xmlns="http://www.w3.org/2000/svg">
<g clip-path="url(#clip0_9002_62407)">
<g filter="url(#filter0_d_9002_62407)">
<circle cx="60" cy="56" r="40" fill="white"/>
</g>
<path d="M42.1138 56.5885C42.1138 46.7222 50.2367 38.6914 60.3028 38.6914" stroke="#2D5FAA" stroke-width="2" stroke-miterlimit="10" stroke-linecap="round" stroke-linejoin="round"/>
<path d="M59.2146 34.0259C47.4383 34.5612 37.8774 43.9687 37.3722 55.5559C36.9446 65.3075 42.7745 73.7589 51.2083 77.3537L56.4551 65.0398C52.8795 63.4337 50.5087 59.7243 50.9751 55.5177C51.4803 51.3111 54.9394 47.9076 59.2146 47.4487C64.8889 46.8368 69.6694 51.1964 69.6694 56.6267C69.6694 60.1449 67.6484 63.2042 64.6946 64.7722L70.0969 77.0095C77.87 73.3765 83.2334 65.6135 83.2334 56.5884C83.2334 43.7392 72.39 33.414 59.2146 34.0259Z" stroke="#2D5FAA" stroke-width="2" stroke-miterlimit="10" stroke-linecap="round" stroke-linejoin="round"/>
</g>
<defs>
<filter id="filter0_d_9002_62407" x="0" y="0" width="120" height="120" filterUnits="userSpaceOnUse" color-interpolation-filters="sRGB">
<feFlood flood-opacity="0" result="BackgroundImageFix"/>
<feColorMatrix in="SourceAlpha" type="matrix" values="0 0 0 0 0 0 0 0 0 0 0 0 0 0 0 0 0 0 127 0" result="hardAlpha"/>
<feOffset dy="4"/>
<feGaussianBlur stdDeviation="10"/>
<feColorMatrix type="matrix" values="0 0 0 0 0 0 0 0 0 0 0 0 0 0 0 0 0 0 0.15 0"/>
<feBlend mode="normal" in2="BackgroundImageFix" result="effect1_dropShadow_9002_62407"/>
<feBlend mode="normal" in="SourceGraphic" in2="effect1_dropShadow_9002_62407" result="shape"/>
</filter>
<clipPath id="clip0_9002_62407">
<rect width="120" height="120" fill="white"/>
</clipPath>
</defs>
</svg>
