<svg width="120" height="120" viewBox="0 0 120 120" fill="none" xmlns="http://www.w3.org/2000/svg">
<g filter="url(#filter0_d)">
<circle cx="60" cy="56" r="40" fill="white"/>
</g>
<path d="M60.5071 77.6109C60.0568 77.6109 59.6965 77.2572 59.6965 76.8151V66.8497C59.6965 66.4076 60.0568 66.0539 60.5071 66.0539C60.9574 66.0539 61.3176 66.4076 61.3176 66.8497V76.8151C61.3176 77.2484 60.9574 77.6109 60.5071 77.6109Z" fill="#3B8CC5"/>
<path d="M60.5071 78C60.327 78 60.1468 77.9469 60.0027 77.832L55.4277 74.2685C55.0765 73.9944 55.0134 73.4903 55.2926 73.1543C55.5718 72.8095 56.0761 72.7476 56.4274 73.0217L60.4981 76.1873L64.5688 73.0217C64.92 72.7476 65.4334 72.8095 65.7035 73.1543C65.9827 73.4992 65.9197 74.0032 65.5685 74.2685L60.9934 77.832C60.8673 77.9469 60.6872 78 60.5071 78Z" fill="#3B8CC5"/>
<path d="M47.3852 69.6086C46.9349 69.6086 46.5747 69.2549 46.5747 68.8128V61.5001C46.5747 61.058 46.9349 60.7043 47.3852 60.7043C47.8355 60.7043 48.1958 61.058 48.1958 61.5001V68.8128C48.1958 69.2549 47.8355 69.6086 47.3852 69.6086Z" fill="#3B8CC5"/>
<path d="M47.3854 70.0065C47.2052 70.0065 47.0251 69.9534 46.881 69.8385L42.306 66.275C41.9547 66.0009 41.9007 65.4968 42.1709 65.1608C42.4501 64.816 42.9544 64.7541 43.3056 65.0282L47.3763 68.1938L51.4471 65.0282C51.7983 64.7541 52.3116 64.816 52.5818 65.1608C52.861 65.5057 52.798 66.0097 52.4467 66.275L47.8717 69.8385C47.7366 69.9446 47.5655 70.0065 47.3854 70.0065Z" fill="#3B8CC5"/>
<path d="M73.6289 69.6086C73.1786 69.6086 72.8184 69.2549 72.8184 68.8128V61.5001C72.8184 61.058 73.1786 60.7043 73.6289 60.7043C74.0792 60.7043 74.4394 61.058 74.4394 61.5001V68.8128C74.4394 69.2549 74.0792 69.6086 73.6289 69.6086Z" fill="#3B8CC5"/>
<path d="M73.6289 70.0065C73.4488 70.0065 73.2687 69.9534 73.1246 69.8385L68.5495 66.275C68.1983 66.0009 68.1352 65.4968 68.4144 65.1608C68.6936 64.816 69.1979 64.7541 69.5492 65.0282L73.6199 68.1938L77.6906 65.0282C78.0419 64.7541 78.5462 64.816 78.8254 65.1608C79.1046 65.5057 79.0415 66.0097 78.6903 66.275L74.1152 69.8385C73.9891 69.9446 73.809 70.0065 73.6289 70.0065Z" fill="#3B8CC5"/>
<path d="M60.5072 64.082C52.0596 64.082 45.188 57.3352 45.188 49.041C45.188 40.7468 52.0596 34 60.5072 34C68.9549 34 75.8264 40.7468 75.8264 49.041C75.8264 57.3352 68.9549 64.082 60.5072 64.082ZM60.5072 35.5916C52.9512 35.5916 46.8091 41.6222 46.8091 49.041C46.8091 56.4598 52.9512 62.4904 60.5072 62.4904C68.0633 62.4904 74.2054 56.4598 74.2054 49.041C74.2054 41.6222 68.0633 35.5916 60.5072 35.5916Z" fill="#3B8CC5"/>
<path d="M60.543 57.7066C57.3009 57.7066 54.6621 55.5844 54.6621 52.9759C54.6621 52.5338 55.0223 52.1801 55.4726 52.1801C55.923 52.1801 56.2832 52.5338 56.2832 52.9759C56.2832 54.709 58.1925 56.1149 60.543 56.1149C62.8936 56.1149 64.8119 54.709 64.8119 52.9759C64.8119 52.1624 64.0194 49.8545 60.516 49.8545C56.4273 49.8545 54.5811 47.078 54.5811 45.1061C54.5811 42.4976 57.2198 40.3665 60.462 40.3665C63.7041 40.3665 66.3519 42.4887 66.3519 45.1061C66.3519 45.5482 65.9917 45.9019 65.5414 45.9019C65.0911 45.9019 64.7308 45.5482 64.7308 45.1061C64.7308 43.373 62.8216 41.9582 60.462 41.9582C58.1114 41.9582 56.2021 43.373 56.2021 45.1061C56.2021 46.1407 57.2558 48.2628 60.516 48.2628C64.8299 48.2628 66.433 51.1543 66.433 52.9759C66.433 55.5844 63.7942 57.7066 60.543 57.7066Z" fill="#3B8CC5"/>
<path d="M60.498 41.8521C60.0477 41.8521 59.6875 41.4984 59.6875 41.0563V38.5715C59.6875 38.1294 60.0477 37.7757 60.498 37.7757C60.9483 37.7757 61.3086 38.1294 61.3086 38.5715V41.0563C61.3086 41.4984 60.9483 41.8521 60.498 41.8521Z" fill="#3B8CC5"/>
<path d="M60.498 60.2974C60.0477 60.2974 59.6875 59.9437 59.6875 59.5016V57.0169C59.6875 56.5747 60.0477 56.221 60.498 56.221C60.9483 56.221 61.3086 56.5747 61.3086 57.0169V59.5016C61.3086 59.9437 60.9483 60.2974 60.498 60.2974Z" fill="#3B8CC5"/>
<defs>
<filter id="filter0_d" x="0" y="0" width="120" height="120" filterUnits="userSpaceOnUse" color-interpolation-filters="sRGB">
<feFlood flood-opacity="0" result="BackgroundImageFix"/>
<feColorMatrix in="SourceAlpha" type="matrix" values="0 0 0 0 0 0 0 0 0 0 0 0 0 0 0 0 0 0 127 0"/>
<feOffset dy="4"/>
<feGaussianBlur stdDeviation="10"/>
<feColorMatrix type="matrix" values="0 0 0 0 0 0 0 0 0 0 0 0 0 0 0 0 0 0 0.15 0"/>
<feBlend mode="normal" in2="BackgroundImageFix" result="effect1_dropShadow"/>
<feBlend mode="normal" in="SourceGraphic" in2="effect1_dropShadow" result="shape"/>
</filter>
</defs>
</svg>