<svg width="120" height="120" viewBox="0 0 120 120" fill="none" xmlns="http://www.w3.org/2000/svg">
<g filter="url(#filter0_d)">
<circle cx="60" cy="56" r="40" fill="white"/>
</g>
<g>
<path
  d="M73.5723 65.8438C73.5723 66.2219 73.265 66.5312 72.8894 66.5312H63.3284C62.9528 66.5312 62.6455 66.2219 62.6455 65.8438V58.2812C62.6455 57.9031 62.9528 57.5938 63.3284 57.5938H72.8894C73.265 57.5938 73.5723 57.9031 73.5723 58.2812V65.8438Z"
  stroke="#3B8CC5"
  strokeWidth="2"
  strokeMiterlimit="10"
/>
<path
  d="M64.6943 54.1563C64.6943 52.2588 66.2241 50.7188 68.109 50.7188C69.9938 50.7188 71.5236 52.2588 71.5236 54.1563V57.5938H64.6943V54.1563Z"
  stroke="#3B8CC5"
  strokeWidth="2"
  strokeMiterlimit="10"
/>
<path
  d="M68.7916 67.9063V71.3438H46.938V43.1563L50.3526 39.7188H68.7916V49.3438"
  stroke="#3B8CC5"
  strokeWidth="2"
  strokeMiterlimit="10"
/>
</g>
<path d="M51.7183 41.0938V44.5313H48.3037" stroke="#3B8CC5" strokeWidth="2" strokeMiterlimit="10" />
<defs>
<filter id="filter0_d" x="0" y="0" width="120" height="120" filterUnits="userSpaceOnUse" color-interpolation-filters="sRGB">
<feFlood flood-opacity="0" result="BackgroundImageFix"/>
<feColorMatrix in="SourceAlpha" type="matrix" values="0 0 0 0 0 0 0 0 0 0 0 0 0 0 0 0 0 0 127 0"/>
<feOffset dy="4"/>
<feGaussianBlur stdDeviation="10"/>
<feColorMatrix type="matrix" values="0 0 0 0 0 0 0 0 0 0 0 0 0 0 0 0 0 0 0.15 0"/>
<feBlend mode="normal" in2="BackgroundImageFix" result="effect1_dropShadow"/>
<feBlend mode="normal" in="SourceGraphic" in2="effect1_dropShadow" result="shape"/>
</filter>
</defs>
</svg>
