<svg width="120" height="120" viewBox="0 0 120 120" fill="none" xmlns="http://www.w3.org/2000/svg">
<g filter="url(#filter0_d_3364_29377)">
<circle cx="60" cy="56" r="40" fill="white"/>
</g>
<g clip-path="url(#clip0_3364_29377)">
<path d="M72.7891 61V69.2857" stroke="#2D5FAA" stroke-width="2" stroke-miterlimit="10" stroke-linecap="round" stroke-linejoin="round"/>
<path d="M77.0527 65.6667L72.7895 69.8572L68.5264 65.6667" stroke="#2D5FAA" stroke-width="2" stroke-miterlimit="10" stroke-linecap="round" stroke-linejoin="round"/>
<path d="M47.21 61V69.2857" stroke="#2D5FAA" stroke-width="2" stroke-miterlimit="10" stroke-linecap="round" stroke-linejoin="round"/>
<path d="M51.4736 65.6667L47.2104 69.8572L42.9473 65.6667" stroke="#2D5FAA" stroke-width="2" stroke-miterlimit="10" stroke-linecap="round" stroke-linejoin="round"/>
<path d="M59.999 67.6667V77.4763" stroke="#2D5FAA" stroke-width="2" stroke-miterlimit="10" stroke-linecap="round" stroke-linejoin="round"/>
<path d="M64.2626 73.8572L59.9995 78.0477L55.7363 73.8572" stroke="#2D5FAA" stroke-width="2" stroke-miterlimit="10" stroke-linecap="round" stroke-linejoin="round"/>
<path d="M64.8308 45.9523C64.8308 45.9523 64.3571 42.238 60.0939 42.238C56.8729 42.238 55.0729 44.0476 55.1676 46.0476C55.1676 48.3333 57.7255 49.7618 60.4729 49.8571C63.1255 49.8571 64.9255 51.2857 64.9255 53.5714C64.9255 55.8571 62.7466 57.4761 59.6203 57.1904C55.2624 56.9047 55.1676 52.9047 55.1676 52.9047" stroke="#2D5FAA" stroke-width="2" stroke-miterlimit="10" stroke-linecap="round" stroke-linejoin="round"/>
<path d="M60.1885 42.2381V39.9524" stroke="#2D5FAA" stroke-width="2" stroke-miterlimit="10" stroke-linecap="round" stroke-linejoin="round"/>
<path d="M60.1885 59.4761V57.2856" stroke="#2D5FAA" stroke-width="2" stroke-miterlimit="10" stroke-linecap="round" stroke-linejoin="round"/>
<path d="M59.9995 63.5714C67.5862 63.5714 73.7364 57.3887 73.7364 49.7619C73.7364 42.1351 67.5862 35.9524 59.9995 35.9524C52.4129 35.9524 46.2627 42.1351 46.2627 49.7619C46.2627 57.3887 52.4129 63.5714 59.9995 63.5714Z" stroke="#2D5FAA" stroke-width="2" stroke-miterlimit="10" stroke-linecap="round" stroke-linejoin="round"/>
</g>
<defs>
<filter id="filter0_d_3364_29377" x="0" y="0" width="120" height="120" filterUnits="userSpaceOnUse" color-interpolation-filters="sRGB">
<feFlood flood-opacity="0" result="BackgroundImageFix"/>
<feColorMatrix in="SourceAlpha" type="matrix" values="0 0 0 0 0 0 0 0 0 0 0 0 0 0 0 0 0 0 127 0" result="hardAlpha"/>
<feOffset dy="4"/>
<feGaussianBlur stdDeviation="10"/>
<feColorMatrix type="matrix" values="0 0 0 0 0 0 0 0 0 0 0 0 0 0 0 0 0 0 0.15 0"/>
<feBlend mode="normal" in2="BackgroundImageFix" result="effect1_dropShadow_3364_29377"/>
<feBlend mode="normal" in="SourceGraphic" in2="effect1_dropShadow_3364_29377" result="shape"/>
</filter>
<clipPath id="clip0_3364_29377">
<rect width="36" height="44" fill="white" transform="translate(42 35)"/>
</clipPath>
</defs>
</svg>
