<svg width="120" height="120" viewBox="0 0 120 120" fill="none" xmlns="http://www.w3.org/2000/svg">
<g filter="url(#filter0_d)">
<circle cx="60" cy="56" r="40" fill="white"/>
</g>
<g clip-path="url(#clip0)">
<path d="M73.317 65.8125C73.317 66.1906 73.0096 66.5 72.634 66.5H63.0731C62.6975 66.5 62.3901 66.1906 62.3901 65.8125V58.25C62.3901 57.8719 62.6975 57.5625 63.0731 57.5625H72.634C73.0096 57.5625 73.317 57.8719 73.317 58.25V65.8125Z" stroke="#3B8CC5" stroke-width="2" stroke-miterlimit="10"/>
<path d="M64.439 54.125C64.439 52.2275 65.9687 50.6875 67.8536 50.6875C69.7385 50.6875 71.2682 52.2275 71.2682 54.125V57.5625H64.439V54.125Z" stroke="#3B8CC5" stroke-width="2" stroke-miterlimit="10"/>
<path d="M68.5365 67.875V71.3125H46.6829V43.125L50.0975 39.6875H68.5365V49.3125" stroke="#3B8CC5" stroke-width="2" stroke-miterlimit="10"/>
<path d="M51.4632 41.0625V44.5H48.0486" stroke="#3B8CC5" stroke-width="2" stroke-miterlimit="10"/>
</g>
<defs>
<filter id="filter0_d" x="0" y="0" width="120" height="120" filterUnits="userSpaceOnUse" color-interpolation-filters="sRGB">
<feFlood flood-opacity="0" result="BackgroundImageFix"/>
<feColorMatrix in="SourceAlpha" type="matrix" values="0 0 0 0 0 0 0 0 0 0 0 0 0 0 0 0 0 0 127 0"/>
<feOffset dy="4"/>
<feGaussianBlur stdDeviation="10"/>
<feColorMatrix type="matrix" values="0 0 0 0 0 0 0 0 0 0 0 0 0 0 0 0 0 0 0.15 0"/>
<feBlend mode="normal" in2="BackgroundImageFix" result="effect1_dropShadow"/>
<feBlend mode="normal" in="SourceGraphic" in2="effect1_dropShadow" result="shape"/>
</filter>
<clipPath id="clip0">
<rect width="28" height="33" fill="white" transform="translate(46 39)"/>
</clipPath>
</defs>
</svg>
