<svg width="120" height="120" viewBox="0 0 120 120" fill="none" xmlns="http://www.w3.org/2000/svg">
<g filter="url(#filter0_d_3364_29370)">
<circle cx="60" cy="56" r="40" fill="white"/>
</g>
<g clip-path="url(#clip0_3364_29370)">
<path d="M73.3165 65.8125C73.3165 66.1906 73.0092 66.5 72.6336 66.5H63.0726C62.697 66.5 62.3896 66.1906 62.3896 65.8125V58.25C62.3896 57.8719 62.697 57.5625 63.0726 57.5625H72.6336C73.0092 57.5625 73.3165 57.8719 73.3165 58.25V65.8125Z" stroke="#2D5FAA" stroke-width="2" stroke-miterlimit="10"/>
<path d="M64.4385 54.125C64.4385 52.2275 65.9682 50.6875 67.8531 50.6875C69.738 50.6875 71.2677 52.2275 71.2677 54.125V57.5625H64.4385V54.125Z" stroke="#2D5FAA" stroke-width="2" stroke-miterlimit="10"/>
<path d="M68.5363 67.875V71.3125H46.6826V43.125L50.0973 39.6875H68.5363V49.3125" stroke="#2D5FAA" stroke-width="2" stroke-miterlimit="10"/>
<path d="M51.4635 41.0625V44.5H48.0488" stroke="#2D5FAA" stroke-width="2" stroke-miterlimit="10"/>
</g>
<defs>
<filter id="filter0_d_3364_29370" x="0" y="0" width="120" height="120" filterUnits="userSpaceOnUse" color-interpolation-filters="sRGB">
<feFlood flood-opacity="0" result="BackgroundImageFix"/>
<feColorMatrix in="SourceAlpha" type="matrix" values="0 0 0 0 0 0 0 0 0 0 0 0 0 0 0 0 0 0 127 0" result="hardAlpha"/>
<feOffset dy="4"/>
<feGaussianBlur stdDeviation="10"/>
<feColorMatrix type="matrix" values="0 0 0 0 0 0 0 0 0 0 0 0 0 0 0 0 0 0 0.15 0"/>
<feBlend mode="normal" in2="BackgroundImageFix" result="effect1_dropShadow_3364_29370"/>
<feBlend mode="normal" in="SourceGraphic" in2="effect1_dropShadow_3364_29370" result="shape"/>
</filter>
<clipPath id="clip0_3364_29370">
<rect width="28" height="33" fill="white" transform="translate(46 39)"/>
</clipPath>
</defs>
</svg>
