<svg width="120" height="120" viewBox="0 0 120 120" fill="none" xmlns="http://www.w3.org/2000/svg">
<g filter="url(#filter0_d)">
<circle cx="60" cy="56" r="40" fill="white"/>
</g>
<g clipPath="url(#clip1)">
<path
  d="M63.1841 49.6667C64.6228 47.7854 65.2615 46.75 67.5884 46.75H71.2587C73.1012 46.75 75.6631 47.4573 75.6631 50.3958V53.3125C75.6631 54.9312 74.217 56.2292 72.7269 56.2292"
  stroke="#3B8CC5"
  strokeWidth="2"
  strokeMiterlimit="10"
  strokeLinejoin="round"
/>
<path
  d="M66.8545 55.5V51.8541H66.1205L64.6523 52.5833"
  stroke="#3B8CC5"
  strokeWidth="2"
  strokeMiterlimit="10"
  strokeLinejoin="round"
/>
<path
  d="M72.7271 51.125V58.4167"
  stroke="#3B8CC5"
  strokeWidth="2"
  strokeMiterlimit="10"
  strokeLinejoin="round"
/>
<path
  d="M47.0495 63.6667C45.3905 66.1969 44.3996 69.3542 44.3335 72.2708H77.8654C77.6819 63.5208 70.2458 56.1052 61.0994 56.1052C60.0424 56.1052 59.0074 56.2 58.009 56.3896"
  stroke="#3B8CC5"
  strokeWidth="2"
  strokeMiterlimit="10"
  strokeLinejoin="round"
/>
<path
  d="M51.439 72.2708V70.8927C51.439 69.952 51.9308 69.3541 52.8777 69.3541H57.6711C58.6181 69.3541 59.5136 68.4281 59.5136 67.4947V66.8166C59.5136 65.876 60.1449 64.9864 61.0919 64.9864C62.0388 64.9864 62.4499 64.3593 62.4499 63.4187V62.7406C62.4499 61.8 62.0461 61.3406 61.0992 61.3406H58.0455"
  stroke="#3B8CC5"
  strokeWidth="2"
  strokeMiterlimit="10"
  strokeLinejoin="round"
/>
<path
  d="M73.4609 62.0625H68.2858C67.5297 62.0625 66.8544 63.0031 66.8544 63.7542V64.4323C66.8544 65.1833 67.5297 65.7083 68.2858 65.7083H69.6585C70.4146 65.7083 71.2587 66.3573 71.2587 67.1083V67.1885C71.2587 67.9396 70.4146 68.625 69.6585 68.625H66.2378C64.7256 68.625 63.1914 69.7333 63.1914 71.2354V72.2708"
  stroke="#3B8CC5"
  strokeWidth="2"
  strokeMiterlimit="10"
  strokeLinejoin="round"
/>
<path
  d="M55.8436 66.4375V51.125H56.6364C56.6364 51.125 58.3247 52.401 59.5139 53.3125C61.3784 54.7417 63.4851 52.9333 63.4851 52.9333C63.4851 52.9333 60.7691 50.0677 59.5139 48.9375C58.1999 47.7635 56.7465 46.75 54.3754 46.75H50.7051C48.8627 46.75 46.3008 47.7635 46.3008 51.125V54.0417C46.3008 55.6604 47.9157 56.9583 49.237 56.9583"
  stroke="#3B8CC5"
  strokeWidth="2"
  strokeMiterlimit="10"
  strokeLinejoin="round"
/>
<path
  d="M49.2368 50.3958V66.4374"
  stroke="#3B8CC5"
  strokeWidth="2"
  strokeMiterlimit="10"
  strokeLinejoin="round"
/>
<path
  d="M52.1733 56.2291V66.4375"
  stroke="#3B8CC5"
  strokeWidth="2"
  strokeMiterlimit="10"
  strokeLinejoin="round"
/>
<path
  d="M52.5404 38.7291C51.1751 38.7291 49.9712 39.6916 49.9712 41.0625V42.2291C49.9712 43.6 51.1751 44.5625 52.5404 44.5625C53.9058 44.5625 55.1096 43.6 55.1096 42.2291V41.0625C55.1096 39.6916 53.9131 38.7291 52.5404 38.7291Z"
  stroke="#3B8CC5"
  strokeWidth="2"
  strokeMiterlimit="10"
  strokeLinejoin="round"
/>
<path
  d="M70.1576 38.7291C68.7922 38.7291 67.5884 39.6916 67.5884 41.0625V42.2291C67.5884 43.6 68.7922 44.5625 70.1576 44.5625C71.5229 44.5625 72.7268 43.6 72.7268 42.2291V41.0625C72.7268 39.6916 71.5303 38.7291 70.1576 38.7291Z"
  stroke="#3B8CC5"
  strokeWidth="2"
  strokeMiterlimit="10"
  strokeLinejoin="round"
/>
</g>
<path d="M51.7183 41.0938V44.5313H48.3037" stroke="#3B8CC5" strokeWidth="2" strokeMiterlimit="10" />
<defs>
<filter id="filter0_d" x="0" y="0" width="120" height="120" filterUnits="userSpaceOnUse" color-interpolation-filters="sRGB">
<feFlood flood-opacity="0" result="BackgroundImageFix"/>
<feColorMatrix in="SourceAlpha" type="matrix" values="0 0 0 0 0 0 0 0 0 0 0 0 0 0 0 0 0 0 127 0"/>
<feOffset dy="4"/>
<feGaussianBlur stdDeviation="10"/>
<feColorMatrix type="matrix" values="0 0 0 0 0 0 0 0 0 0 0 0 0 0 0 0 0 0 0.15 0"/>
<feBlend mode="normal" in2="BackgroundImageFix" result="effect1_dropShadow"/>
<feBlend mode="normal" in="SourceGraphic" in2="effect1_dropShadow" result="shape"/>
</filter>
</defs>
</svg>
