<svg width="117" height="120" viewBox="0 0 117 120" fill="none" xmlns="http://www.w3.org/2000/svg">
<g filter="url(#filter0_d_7443_8705)">
<circle cx="60" cy="56" r="40" fill="white"/>
</g>
<path d="M59.585 49.6667C61.0237 47.7854 61.6624 46.75 63.9893 46.75H67.6596C69.5021 46.75 72.064 47.4573 72.064 50.3958V53.3125C72.064 54.9312 70.6179 56.2292 69.1277 56.2292" stroke="#2D5FAA" stroke-width="2" stroke-miterlimit="10" stroke-linejoin="round"/>
<path d="M63.2549 55.5001V51.8542H62.5209L61.0527 52.5834" stroke="#2D5FAA" stroke-width="2" stroke-miterlimit="10" stroke-linejoin="round"/>
<path d="M69.1279 51.125V58.4167" stroke="#2D5FAA" stroke-width="2" stroke-miterlimit="10" stroke-linejoin="round"/>
<path d="M43.4504 63.6667C41.7914 66.1969 40.8004 69.3542 40.7344 72.2708H74.2663C74.0827 63.5208 66.6467 56.1052 57.5003 56.1052C56.4433 56.1052 55.4082 56.2 54.4099 56.3896" stroke="#2D5FAA" stroke-width="2" stroke-miterlimit="10" stroke-linejoin="round"/>
<path d="M47.8398 72.271V70.8929C47.8398 69.9523 48.3317 69.3544 49.2786 69.3544H54.072C55.019 69.3544 55.9145 68.4283 55.9145 67.495V66.8169C55.9145 65.8762 56.5458 64.9867 57.4927 64.9867C58.4397 64.9867 58.8507 64.3596 58.8507 63.4189V62.7408C58.8507 61.8002 58.447 61.3408 57.5001 61.3408H54.4464" stroke="#2D5FAA" stroke-width="2" stroke-miterlimit="10" stroke-linejoin="round"/>
<path d="M69.8623 62.0625H64.6872C63.9311 62.0625 63.2557 63.0031 63.2557 63.7542V64.4323C63.2557 65.1833 63.9311 65.7083 64.6872 65.7083H66.0598C66.8159 65.7083 67.6601 66.3573 67.6601 67.1083V67.1885C67.6601 67.9396 66.8159 68.625 66.0598 68.625H62.6391C61.127 68.625 59.5928 69.7333 59.5928 71.2354V72.2708" stroke="#2D5FAA" stroke-width="2" stroke-miterlimit="10" stroke-linejoin="round"/>
<path d="M52.244 66.4375V51.125H53.0367C53.0367 51.125 54.7251 52.401 55.9143 53.3125C57.7788 54.7417 59.8855 52.9333 59.8855 52.9333C59.8855 52.9333 57.1695 50.0677 55.9143 48.9375C54.6003 47.7635 53.1469 46.75 50.7758 46.75H47.1055C45.263 46.75 42.7012 47.7635 42.7012 51.125V54.0417C42.7012 55.6604 44.3161 56.9583 45.6374 56.9583" stroke="#2D5FAA" stroke-width="2" stroke-miterlimit="10" stroke-linejoin="round"/>
<path d="M45.6377 50.396V66.4377" stroke="#2D5FAA" stroke-width="2" stroke-miterlimit="10" stroke-linejoin="round"/>
<path d="M48.5742 56.2292V66.4376" stroke="#2D5FAA" stroke-width="2" stroke-miterlimit="10" stroke-linejoin="round"/>
<path d="M48.9413 38.7292C47.5759 38.7292 46.3721 39.6917 46.3721 41.0626V42.2292C46.3721 43.6001 47.5759 44.5626 48.9413 44.5626C50.3066 44.5626 51.5105 43.6001 51.5105 42.2292V41.0626C51.5105 39.6917 50.314 38.7292 48.9413 38.7292Z" stroke="#2D5FAA" stroke-width="2" stroke-miterlimit="10" stroke-linejoin="round"/>
<path d="M66.5585 38.7292C65.1931 38.7292 63.9893 39.6917 63.9893 41.0626V42.2292C63.9893 43.6001 65.1931 44.5626 66.5585 44.5626C67.9238 44.5626 69.1277 43.6001 69.1277 42.2292V41.0626C69.1277 39.6917 67.9312 38.7292 66.5585 38.7292Z" stroke="#2D5FAA" stroke-width="2" stroke-miterlimit="10" stroke-linejoin="round"/>
<defs>
<filter id="filter0_d_7443_8705" x="0" y="0" width="120" height="120" filterUnits="userSpaceOnUse" color-interpolation-filters="sRGB">
<feFlood flood-opacity="0" result="BackgroundImageFix"/>
<feColorMatrix in="SourceAlpha" type="matrix" values="0 0 0 0 0 0 0 0 0 0 0 0 0 0 0 0 0 0 127 0" result="hardAlpha"/>
<feOffset dy="4"/>
<feGaussianBlur stdDeviation="10"/>
<feColorMatrix type="matrix" values="0 0 0 0 0 0 0 0 0 0 0 0 0 0 0 0 0 0 0.15 0"/>
<feBlend mode="normal" in2="BackgroundImageFix" result="effect1_dropShadow_7443_8705"/>
<feBlend mode="normal" in="SourceGraphic" in2="effect1_dropShadow_7443_8705" result="shape"/>
</filter>
</defs>
</svg>
