<svg width="56" height="41" viewBox="0 0 56 41" fill="none" xmlns="http://www.w3.org/2000/svg">
<g clip-path="url(#clip0)">
<path d="M47.0073 16.4631L50.6461 20.1797" stroke="white" stroke-width="2" stroke-miterlimit="10" stroke-linecap="round" stroke-linejoin="round"/>
<path d="M54.0287 14.2192L52.4924 12.65C51.6703 11.8103 50.3091 11.8103 49.487 12.65L34.2717 28.1908C34.1099 28.356 34.0021 28.5487 33.9347 28.7551L32.3175 34.8944L38.2473 33.2839L38.2339 33.2701C38.3821 33.215 38.5169 33.1187 38.6382 32.9948L54.0153 17.2888C54.8643 16.4492 54.8643 15.0589 54.0287 14.2192Z" stroke="white" stroke-width="2" stroke-miterlimit="10" stroke-linecap="round" stroke-linejoin="round"/>
<path d="M7.52014 19.1335H21.9808" stroke="white" stroke-width="2" stroke-miterlimit="10" stroke-linecap="round" stroke-linejoin="round"/>
<path d="M7.52014 25.4792H21.9808" stroke="white" stroke-width="2" stroke-miterlimit="10" stroke-linecap="round" stroke-linejoin="round"/>
<path d="M7.52014 31.8113H21.9808" stroke="white" stroke-width="2" stroke-miterlimit="10" stroke-linecap="round" stroke-linejoin="round"/>
<path d="M42.3847 35.5276V38.845C42.3847 39.2579 42.0613 39.5883 41.657 39.5883H2.07541C1.6711 39.5883 1.34766 39.2579 1.34766 38.845V2.11978C1.34766 1.70683 1.6711 1.37646 2.07541 1.37646H41.6435C42.0478 1.37646 42.3712 1.70683 42.3712 2.11978V13.476" stroke="white" stroke-width="2" stroke-miterlimit="10" stroke-linecap="round" stroke-linejoin="round"/>
<path d="M1.34766 11.2461H42.3847" stroke="white" stroke-width="2" stroke-miterlimit="10"/>
<path d="M7.99174 7.81866C8.95934 7.81866 9.74373 7.0175 9.74373 6.0292C9.74373 5.04091 8.95934 4.23975 7.99174 4.23975C7.02414 4.23975 6.23975 5.04091 6.23975 6.0292C6.23975 7.0175 7.02414 7.81866 7.99174 7.81866Z" fill="white"/>
<path d="M13.2343 7.81866C14.2019 7.81866 14.9863 7.0175 14.9863 6.0292C14.9863 5.04091 14.2019 4.23975 13.2343 4.23975C12.2667 4.23975 11.4823 5.04091 11.4823 6.0292C11.4823 7.0175 12.2667 7.81866 13.2343 7.81866Z" fill="white"/>
</g>
<defs>
<clipPath id="clip0">
<rect width="55.9964" height="40.9648" fill="white"/>
</clipPath>
</defs>
</svg>
