<svg width="32" height="41" viewBox="0 0 32 41" fill="none" xmlns="http://www.w3.org/2000/svg">
<path d="M30.5933 20.3517V8.50862L23.2996 1.18677H1.18213V39.8134H30.5933V36.372" stroke="white" stroke-width="2" stroke-miterlimit="10" stroke-linecap="round" stroke-linejoin="round"/>
<path d="M6.13519 13.1128H15.3912" stroke="white" stroke-width="2" stroke-miterlimit="10" stroke-linecap="round" stroke-linejoin="round"/>
<path d="M6.13519 17.9426H11.8448" stroke="white" stroke-width="2" stroke-miterlimit="10" stroke-linecap="round" stroke-linejoin="round"/>
<path d="M6.13519 22.7842H10.0007" stroke="white" stroke-width="2" stroke-miterlimit="10" stroke-linecap="round" stroke-linejoin="round"/>
<path d="M6.13519 27.614H11.8448" stroke="white" stroke-width="2" stroke-miterlimit="10" stroke-linecap="round" stroke-linejoin="round"/>
<path d="M6.13519 32.4438H15.3912" stroke="white" stroke-width="2" stroke-miterlimit="10" stroke-linecap="round" stroke-linejoin="round"/>
<path d="M23.2996 1.18677V9.2681H30.3332" stroke="white" stroke-width="2" stroke-miterlimit="10" stroke-linecap="round" stroke-linejoin="round"/>
<path d="M22.0347 28.8245C25.1358 28.8245 27.6498 26.3009 27.6498 23.1878C27.6498 20.0747 25.1358 17.551 22.0347 17.551C18.9336 17.551 16.4196 20.0747 16.4196 23.1878C16.4196 26.3009 18.9336 28.8245 22.0347 28.8245Z" stroke="white" stroke-width="1.7704" stroke-miterlimit="10" stroke-linecap="round" stroke-linejoin="round"/>
<path d="M26.2667 27.6616L30.8179 32.2422" stroke="white" stroke-width="2" stroke-miterlimit="10" stroke-linecap="round" stroke-linejoin="round"/>
</svg>
