<svg width="44" height="41" viewBox="0 0 44 41" fill="none" xmlns="http://www.w3.org/2000/svg">
<path d="M30.9014 13.1486V8.50862L23.5343 1.18677H1.19397V39.8134H30.9014V31.9694" stroke="white" stroke-width="2" stroke-miterlimit="10" stroke-linecap="round" stroke-linejoin="round"/>
<path d="M6.85376 12.9231H15.009" stroke="white" stroke-width="2" stroke-miterlimit="10" stroke-linecap="round" stroke-linejoin="round"/>
<path d="M6.85376 17.7649H15.009" stroke="white" stroke-width="2" stroke-miterlimit="10" stroke-linecap="round" stroke-linejoin="round"/>
<path d="M6.85376 22.5945H15.009" stroke="white" stroke-width="2" stroke-miterlimit="10" stroke-linecap="round" stroke-linejoin="round"/>
<path d="M6.85376 27.4243H15.009" stroke="white" stroke-width="2" stroke-miterlimit="10" stroke-linecap="round" stroke-linejoin="round"/>
<path d="M6.85376 32.2661H15.009" stroke="white" stroke-width="2" stroke-miterlimit="10" stroke-linecap="round" stroke-linejoin="round"/>
<path d="M23.5343 1.18677V9.2681H30.6388" stroke="white" stroke-width="2" stroke-miterlimit="10" stroke-linecap="round" stroke-linejoin="round"/>
<path d="M36.0358 15.2371L39.2596 18.4411" stroke="white" stroke-width="2" stroke-miterlimit="10" stroke-linecap="round" stroke-linejoin="round"/>
<path d="M42.2567 13.3027L40.8955 11.9499C40.1671 11.226 38.9612 11.226 38.2328 11.9499L24.7522 25.3594C24.6089 25.5018 24.5134 25.668 24.4537 25.846L23.0209 31.1386L28.2746 29.7502L28.2627 29.7383C28.394 29.6908 28.5134 29.6078 28.6209 29.501L42.2448 15.9609C42.997 15.2251 42.997 14.0385 42.2567 13.3027Z" stroke="white" stroke-width="2" stroke-miterlimit="10" stroke-linecap="round" stroke-linejoin="round"/>
</svg>
