<svg width="18" height="19" viewBox="0 0 18 19" fill="none" xmlns="http://www.w3.org/2000/svg">
    <path d="M15 5.41602L15.1543 5.41992C15.3318 5.42892 15.5048 5.45559 15.6729 5.49414C16.7515 5.74151 17.6052 6.56907 17.8926 7.63184C17.9603 7.8821 18 8.14435 18 8.41602V15.916L17.9961 16.0703C17.9874 16.242 17.9622 16.4094 17.9258 16.5723C17.6735 17.7019 16.7859 18.5895 15.6562 18.8418C15.4934 18.8782 15.326 18.9034 15.1543 18.9121L15 18.916H7.5L7.3457 18.9121C7.1737 18.9034 7.00594 18.8783 6.84277 18.8418C5.71352 18.5892 4.82538 17.7017 4.57324 16.5723C4.5369 16.4095 4.5126 16.2419 4.50391 16.0703L4.5 15.916V8.41602C4.5 6.81091 5.76055 5.50023 7.3457 5.41992L7.5 5.41602H15ZM10.5 0.916016C12.1569 0.916016 13.5 2.25916 13.5 3.91602H7.5C5.01472 3.91602 3 5.93073 3 8.41602V14.416C1.34315 14.416 1.208e-08 13.0729 0 11.416V3.91602C0 2.25916 1.34315 0.916016 3 0.916016H10.5Z" fill="#89969F"/>
</svg>
