<svg width="168" height="40" viewBox="0 0 168 40" fill="none" xmlns="http://www.w3.org/2000/svg">
<path d="M16.2368 5.30286C17.7101 5.30286 18.9045 4.11577 18.9045 2.65143C18.9045 1.18709 17.7101 0 16.2368 0C14.7634 0 13.569 1.18709 13.569 2.65143C13.569 4.11577 14.7634 5.30286 16.2368 5.30286Z" fill="#EF7D00"/>
<path d="M3.54172 18.331C5.49776 18.331 7.08344 16.7551 7.08344 14.811C7.08344 12.867 5.49776 11.291 3.54172 11.291C1.58568 11.291 0 12.867 0 14.811C0 16.7551 1.58568 18.331 3.54172 18.331Z" fill="#2660A8"/>
<path d="M13.5229 28.9824C15.479 28.9824 17.0646 27.4064 17.0646 25.4624C17.0646 23.5183 15.479 21.9424 13.5229 21.9424C11.5669 21.9424 9.9812 23.5183 9.9812 25.4624C9.9812 27.4064 11.5669 28.9824 13.5229 28.9824Z" fill="#2660A8"/>
<path d="M23.8721 4.93714C25.2439 4.93714 26.3559 3.83193 26.3559 2.46857C26.3559 1.10522 25.2439 0 23.8721 0C22.5003 0 21.3883 1.10522 21.3883 2.46857C21.3883 3.83193 22.5003 4.93714 23.8721 4.93714Z" fill="#EF7D00"/>
<path d="M31.7835 4.93714C33.1553 4.93714 34.2673 3.83193 34.2673 2.46857C34.2673 1.10522 33.1553 0 31.7835 0C30.4117 0 29.2997 1.10522 29.2997 2.46857C29.2997 3.83193 30.4117 4.93714 31.7835 4.93714Z" fill="#EF7D00"/>
<path d="M23.8721 23.0856C25.2439 23.0856 26.3559 21.9804 26.3559 20.617C26.3559 19.2537 25.2439 18.1484 23.8721 18.1484C22.5003 18.1484 21.3883 19.2537 21.3883 20.617C21.3883 21.9804 22.5003 23.0856 23.8721 23.0856Z" fill="#EF7D00"/>
<path d="M13.5689 39.9547C15.5504 39.9547 17.1566 38.3582 17.1566 36.389C17.1566 34.4197 15.5504 32.8232 13.5689 32.8232C11.5875 32.8232 9.9812 34.4197 9.9812 36.389C9.9812 38.3582 11.5875 39.9547 13.5689 39.9547Z" fill="#2660A8"/>
<path d="M26.218 10.423C25.712 9.23438 24.4241 8.59438 23.1822 8.9601C22.3083 9.23438 21.6643 9.9201 21.4803 10.7887C21.3883 11.1087 21.2044 11.383 20.9744 11.6115C19.5485 12.6172 17.7546 12.8001 16.1448 12.1601C15.8688 12.0687 15.5468 11.9315 15.2708 11.7487C15.1328 11.6572 14.9489 11.6115 14.8109 11.5201H14.7189C13.9369 11.2001 13.063 11.2001 12.2351 11.5201C10.3952 12.2515 9.52128 14.263 10.2112 16.0915C10.9012 17.8287 12.833 18.743 14.6269 18.1487C15.3628 17.9201 16.0068 17.4172 16.4207 16.7772C16.5127 16.6401 16.6047 16.4572 16.6967 16.3201C16.6967 16.3201 18.9505 12.5715 21.8023 13.0287C22.0323 13.1201 22.2623 13.2115 22.4923 13.3487C23.1362 13.8058 23.9181 13.8972 24.6541 13.6687C25.942 13.2572 26.6779 11.8401 26.264 10.5601C26.218 10.5144 26.218 10.4687 26.218 10.423Z" fill="url(#paint0_linear_7356_637)"/>
<path d="M32.6115 20.9824H46.6403V24.5481H41.4887V39.9539H37.717V24.5481H32.6115V20.9824Z" fill="#2660A8"/>
<path d="M51.47 26.3768V28.7083C51.7459 27.8854 52.2979 27.1997 53.0338 26.7883C53.8158 26.3311 54.6897 26.1025 55.6096 26.1025V29.9883C54.5977 29.8511 53.5398 30.0797 52.7119 30.6283C51.8839 31.1768 51.47 32.1368 51.47 33.4168V39.9083H47.9742V26.3768H51.47Z" fill="#2660A8"/>
<path d="M105.884 20.9824H119.913V24.5481H114.761V39.9539H110.989V24.5481H105.884V20.9824Z" fill="#EF7D00"/>
<path d="M124.742 26.3768V28.7083C125.018 27.8854 125.57 27.1997 126.306 26.7883C127.088 26.3311 127.962 26.1025 128.882 26.1025V29.9883C127.87 29.8511 126.858 30.0797 125.984 30.6283C125.156 31.1768 124.742 32.1368 124.742 33.4168V39.9083H121.246V26.3768H124.742Z" fill="#EF7D00"/>
<path d="M149.764 29.851C149.764 30.4453 150.592 30.9025 152.248 31.3596C152.8 31.4968 153.306 31.6339 153.812 31.8168C154.318 31.9996 154.778 32.2282 155.238 32.5482C155.698 32.8682 156.112 33.2796 156.388 33.8282C156.664 34.3768 156.802 35.0168 156.802 35.6568C156.848 36.9368 156.25 38.1253 155.238 38.9025C154.088 39.6796 152.708 40.0453 151.328 39.9996C148.522 39.9996 146.636 38.9025 145.578 36.7539L148.614 35.0625C149.028 36.251 149.948 36.8453 151.282 36.8453C152.524 36.8453 153.168 36.4796 153.168 35.6568C153.168 35.0625 152.34 34.6053 150.684 34.1482C150.04 33.9653 149.534 33.8282 149.12 33.6453C148.614 33.4625 148.154 33.2339 147.694 32.9139C147.188 32.6396 146.82 32.1825 146.544 31.6796C146.268 31.131 146.13 30.5368 146.13 29.9425C146.084 28.7082 146.636 27.5653 147.602 26.7882C148.66 26.011 149.994 25.5996 151.328 25.5996C152.386 25.5996 153.444 25.8282 154.364 26.331C155.284 26.8339 156.02 27.5653 156.526 28.4796L153.536 30.1253C153.168 29.2568 152.294 28.7082 151.328 28.7539C150.914 28.7539 150.546 28.8453 150.178 29.0739C149.948 29.2568 149.81 29.531 149.764 29.851Z" fill="#EF7D00"/>
<path d="M167.059 26.2398V29.6226H163.977V35.2912C163.931 35.6569 164.069 36.0684 164.345 36.3426C164.621 36.5712 164.989 36.7084 165.403 36.7084C165.955 36.7541 166.553 36.7541 167.105 36.7084V39.9084C164.713 40.1826 163.011 39.9541 161.999 39.2226C160.987 38.4912 160.481 37.2112 160.481 35.3369V29.6226H158.09V26.2855H160.481V23.5426L164.023 22.4912V26.2855H167.059V26.2398Z" fill="#EF7D00"/>
<path d="M134.907 26.4229V33.6914C134.907 35.4286 135.735 36.48 137.621 36.48C139.507 36.48 140.335 35.4286 140.335 33.6914V26.4229H143.831V33.7371C143.831 34.6971 143.693 35.6571 143.371 36.5714C143.049 37.3486 142.543 37.9886 141.945 38.4914C139.369 40.3657 135.873 40.3657 133.298 38.4914C132.654 37.9886 132.148 37.3029 131.826 36.5714C131.504 35.6571 131.366 34.6971 131.412 33.7371V26.4229H134.907Z" fill="#EF7D00"/>
<path d="M68.0286 27.611V26.011H71.5243V39.5425H68.0286V37.9425C66.9707 39.2682 65.3148 39.9996 63.567 39.9082C61.7731 39.9082 60.0712 39.1768 58.8753 37.851C56.2995 34.9253 56.2995 30.5825 58.8753 27.7025C60.0712 26.3768 61.7731 25.5996 63.567 25.5996C65.4988 25.6453 66.9707 26.2853 68.0286 27.611ZM60.4852 32.8225C60.4852 34.7882 62.0951 36.3882 64.0729 36.3882C66.0508 36.3882 67.6606 34.7882 67.6606 32.8225C67.6606 30.8568 66.0508 29.2568 64.0729 29.2568C62.0951 29.2568 60.4852 30.811 60.4852 32.8225Z" fill="#2660A8"/>
<path d="M85.0933 27.6113V20.5713H88.589V39.5427H85.0933V37.9427C84.0354 39.2684 82.5635 39.9084 80.6776 39.9084C78.8838 39.9084 77.1819 39.177 75.94 37.8513C73.3642 34.9256 73.3642 30.5827 75.94 27.7027C77.1359 26.377 78.8378 25.5999 80.6317 25.5999C82.5635 25.6456 84.0354 26.2856 85.0933 27.6113ZM77.5039 32.8227C77.5039 34.7884 79.1138 36.3884 81.0916 36.3884C83.0695 36.3884 84.6793 34.7884 84.6793 32.8227C84.6793 30.857 83.0695 29.257 81.0916 29.257C79.1598 29.257 77.5499 30.8113 77.5039 32.8227Z" fill="#2660A8"/>
<path d="M104.458 34.1943H94.1545C94.6145 35.8858 95.9024 36.7543 98.0182 36.7543C99.2141 36.8457 100.364 36.2972 101.1 35.3829L103.952 37.0286C102.618 38.9943 100.594 39.9543 97.9722 39.9543C95.7184 39.9543 93.8786 39.2686 92.5447 37.8972C89.8309 35.0172 89.8309 30.5372 92.4987 27.6572C93.8786 26.2857 95.7644 25.5086 97.7423 25.6C99.6281 25.5543 101.422 26.2857 102.71 27.6572C103.998 29.0286 104.734 30.8572 104.642 32.7772C104.55 33.2343 104.504 33.7372 104.458 34.1943ZM94.0625 31.4515H101.054C100.778 29.8057 99.3061 28.6629 97.6503 28.7086C96.8223 28.6629 95.9944 28.9372 95.3044 29.44C94.6605 29.9429 94.2465 30.6743 94.0625 31.4515Z" fill="#2660A8"/>
<defs>
<linearGradient id="paint0_linear_7356_637" x1="13.8901" y1="17.1009" x2="25.0143" y2="5.90341" gradientUnits="userSpaceOnUse">
<stop stop-color="#2660A8"/>
<stop offset="0.1" stop-color="#3061A0"/>
<stop offset="0.27" stop-color="#4A658A"/>
<stop offset="0.49" stop-color="#756B66"/>
<stop offset="0.75" stop-color="#AF7436"/>
<stop offset="1" stop-color="#EF7D00"/>
</linearGradient>
</defs>
</svg>
