            <svg width="16" height="16" viewBox="0 0 16 16" fill="none" xmlns="http://www.w3.org/2000/svg">
              <path
                fillRule="evenodd"
                clipRule="evenodd"
                d="M12.4609 4.30931C12.4669 4.10293 12.3876 3.90321 12.2416 3.75721C12.0956 3.61122 11.8959 3.53187 11.6895 3.53786L7.68186 3.65422C7.26782 3.66624 6.94192 4.01164 6.95395 4.42567C6.96597 4.83971 7.31136 5.16561 7.7254 5.15359L10.8326 5.06337C10.8901 5.0617 10.9371 5.10875 10.9354 5.16623L10.8452 8.27341C10.8332 8.68744 11.1591 9.03284 11.5731 9.04486C11.9872 9.05688 12.3326 8.73098 12.3446 8.31694L12.4609 4.30931ZM5.15412 7.72487C5.16615 7.31083 4.84025 6.96544 4.42621 6.95341C4.01217 6.94139 3.66678 7.26729 3.65476 7.68133L3.53839 11.689C3.5324 11.8953 3.61175 12.0951 3.75775 12.2411C3.90374 12.3871 4.10346 12.4664 4.30984 12.4604L8.31747 12.344C8.73151 12.332 9.05741 11.9866 9.04539 11.5726C9.03337 11.1586 8.68798 10.8327 8.27394 10.8447L5.16677 10.9349C5.10928 10.9366 5.06224 10.8895 5.06391 10.832L5.15412 7.72487Z"
                fill="white"
              />
            </svg>