<svg width="36" height="48" viewBox="0 0 36 48" fill="none" xmlns="http://www.w3.org/2000/svg">
<mask id="path-1-inside-1" fill="white">
<path fill-rule="evenodd" clip-rule="evenodd" d="M27.908 0H3C1.34315 0 0 1.34315 0 3V45C0 46.6569 1.34315 48 3 48H33C34.6569 48 36 46.6569 36 45V8.09197L27.908 0Z"/>
</mask>
<path fill-rule="evenodd" clip-rule="evenodd" d="M27.908 0H3C1.34315 0 0 1.34315 0 3V45C0 46.6569 1.34315 48 3 48H33C34.6569 48 36 46.6569 36 45V8.09197L27.908 0Z" fill="#F5F5F5"/>
<path d="M27.908 0L29.3222 -1.41421L28.7365 -2H27.908V0ZM36 8.09197H38V7.26354L37.4142 6.67775L36 8.09197ZM3 2H27.908V-2H3V2ZM2 3C2 2.44772 2.44772 2 3 2V-2C0.238576 -2 -2 0.238576 -2 3H2ZM2 45V3H-2V45H2ZM3 46C2.44772 46 2 45.5523 2 45H-2C-2 47.7614 0.238574 50 3 50V46ZM33 46H3V50H33V46ZM34 45C34 45.5523 33.5523 46 33 46V50C35.7614 50 38 47.7614 38 45H34ZM34 8.09197V45H38V8.09197H34ZM37.4142 6.67775L29.3222 -1.41421L26.4938 1.41421L34.5858 9.50618L37.4142 6.67775Z" fill="#969696" mask="url(#path-1-inside-1)"/>
<path d="M27 2V7.35294C27.1778 7.90196 27.7467 9 28.6 9C29.4533 9 33.2222 9 35 9" stroke="#969696" stroke-width="2"/>
<rect y="24" width="36" height="16" fill="#217844"/>
<path d="M13.8374 33.395C13.7765 34.2365 13.465 34.8989 12.9028 35.3823C12.3442 35.8657 11.6066 36.1074 10.6899 36.1074C9.68734 36.1074 8.89779 35.7708 8.32129 35.0977C7.74837 34.4209 7.46191 33.4935 7.46191 32.3154V31.8374C7.46191 31.0854 7.5944 30.423 7.85938 29.8501C8.12435 29.2772 8.50212 28.8385 8.99268 28.5342C9.48682 28.2262 10.0597 28.0723 10.7114 28.0723C11.6138 28.0723 12.3407 28.314 12.8921 28.7974C13.4435 29.2808 13.7622 29.9593 13.8481 30.833H12.2368C12.1974 30.3281 12.056 29.9629 11.8125 29.7373C11.5726 29.5081 11.2056 29.3936 10.7114 29.3936C10.1743 29.3936 9.77148 29.5869 9.50293 29.9736C9.23796 30.3568 9.10189 30.953 9.09473 31.7622V32.353C9.09473 33.1981 9.22184 33.8158 9.47607 34.2061C9.73389 34.5964 10.1385 34.7915 10.6899 34.7915C11.1877 34.7915 11.5583 34.6787 11.8018 34.4531C12.0488 34.224 12.1903 33.8713 12.2261 33.395H13.8374ZM18.9507 33.9482C18.9507 33.6439 18.8433 33.4111 18.6284 33.25C18.4136 33.0853 18.0269 32.9134 17.4683 32.7344C16.9097 32.5518 16.4674 32.3727 16.1416 32.1973C15.2536 31.7174 14.8096 31.0711 14.8096 30.2583C14.8096 29.8358 14.9277 29.4598 15.1641 29.1304C15.404 28.7974 15.7459 28.5378 16.1899 28.3516C16.6375 28.1654 17.1388 28.0723 17.6938 28.0723C18.2524 28.0723 18.7502 28.1743 19.187 28.3784C19.6239 28.5789 19.9622 28.8636 20.2021 29.2324C20.4456 29.6012 20.5674 30.0202 20.5674 30.4893H18.9561C18.9561 30.1312 18.8433 29.8537 18.6177 29.6567C18.3921 29.4562 18.0752 29.356 17.667 29.356C17.2731 29.356 16.967 29.4401 16.7485 29.6084C16.5301 29.7731 16.4209 29.9915 16.4209 30.2637C16.4209 30.5179 16.548 30.731 16.8022 30.9028C17.0601 31.0747 17.4378 31.2358 17.9355 31.3862C18.8522 31.6619 19.52 32.0039 19.939 32.4121C20.3579 32.8203 20.5674 33.3288 20.5674 33.9375C20.5674 34.6143 20.3114 35.146 19.7993 35.5327C19.2873 35.9159 18.598 36.1074 17.7314 36.1074C17.1299 36.1074 16.582 35.9982 16.0879 35.7798C15.5938 35.5578 15.216 35.2552 14.9546 34.8721C14.6968 34.4889 14.5679 34.0449 14.5679 33.54H16.1846C16.1846 34.403 16.7002 34.8345 17.7314 34.8345C18.1146 34.8345 18.4136 34.7575 18.6284 34.6035C18.8433 34.446 18.9507 34.2275 18.9507 33.9482ZM24.5527 34.061L26.3252 28.1797H28.1191L25.396 36H23.7148L21.0024 28.1797H22.791L24.5527 34.061Z" fill="white"/>
</svg>
