<svg width="36" height="48" viewBox="0 0 36 48" fill="none" xmlns="http://www.w3.org/2000/svg">
<mask id="path-1-inside-1" fill="white">
<path fill-rule="evenodd" clip-rule="evenodd" d="M27.908 0H3C1.34315 0 0 1.34315 0 3V45C0 46.6569 1.34315 48 3 48H33C34.6569 48 36 46.6569 36 45V8.09197L27.908 0Z"/>
</mask>
<path fill-rule="evenodd" clip-rule="evenodd" d="M27.908 0H3C1.34315 0 0 1.34315 0 3V45C0 46.6569 1.34315 48 3 48H33C34.6569 48 36 46.6569 36 45V8.09197L27.908 0Z" fill="#F5F5F5"/>
<path d="M27.908 0L29.3222 -1.41421L28.7365 -2H27.908V0ZM36 8.09197H38V7.26354L37.4142 6.67775L36 8.09197ZM3 2H27.908V-2H3V2ZM2 3C2 2.44772 2.44772 2 3 2V-2C0.238576 -2 -2 0.238576 -2 3H2ZM2 45V3H-2V45H2ZM3 46C2.44772 46 2 45.5523 2 45H-2C-2 47.7614 0.238574 50 3 50V46ZM33 46H3V50H33V46ZM34 45C34 45.5523 33.5523 46 33 46V50C35.7614 50 38 47.7614 38 45H34ZM34 8.09197V45H38V8.09197H34ZM37.4142 6.67775L29.3222 -1.41421L26.4938 1.41421L34.5858 9.50618L37.4142 6.67775Z" fill="#969696" mask="url(#path-1-inside-1)"/>
<path d="M27 2V7.35294C27.1778 7.90196 27.7467 9 28.6 9C29.4533 9 33.2222 9 35 9" stroke="#969696" stroke-width="2"/>
<rect y="24" width="36" height="16" fill="#50BEE8"/>
<path d="M7.69824 36V28.1797H10.1045C10.792 28.1797 11.4061 28.3354 11.9468 28.647C12.491 28.9549 12.9154 29.3953 13.2197 29.9683C13.5241 30.5376 13.6763 31.1857 13.6763 31.9126V32.2725C13.6763 32.9993 13.5259 33.6457 13.2251 34.2114C12.9279 34.7772 12.5072 35.2158 11.9629 35.5273C11.4186 35.8389 10.8045 35.9964 10.1206 36H7.69824ZM9.30957 29.4849V34.7056H10.0884C10.7186 34.7056 11.2002 34.4997 11.5332 34.0879C11.8662 33.6761 12.0363 33.0871 12.0435 32.3208V31.9072C12.0435 31.1123 11.8787 30.5107 11.5493 30.1025C11.2199 29.6908 10.7383 29.4849 10.1045 29.4849H9.30957ZM21.2764 32.2671C21.2764 33.0369 21.1403 33.7119 20.8682 34.292C20.596 34.8721 20.2057 35.3197 19.6973 35.6348C19.1924 35.9499 18.6123 36.1074 17.957 36.1074C17.3089 36.1074 16.7306 35.9517 16.2222 35.6401C15.7137 35.3286 15.3198 34.8846 15.0405 34.3081C14.7612 33.728 14.6198 33.062 14.6162 32.3101V31.9233C14.6162 31.1535 14.7541 30.4767 15.0298 29.8931C15.3091 29.3058 15.7012 28.8564 16.2061 28.5449C16.7145 28.2298 17.2946 28.0723 17.9463 28.0723C18.598 28.0723 19.1763 28.2298 19.6812 28.5449C20.1896 28.8564 20.5817 29.3058 20.8574 29.8931C21.1367 30.4767 21.2764 31.1517 21.2764 31.918V32.2671ZM19.6436 31.9126C19.6436 31.0926 19.4967 30.4696 19.2031 30.0435C18.9095 29.6174 18.4906 29.4043 17.9463 29.4043C17.4056 29.4043 16.9884 29.6156 16.6948 30.0381C16.4012 30.457 16.2526 31.0729 16.249 31.8857V32.2671C16.249 33.0656 16.3958 33.6851 16.6895 34.1255C16.9831 34.5659 17.4056 34.7861 17.957 34.7861C18.4977 34.7861 18.9131 34.5749 19.2031 34.1523C19.4932 33.7262 19.64 33.1068 19.6436 32.2939V31.9126ZM28.5864 33.395C28.5256 34.2365 28.214 34.8989 27.6519 35.3823C27.0933 35.8657 26.3556 36.1074 25.439 36.1074C24.4364 36.1074 23.6468 35.7708 23.0703 35.0977C22.4974 34.4209 22.2109 33.4935 22.2109 32.3154V31.8374C22.2109 31.0854 22.3434 30.423 22.6084 29.8501C22.8734 29.2772 23.2511 28.8385 23.7417 28.5342C24.2358 28.2262 24.8088 28.0723 25.4604 28.0723C26.3628 28.0723 27.0897 28.314 27.6411 28.7974C28.1925 29.2808 28.5112 29.9593 28.5972 30.833H26.9858C26.9465 30.3281 26.805 29.9629 26.5615 29.7373C26.3216 29.5081 25.9546 29.3936 25.4604 29.3936C24.9233 29.3936 24.5205 29.5869 24.252 29.9736C23.987 30.3568 23.8509 30.953 23.8438 31.7622V32.353C23.8438 33.1981 23.9709 33.8158 24.2251 34.2061C24.4829 34.5964 24.8875 34.7915 25.439 34.7915C25.9367 34.7915 26.3073 34.6787 26.5508 34.4531C26.7979 34.224 26.9393 33.8713 26.9751 33.395H28.5864Z" fill="white"/>
</svg>
