<svg width="36" height="48" viewBox="0 0 36 48" fill="none" xmlns="http://www.w3.org/2000/svg">
<mask id="path-1-inside-1" fill="white">
<path fill-rule="evenodd" clip-rule="evenodd" d="M27.908 0H3C1.34315 0 0 1.34315 0 3V45C0 46.6569 1.34315 48 3 48H33C34.6569 48 36 46.6569 36 45V8.09197L27.908 0Z"/>
</mask>
<path fill-rule="evenodd" clip-rule="evenodd" d="M27.908 0H3C1.34315 0 0 1.34315 0 3V45C0 46.6569 1.34315 48 3 48H33C34.6569 48 36 46.6569 36 45V8.09197L27.908 0Z" fill="#F5F5F5"/>
<path d="M27.908 0L29.3222 -1.41421L28.7365 -2H27.908V0ZM36 8.09197H38V7.26354L37.4142 6.67775L36 8.09197ZM3 2H27.908V-2H3V2ZM2 3C2 2.44772 2.44772 2 3 2V-2C0.238576 -2 -2 0.238576 -2 3H2ZM2 45V3H-2V45H2ZM3 46C2.44772 46 2 45.5523 2 45H-2C-2 47.7614 0.238574 50 3 50V46ZM33 46H3V50H33V46ZM34 45C34 45.5523 33.5523 46 33 46V50C35.7614 50 38 47.7614 38 45H34ZM34 8.09197V45H38V8.09197H34ZM37.4142 6.67775L29.3222 -1.41421L26.4938 1.41421L34.5858 9.50618L37.4142 6.67775Z" fill="#969696" mask="url(#path-1-inside-1)"/>
<path d="M27 2V7.35294C27.1778 7.90196 27.7467 9 28.6 9C29.4533 9 33.2222 9 35 9" stroke="#969696" stroke-width="2"/>
<rect y="24" width="36" height="16" fill="#8BC684"/>
<path d="M10.8511 28.1797H12.4624V33.5938C12.4624 34.0915 12.3514 34.5319 12.1294 34.915C11.911 35.2946 11.6012 35.5882 11.2002 35.7959C10.7992 36.0036 10.3462 36.1074 9.84131 36.1074C9.01416 36.1074 8.36963 35.8979 7.90771 35.479C7.4458 35.0565 7.21484 34.4603 7.21484 33.6904H8.83691C8.83691 34.0736 8.91748 34.3564 9.07861 34.5391C9.23975 34.7217 9.49398 34.813 9.84131 34.813C10.1493 34.813 10.3945 34.7074 10.5771 34.4961C10.7598 34.2848 10.8511 33.984 10.8511 33.5938V28.1797ZM15.4541 33.2446V36H13.8428V28.1797H16.8936C17.4808 28.1797 17.9964 28.2871 18.4404 28.502C18.888 28.7168 19.2318 29.0229 19.4717 29.4204C19.7116 29.8143 19.8315 30.2637 19.8315 30.7686C19.8315 31.5348 19.5684 32.14 19.042 32.584C18.5192 33.0244 17.7941 33.2446 16.8667 33.2446H15.4541ZM15.4541 31.9395H16.8936C17.3197 31.9395 17.6437 31.8392 17.8657 31.6387C18.0913 31.4382 18.2041 31.1517 18.2041 30.7793C18.2041 30.3962 18.0913 30.0864 17.8657 29.8501C17.6401 29.6138 17.3286 29.492 16.9312 29.4849H15.4541V31.9395ZM27.1309 35.0117C26.8408 35.359 26.4308 35.6294 25.9009 35.8228C25.3709 36.0125 24.7837 36.1074 24.1392 36.1074C23.4624 36.1074 22.868 35.9606 22.356 35.667C21.8475 35.3698 21.4536 34.9401 21.1743 34.3779C20.8986 33.8158 20.7572 33.1551 20.75 32.396V31.8643C20.75 31.0837 20.8807 30.4087 21.1421 29.8394C21.4071 29.2664 21.7866 28.8296 22.2808 28.5288C22.7785 28.2244 23.3604 28.0723 24.0264 28.0723C24.9538 28.0723 25.6789 28.2943 26.2017 28.7383C26.7244 29.1787 27.0342 29.8215 27.1309 30.6665H25.5625C25.4909 30.2189 25.3315 29.8913 25.0845 29.6836C24.841 29.4759 24.5044 29.3721 24.0747 29.3721C23.5269 29.3721 23.1097 29.578 22.8232 29.9897C22.5368 30.4015 22.3918 31.0138 22.3882 31.8267V32.3262C22.3882 33.1462 22.5439 33.7656 22.8555 34.1846C23.167 34.6035 23.6235 34.813 24.2251 34.813C24.8302 34.813 25.2617 34.6841 25.5195 34.4263V33.0781H24.0532V31.8911H27.1309V35.0117Z" fill="white"/>
</svg>
