<svg width="36" height="48" viewBox="0 0 36 48" fill="none" xmlns="http://www.w3.org/2000/svg">
<mask id="path-1-inside-1" fill="white">
<path fill-rule="evenodd" clip-rule="evenodd" d="M27.908 0H3C1.34315 0 0 1.34315 0 3V45C0 46.6569 1.34315 48 3 48H33C34.6569 48 36 46.6569 36 45V8.09197L27.908 0Z"/>
</mask>
<path fill-rule="evenodd" clip-rule="evenodd" d="M27.908 0H3C1.34315 0 0 1.34315 0 3V45C0 46.6569 1.34315 48 3 48H33C34.6569 48 36 46.6569 36 45V8.09197L27.908 0Z" fill="#F5F5F5"/>
<path d="M27.908 0L29.3222 -1.41421L28.7365 -2H27.908V0ZM36 8.09197H38V7.26354L37.4142 6.67775L36 8.09197ZM3 2H27.908V-2H3V2ZM2 3C2 2.44772 2.44772 2 3 2V-2C0.238576 -2 -2 0.238576 -2 3H2ZM2 45V3H-2V45H2ZM3 46C2.44772 46 2 45.5523 2 45H-2C-2 47.7614 0.238574 50 3 50V46ZM33 46H3V50H33V46ZM34 45C34 45.5523 33.5523 46 33 46V50C35.7614 50 38 47.7614 38 45H34ZM34 8.09197V45H38V8.09197H34ZM37.4142 6.67775L29.3222 -1.41421L26.4938 1.41421L34.5858 9.50618L37.4142 6.67775Z" fill="#969696" mask="url(#path-1-inside-1)"/>
<path d="M27 2V7.35294C27.1778 7.90196 27.7467 9 28.6 9C29.4533 9 33.2222 9 35 9" stroke="#969696" stroke-width="2"/>
<rect y="24" width="36" height="16" fill="#CC4B4C"/>
<path d="M9.30957 33.2446V36H7.69824V28.1797H10.749C11.3363 28.1797 11.8519 28.2871 12.2959 28.502C12.7435 28.7168 13.0872 29.0229 13.3271 29.4204C13.5671 29.8143 13.687 30.2637 13.687 30.7686C13.687 31.5348 13.4238 32.14 12.8975 32.584C12.3747 33.0244 11.6496 33.2446 10.7222 33.2446H9.30957ZM9.30957 31.9395H10.749C11.1751 31.9395 11.4992 31.8392 11.7212 31.6387C11.9468 31.4382 12.0596 31.1517 12.0596 30.7793C12.0596 30.3962 11.9468 30.0864 11.7212 29.8501C11.4956 29.6138 11.1841 29.492 10.7866 29.4849H9.30957V31.9395ZM14.7988 36V28.1797H17.2051C17.8926 28.1797 18.5067 28.3354 19.0474 28.647C19.5916 28.9549 20.016 29.3953 20.3203 29.9683C20.6247 30.5376 20.7769 31.1857 20.7769 31.9126V32.2725C20.7769 32.9993 20.6265 33.6457 20.3257 34.2114C20.0285 34.7772 19.6077 35.2158 19.0635 35.5273C18.5192 35.8389 17.9051 35.9964 17.2212 36H14.7988ZM16.4102 29.4849V34.7056H17.189C17.8192 34.7056 18.3008 34.4997 18.6338 34.0879C18.9668 33.6761 19.1369 33.0871 19.144 32.3208V31.9072C19.144 31.1123 18.9793 30.5107 18.6499 30.1025C18.3205 29.6908 17.8389 29.4849 17.2051 29.4849H16.4102ZM26.6582 32.8042H23.5645V36H21.9531V28.1797H27.0449V29.4849H23.5645V31.5044H26.6582V32.8042Z" fill="white"/>
</svg>
