<svg width="36" height="48" viewBox="0 0 36 48" fill="none" xmlns="http://www.w3.org/2000/svg">
<mask id="path-1-inside-1" fill="white">
<path fill-rule="evenodd" clip-rule="evenodd" d="M27.908 0H3C1.34315 0 0 1.34315 0 3V45C0 46.6569 1.34315 48 3 48H33C34.6569 48 36 46.6569 36 45V8.09197L27.908 0Z"/>
</mask>
<path fill-rule="evenodd" clip-rule="evenodd" d="M27.908 0H3C1.34315 0 0 1.34315 0 3V45C0 46.6569 1.34315 48 3 48H33C34.6569 48 36 46.6569 36 45V8.09197L27.908 0Z" fill="#F5F5F5"/>
<path d="M27.908 0L29.3222 -1.41421L28.7365 -2H27.908V0ZM36 8.09197H38V7.26354L37.4142 6.67775L36 8.09197ZM3 2H27.908V-2H3V2ZM2 3C2 2.44772 2.44772 2 3 2V-2C0.238576 -2 -2 0.238576 -2 3H2ZM2 45V3H-2V45H2ZM3 46C2.44772 46 2 45.5523 2 45H-2C-2 47.7614 0.238574 50 3 50V46ZM33 46H3V50H33V46ZM34 45C34 45.5523 33.5523 46 33 46V50C35.7614 50 38 47.7614 38 45H34ZM34 8.09197V45H38V8.09197H34ZM37.4142 6.67775L29.3222 -1.41421L26.4938 1.41421L34.5858 9.50618L37.4142 6.67775Z" fill="#969696" mask="url(#path-1-inside-1)"/>
<path d="M27 2V7.35294C27.1778 7.90196 27.7467 9 28.6 9C29.4533 9 33.2222 9 35 9" stroke="#969696" stroke-width="2"/>
<rect y="24" width="36" height="16" fill="#6670C3"/>
<path d="M9.30957 33.2446V36H7.69824V28.1797H10.749C11.3363 28.1797 11.8519 28.2871 12.2959 28.502C12.7435 28.7168 13.0872 29.0229 13.3271 29.4204C13.5671 29.8143 13.687 30.2637 13.687 30.7686C13.687 31.5348 13.4238 32.14 12.8975 32.584C12.3747 33.0244 11.6496 33.2446 10.7222 33.2446H9.30957ZM9.30957 31.9395H10.749C11.1751 31.9395 11.4992 31.8392 11.7212 31.6387C11.9468 31.4382 12.0596 31.1517 12.0596 30.7793C12.0596 30.3962 11.9468 30.0864 11.7212 29.8501C11.4956 29.6138 11.1841 29.492 10.7866 29.4849H9.30957V31.9395ZM21.1582 36H19.5469L16.4102 30.8545V36H14.7988V28.1797H16.4102L19.5522 33.3359V28.1797H21.1582V36ZM28.7529 35.0117C28.4629 35.359 28.0529 35.6294 27.5229 35.8228C26.993 36.0125 26.4058 36.1074 25.7612 36.1074C25.0845 36.1074 24.4901 35.9606 23.978 35.667C23.4696 35.3698 23.0757 34.9401 22.7964 34.3779C22.5207 33.8158 22.3792 33.1551 22.3721 32.396V31.8643C22.3721 31.0837 22.5028 30.4087 22.7642 29.8394C23.0291 29.2664 23.4087 28.8296 23.9028 28.5288C24.4006 28.2244 24.9824 28.0723 25.6484 28.0723C26.5758 28.0723 27.3009 28.2943 27.8237 28.7383C28.3465 29.1787 28.6562 29.8215 28.7529 30.6665H27.1846C27.113 30.2189 26.9536 29.8913 26.7065 29.6836C26.4631 29.4759 26.1265 29.3721 25.6968 29.3721C25.1489 29.3721 24.7318 29.578 24.4453 29.9897C24.1589 30.4015 24.0138 31.0138 24.0103 31.8267V32.3262C24.0103 33.1462 24.166 33.7656 24.4775 34.1846C24.7891 34.6035 25.2456 34.813 25.8472 34.813C26.4523 34.813 26.8838 34.6841 27.1416 34.4263V33.0781H25.6753V31.8911H28.7529V35.0117Z" fill="white"/>
</svg>
