<svg width="36" height="48" viewBox="0 0 36 48" fill="none" xmlns="http://www.w3.org/2000/svg">
<mask id="path-1-inside-1" fill="white">
<path fill-rule="evenodd" clip-rule="evenodd" d="M27.908 0H3C1.34315 0 0 1.34315 0 3V45C0 46.6569 1.34315 48 3 48H33C34.6569 48 36 46.6569 36 45V8.09197L27.908 0Z"/>
</mask>
<path fill-rule="evenodd" clip-rule="evenodd" d="M27.908 0H3C1.34315 0 0 1.34315 0 3V45C0 46.6569 1.34315 48 3 48H33C34.6569 48 36 46.6569 36 45V8.09197L27.908 0Z" fill="#F5F5F5"/>
<path d="M27.908 0L29.3222 -1.41421L28.7365 -2H27.908V0ZM36 8.09197H38V7.26354L37.4142 6.67775L36 8.09197ZM3 2H27.908V-2H3V2ZM2 3C2 2.44772 2.44772 2 3 2V-2C0.238576 -2 -2 0.238576 -2 3H2ZM2 45V3H-2V45H2ZM3 46C2.44772 46 2 45.5523 2 45H-2C-2 47.7614 0.238574 50 3 50V46ZM33 46H3V50H33V46ZM34 45C34 45.5523 33.5523 46 33 46V50C35.7614 50 38 47.7614 38 45H34ZM34 8.09197V45H38V8.09197H34ZM37.4142 6.67775L29.3222 -1.41421L26.4938 1.41421L34.5858 9.50618L37.4142 6.67775Z" fill="#969696" mask="url(#path-1-inside-1)"/>
<path d="M27 2V7.35294C27.1778 7.90196 27.7467 9 28.6 9C29.4533 9 33.2222 9 35 9" stroke="#969696" stroke-width="2"/>
<rect y="24" width="36" height="16" fill="#4E4E4E"/>
<path d="M13.585 29.4849H11.1895V36H9.57812V29.4849H7.21484V28.1797H13.585V29.4849ZM17.3071 30.876L18.7734 28.1797H20.6265L18.3491 32.0576L20.6855 36H18.811L17.3071 33.2607L15.8032 36H13.9287L16.2651 32.0576L13.9878 28.1797H15.8408L17.3071 30.876ZM27.3887 29.4849H24.9932V36H23.3818V29.4849H21.0186V28.1797H27.3887V29.4849Z" fill="white"/>
</svg>
