<svg width="28" height="41" viewBox="0 0 28 41" fill="none" xmlns="http://www.w3.org/2000/svg">
<g clip-path="url(#clip0_9848_53890)">
<path d="M2.36792 12.192C2.56733 6.61856 6.68838 2.13418 12.4047 1.30137C18.4533 0.404492 24.369 4.56855 25.499 10.3982C25.8978 12.4482 25.499 14.3701 24.7678 16.292C23.4385 19.7514 21.6438 23.0186 19.7162 26.2217C18.7192 27.8873 17.7222 29.5529 16.6587 31.1545C15.3958 33.0764 12.5376 33.1404 11.2747 31.1545C8.61597 27.0545 6.15663 22.8904 4.16257 18.4701C3.43142 16.8045 2.70026 15.1389 2.43439 13.3451C2.43439 12.9607 2.43439 12.5764 2.36792 12.192ZM14.0664 7.13105C11.4741 7.13105 9.34712 9.11699 9.34712 11.6154C9.34712 14.1139 11.4076 16.1639 13.9999 16.1639C16.5922 16.1639 18.6527 14.1139 18.6527 11.6795C18.7192 9.18105 16.5922 7.13105 14.0664 7.13105Z" stroke="white" stroke-width="2" stroke-miterlimit="10" stroke-linecap="round"/>
<path d="M19.996 31.7539C24.6488 32.3305 26.2967 33.868 26.2967 35.6617C26.2967 37.968 20.7799 39.8258 14.0001 39.8258C7.22026 39.8258 1.70337 37.968 1.70337 35.6617C1.70337 33.868 3.18402 32.3305 7.90329 31.7539" stroke="white" stroke-width="2" stroke-miterlimit="10" stroke-linecap="round"/>
</g>
<defs>
<clipPath id="clip0_9848_53890">
<rect width="27" height="41" fill="white" transform="translate(0.5)"/>
</clipPath>
</defs>
</svg>
