<svg width="46" height="41" viewBox="0 0 46 41" fill="none" xmlns="http://www.w3.org/2000/svg">
<g clip-path="url(#clip0_9848_53887)">
<path d="M25.9558 20.9169L24.2126 18.7109C24.2126 18.7109 4.20377 33.9243 2.38479 35.4456C0.565797 36.967 2.08162 38.7926 2.08162 38.7926C2.08162 38.7926 3.59744 40.6182 5.41643 39.1729C7.15963 37.6516 25.9558 20.9169 25.9558 20.9169Z" stroke="white" stroke-width="2" stroke-miterlimit="10"/>
<path d="M19.2861 12.8555L25.1221 19.8536L30.8064 26.9278" stroke="white" stroke-width="2" stroke-miterlimit="10"/>
<path d="M41.1139 18.4083L35.4296 11.3341L29.6694 4.33594" stroke="white" stroke-width="2" stroke-miterlimit="10"/>
<path d="M33.1561 29.9715C32.3224 30.6561 31.1097 30.504 30.4276 29.6672C29.7455 28.8305 29.8971 27.6134 30.7308 26.9288L41.4173 18.1811C42.251 17.4965 43.4637 17.6487 44.1458 18.4854C44.8279 19.3221 44.6764 20.5392 43.8427 21.2238L33.1561 29.9715Z" stroke="white" stroke-width="2" stroke-miterlimit="10"/>
<path d="M19.2862 12.9306C18.4525 13.6152 17.2399 13.463 16.5578 12.6263C15.8756 11.7896 16.0272 10.5725 16.8609 9.88791L27.4717 1.2163C28.3054 0.531695 29.518 0.683829 30.2002 1.52056C30.8823 2.3573 30.7307 3.57437 29.897 4.25897L19.2862 12.9306Z" stroke="white" stroke-width="2" stroke-miterlimit="10"/>
<path d="M40.8108 37.2713V35.9021C40.8108 34.9893 40.0529 34.3047 39.2192 34.3047H26.0316C25.1221 34.3047 24.4399 35.0654 24.4399 35.9021V37.2713H40.8108Z" stroke="white" stroke-width="1.7161" stroke-miterlimit="10"/>
<path d="M43.9183 40.3924V39.0232C43.9183 38.1104 43.1604 37.4258 42.3267 37.4258H22.9241C22.0146 37.4258 21.3325 38.1864 21.3325 39.0232V40.3924H43.9183Z" stroke="white" stroke-width="1.7161" stroke-miterlimit="10"/>
</g>
<defs>
<clipPath id="clip0_9848_53887">
<rect width="44.5652" height="41" fill="white" transform="translate(0.717285)"/>
</clipPath>
</defs>
</svg>
