<svg width="28" height="28" viewBox="0 0 28 28" fill="none" xmlns="http://www.w3.org/2000/svg">
<path d="M25.9285 11.6216L26.0704 12.6855C26.4017 15.1794 25.9178 17.7136 24.6911 19.9101C23.4645 22.1066 21.5606 23.8477 19.2635 24.8738C16.9664 25.8999 14.3992 26.1559 11.9447 25.6038C9.49025 25.0516 7.28001 23.7208 5.64366 21.8098C4.0073 19.8989 3.03251 17.5102 2.86465 15C2.69679 12.4897 3.34486 9.9925 4.71222 7.8807C6.07957 5.76889 8.09294 4.15566 10.4521 3.28161C12.8112 2.40755 15.3896 2.31951 17.8029 3.0306" stroke="#FF8200" stroke-width="3" stroke-linecap="round" stroke-linejoin="round"/>
<line x1="15.5" y1="8" x2="15.5" y2="17" stroke="#FF8200" stroke-width="3" stroke-linecap="round" stroke-linejoin="round"/>
<circle cx="14.75" cy="21.25" r="0.75" fill="#FF8200" stroke="#FF8200" stroke-width="1.5"/>
</svg>
