<svg width="333" height="342" viewBox="0 0 333 342" fill="none" xmlns="http://www.w3.org/2000/svg">
<path d="M65.5438 208.822L151.273 64.6671C152.408 62.022 156.695 57.4453 164.765 60.2988L199.5 80.5L188 83.4933C186.054 84.4781 179.5 84.4864 185.5 87.5C186.515 88.0099 191.925 90.4164 193.917 90.4574C194.314 90.5203 194.949 90.6784 195.8 90.9604C197.432 86.6833 198.497 85.5563 200.944 84.4864C203.817 83.7146 208.774 83.9974 210.238 83.4933L216.006 78.2818C223.789 76.0366 225.514 81.9334 225.802 82.9582C225.938 83.4413 225.179 88.1272 224.215 90.5706C222.713 93.1256 223.923 97.7756 224.682 101.044L224.806 106.061L206.08 95.994C201.519 93.1983 197.963 91.6781 195.8 90.9604C194.486 92.3439 189.893 94.9525 183.674 90.5064C180.023 89.0032 171.28 87.1055 165.517 91.5401L238.622 133.195C239.271 131.04 239.605 125.436 235.452 120.911C232.028 118.976 225.953 115.655 224 110.5L235.703 116.768C236.129 116.02 235.461 112.46 233.548 109.789C231.951 107.558 229.193 102.677 228 98L266.445 119.548C268.114 120.687 270.858 124.502 268.477 130.642L184 278C181 283 176 286 169.5 282L68.1112 223.7C65.6655 222.249 61.728 217.241 65.5438 208.822Z" fill="white" stroke="#454B50" stroke-width="3"/>
<path d="M237 123C242.891 126.482 251.553 131.559 256.31 134.344C258.213 135.459 258.853 137.902 257.743 139.808L178.605 275.745C177.494 277.654 175.045 278.301 173.136 277.189L72.0321 218.33C70.1229 217.219 69.4763 214.77 70.5877 212.861L149.708 76.9541C150.825 75.0359 153.29 74.3937 155.2 75.5231L178 89" stroke="#454B50" stroke-width="3"/>
<line x1="148.185" y1="103.741" x2="234.717" y2="153.7" stroke="#454B50" stroke-width="3" stroke-linecap="round"/>
<line x1="140.378" y1="117.264" x2="226.909" y2="167.223" stroke="#454B50" stroke-width="3" stroke-linecap="round"/>
<line x1="132.57" y1="130.787" x2="219.102" y2="180.746" stroke="#454B50" stroke-width="3" stroke-linecap="round"/>
<line x1="124.763" y1="144.311" x2="211.294" y2="194.27" stroke="#454B50" stroke-width="3" stroke-linecap="round"/>
<line x1="116.955" y1="157.834" x2="203.487" y2="207.793" stroke="#454B50" stroke-width="3" stroke-linecap="round"/>
<line x1="109.148" y1="171.357" x2="195.679" y2="221.316" stroke="#454B50" stroke-width="3" stroke-linecap="round"/>
<line x1="89.2736" y1="205.779" x2="113.722" y2="219.894" stroke="#454B50" stroke-width="3" stroke-linecap="round"/>
<path d="M142.417 237.784C145.098 235.507 153.663 236.901 156.368 238.462L159.346 241.821C159.587 240.457 163.237 237.92 167.622 241.682L168.047 245.205L168.294 249.036C171.045 247.346 177.603 244.411 181.821 246.191" stroke="#454B50" stroke-width="3" stroke-linecap="round" stroke-linejoin="round"/>
</svg>
