<svg width="333" height="342" viewBox="0 0 333 342" fill="none" xmlns="http://www.w3.org/2000/svg">
<path d="M65.3056 208.1L151.034 63.9456C152.169 61.3006 156.457 56.7239 164.527 59.5773L200.692 80.4924L186.588 82.8839C184.641 83.8688 181.68 86.2127 185.406 87.7098C186.46 88.1333 191.687 89.695 193.678 89.736C195.085 89.9587 199.488 91.378 205.841 95.2726L224.568 105.34L224.443 100.322C223.685 97.0541 222.474 92.4041 223.977 89.8491C224.941 87.4058 225.7 82.7198 225.564 82.2367C225.275 81.212 223.55 75.3152 215.767 77.5603L209.999 82.7719C208.536 83.2759 203.579 82.9932 200.705 83.765C198.259 84.8348 197.193 85.9619 195.561 90.239C194.248 91.6225 189.654 94.2311 183.436 89.785C179.785 88.2818 171.042 86.3841 165.279 90.8187L238.383 132.473C239.033 130.318 239.367 124.714 235.213 120.19C231.79 118.255 224.382 113.259 222.429 108.104L235.464 116.047C235.891 115.299 235.223 111.738 233.31 109.067C231.712 106.837 228.04 100.709 226.847 96.0328L266.206 118.826C267.876 119.966 270.62 123.78 268.239 129.92L185.735 273.089C184.169 275.506 179.602 285.055 173.259 283.501L67.8729 222.979C65.4272 221.527 61.4897 216.519 65.3056 208.1Z" stroke="#454B50" stroke-width="3"/>
<rect x="152.037" y="74.8037" width="121.989" height="162.287" transform="rotate(30.2065 152.037 74.8037)" fill="white" fill-opacity="0.3" stroke="#454B50" stroke-width="3"/>
<line x1="148.185" y1="102.741" x2="234.717" y2="152.7" stroke="#454B50" stroke-width="3" stroke-linecap="round"/>
<line x1="140.378" y1="116.264" x2="226.909" y2="166.223" stroke="#454B50" stroke-width="3" stroke-linecap="round"/>
<line x1="132.57" y1="129.787" x2="219.102" y2="179.746" stroke="#454B50" stroke-width="3" stroke-linecap="round"/>
<line x1="124.763" y1="143.311" x2="211.294" y2="193.27" stroke="#454B50" stroke-width="3" stroke-linecap="round"/>
<line x1="116.955" y1="156.834" x2="203.487" y2="206.793" stroke="#454B50" stroke-width="3" stroke-linecap="round"/>
<line x1="109.148" y1="170.357" x2="195.679" y2="220.316" stroke="#454B50" stroke-width="3" stroke-linecap="round"/>
<line x1="89.2736" y1="204.779" x2="113.722" y2="218.894" stroke="#454B50" stroke-width="3" stroke-linecap="round"/>
<path d="M142.417 236.784C145.098 234.507 153.663 235.901 156.368 237.462L159.346 240.821C159.587 239.457 163.237 236.92 167.622 240.682L168.047 244.205L168.294 248.036C171.045 246.346 177.603 243.411 181.821 245.191" stroke="#454B50" stroke-width="3" stroke-linecap="round" stroke-linejoin="round"/>
</svg>
