<svg width="237" height="239" viewBox="0 0 237 239" fill="none" xmlns="http://www.w3.org/2000/svg">
<g clip-path="url(#clip0)">
<path d="M111.72 126.512V122.407C111.72 119.91 109.696 117.886 107.2 117.886H66.5201C64.0236 117.886 62 119.91 62 122.407V149.01H175V134.046C175 131.549 172.976 129.526 170.48 129.526H114.733C113.069 129.526 111.72 128.177 111.72 126.512Z" fill="#F6C358"/>
<path d="M168.973 213.114H68.0268C64.6982 213.114 62 210.415 62 207.087V147.934H111.889C113.16 147.934 114.372 147.399 115.229 146.459L120.782 140.369C121.638 139.429 122.851 138.894 124.122 138.894H175V207.087C175 210.415 172.302 213.114 168.973 213.114Z" fill="#FCD462"/>
<path d="M91.3613 150.779L44.6432 67.3919C43.6612 66.078 42.6241 62.6578 46.332 59.4879L66.9596 47.5986L64.1208 55.2413C64.0523 56.4825 64.3653 58.6119 66.1658 57.1997C66.6752 56.8002 68.9354 54.6654 69.5231 53.6941C70.0339 53.0632 71.9888 51.2949 75.7214 49.2688L86.0259 42.8952L83.5142 41.5269C81.6851 40.9699 79.0452 40.2424 78.2124 38.7727C77.2812 37.6008 75.1848 35.8909 74.9076 35.8204C74.3196 35.6709 70.9177 34.842 69.8081 39.3229L70.7366 43.6547C70.5684 44.5205 69.0163 46.8865 68.5785 48.5246C68.4093 50.0369 68.662 50.8839 70.3079 52.9082C70.6165 53.9505 70.595 56.961 66.6287 58.7632C64.8465 60.1368 61.4187 63.911 61.9652 68.0188L103.354 43.8081C102.476 42.8735 99.805 41.1121 96.3884 41.8726C94.458 43.011 89.8817 45.2436 86.781 44.7384L94.4153 40.5682C94.1677 40.1444 92.22 39.4595 90.3567 39.6427C88.8006 39.7956 84.7302 39.862 82.0821 39.1182L104.547 26.1878C105.585 25.6886 108.249 25.4212 110.601 28.3457L157.752 109.86C158.499 111.322 161.91 116.297 159.336 118.984L99.4361 153.751C98.0228 154.545 94.4292 155.061 91.3613 150.779Z" stroke="#4F4F4F" stroke-width="2"/>
<rect x="50.4861" y="70.0445" width="69.2299" height="92.1955" transform="rotate(-29.7935 50.4861 70.0445)" fill="white" fill-opacity="0.7" stroke="#4F4F4F" stroke-width="2"/>
<line x1="63.0318" y1="79.6542" x2="112.094" y2="51.3282" stroke="#4F4F4F" stroke-width="2" stroke-linecap="round"/>
<line x1="67.4813" y1="87.3609" x2="116.543" y2="59.0349" stroke="#4F4F4F" stroke-width="2" stroke-linecap="round"/>
<line x1="71.9307" y1="95.0677" x2="120.993" y2="66.7416" stroke="#4F4F4F" stroke-width="2" stroke-linecap="round"/>
<line x1="76.3804" y1="102.774" x2="125.442" y2="74.4483" stroke="#4F4F4F" stroke-width="2" stroke-linecap="round"/>
<line x1="80.8298" y1="110.481" x2="129.892" y2="82.1551" stroke="#4F4F4F" stroke-width="2" stroke-linecap="round"/>
<line x1="85.2792" y1="118.188" x2="134.341" y2="89.8618" stroke="#4F4F4F" stroke-width="2" stroke-linecap="round"/>
<line x1="1" y1="-1" x2="16.7979" y2="-1" transform="matrix(0.866025 -0.5 0.5 0.866026 96.2391 139.171)" stroke="#4F4F4F" stroke-width="2" stroke-linecap="round"/>
<path d="M127.49 120.894C127.13 118.923 130.259 115.092 131.8 114.202L134.307 113.69C133.702 113.182 133.49 110.658 136.596 109.565L138.456 110.36L140.417 111.329C140.367 109.49 140.787 105.417 142.867 103.843" stroke="#4F4F4F" stroke-width="2" stroke-linecap="round" stroke-linejoin="round"/>
</g>
<defs>
<clipPath id="clip0">
<rect width="237" height="239" fill="white"/>
</clipPath>
</defs>
</svg>
