<svg width="56" height="56" viewBox="0 0 56 56" fill="none" xmlns="http://www.w3.org/2000/svg">
<path d="M51.8604 23.2432L52.1443 25.371C52.8067 30.3589 51.8391 35.4272 49.3857 39.8202C46.9323 44.2132 43.1246 47.6955 38.5305 49.7476C33.9363 51.7997 28.8019 52.3118 23.8929 51.2075C18.9839 50.1031 14.5634 47.4415 11.2907 43.6197C8.01803 39.7978 6.06843 35.0203 5.73271 29.9999C5.397 24.9795 6.69315 19.985 9.42786 15.7614C12.1626 11.5378 16.1893 8.31132 20.9075 6.56322C25.6258 4.81511 30.7827 4.63902 35.6091 6.0612" stroke="#E62617" stroke-width="3" stroke-linecap="round" stroke-linejoin="round"/>
<path d="M39.1999 19.6001L22.3999 36.4001" stroke="#E62617" stroke-width="3" stroke-linecap="round" stroke-linejoin="round"/>
<path d="M22.3999 19.6002L39.1999 36.4002" stroke="#E62617" stroke-width="3" stroke-linecap="round" stroke-linejoin="round"/>
</svg>
