<svg width="333" height="535" viewBox="0 0 333 535" fill="none" xmlns="http://www.w3.org/2000/svg">
<path d="M65.3056 208.1L151.034 63.9456C152.169 61.3006 156.457 56.7239 164.527 59.5773L200.692 80.4924L186.588 82.8839C184.641 83.8688 181.68 86.2127 185.406 87.7098C186.46 88.1333 191.687 89.695 193.678 89.736C195.085 89.9587 199.488 91.378 205.841 95.2726L224.568 105.34L224.443 100.322C223.685 97.0541 222.474 92.4041 223.977 89.8491C224.941 87.4058 225.7 82.7198 225.564 82.2367C225.275 81.212 223.55 75.3152 215.767 77.5603L209.999 82.7719C208.536 83.2759 203.579 82.9932 200.705 83.765C198.259 84.8348 197.193 85.9619 195.561 90.239C194.248 91.6225 189.654 94.2311 183.436 89.785C179.785 88.2818 171.042 86.3841 165.279 90.8187L238.383 132.473C239.033 130.318 239.367 124.714 235.213 120.19C231.79 118.255 224.382 113.259 222.429 108.104L235.464 116.047C235.891 115.299 235.223 111.738 233.31 109.067C231.712 106.837 228.04 100.709 226.847 96.0328L266.206 118.826C267.876 119.966 270.62 123.78 268.239 129.92L185.735 273.089C184.169 275.506 179.602 285.055 173.259 283.501L67.8729 222.979C65.4272 221.527 61.4897 216.519 65.3056 208.1Z" stroke="#454B50" stroke-width="3"/>
<rect x="152.037" y="74.8037" width="121.989" height="162.287" transform="rotate(30.2065 152.037 74.8037)" fill="white" fill-opacity="0.3" stroke="#454B50" stroke-width="3"/>
<line x1="148.185" y1="102.741" x2="234.717" y2="152.7" stroke="#454B50" stroke-width="3" stroke-linecap="round"/>
<line x1="140.378" y1="116.264" x2="226.909" y2="166.223" stroke="#454B50" stroke-width="3" stroke-linecap="round"/>
<line x1="132.57" y1="129.787" x2="219.102" y2="179.746" stroke="#454B50" stroke-width="3" stroke-linecap="round"/>
<line x1="124.763" y1="143.311" x2="211.294" y2="193.27" stroke="#454B50" stroke-width="3" stroke-linecap="round"/>
<line x1="116.955" y1="156.834" x2="203.487" y2="206.793" stroke="#454B50" stroke-width="3" stroke-linecap="round"/>
<line x1="109.148" y1="170.357" x2="195.679" y2="220.316" stroke="#454B50" stroke-width="3" stroke-linecap="round"/>
<line x1="89.2736" y1="204.779" x2="113.722" y2="218.894" stroke="#454B50" stroke-width="3" stroke-linecap="round"/>
<path d="M142.417 236.784C145.098 234.507 153.663 235.901 156.368 237.462L159.346 240.821C159.587 239.457 163.237 236.92 167.622 240.682L168.047 244.205L168.294 248.036C171.045 246.346 177.603 243.411 181.821 245.191" stroke="#454B50" stroke-width="3" stroke-linecap="round" stroke-linejoin="round"/>
<path fill-rule="evenodd" clip-rule="evenodd" d="M204.308 502.956C204.308 502.956 207.14 514.422 207.04 514.973C206.941 515.523 207.702 518.874 207.413 519.331C207.124 519.788 204.959 520.685 192.631 522.397C180.304 524.109 177.078 524.141 177.078 524.141C177.078 524.141 167.716 523.116 166.491 522.333C165.266 521.549 165.683 517.797 167.732 517.333C169.781 516.87 177.6 517.011 184.807 511.838C192.013 506.665 191.774 505.292 191.774 505.292L204.308 502.956Z" fill="#ADADB2"/>
<path fill-rule="evenodd" clip-rule="evenodd" d="M200.283 348.252C200.283 348.252 200.892 354.62 200.279 357.598C194.836 384.048 181.596 410.146 184.38 437.935C185.197 446.095 191.574 491.791 191.574 496.361C191.574 500.93 190.94 504.255 190.94 504.255C195.932 505.949 201.409 505.602 205.311 504.358C206.345 484.597 206.494 459.422 207.527 439.661C217.228 419.043 227.078 404.124 236.778 383.507C236.778 383.507 249.871 363.208 236.949 342.594C224.026 321.98 200.283 348.252 200.283 348.252Z" fill="#1C2940"/>
<path fill-rule="evenodd" clip-rule="evenodd" d="M259.44 495.694C259.44 495.694 268.751 502.978 269.013 503.473C269.274 503.967 271.943 506.137 271.998 506.675C272.054 507.212 270.903 509.251 262.255 518.187C253.607 527.123 251.087 529.133 251.087 529.133C251.087 529.133 243.083 534.089 241.635 534.226C240.187 534.363 238.197 531.153 239.524 529.526C240.851 527.9 247.094 523.198 249.572 514.69C252.051 506.182 251.015 505.248 251.015 505.248L259.44 495.694Z" fill="#ADADB2"/>
<path fill-rule="evenodd" clip-rule="evenodd" d="M236.307 343C236.307 343 244.858 352.822 243.06 365.714C240.566 383.594 230.309 402.43 225.591 420.764C222.2 433.941 221.898 432.931 228.653 443.481C236.572 455.848 250.536 477.127 251.397 478.65C260.716 495.133 260.891 497.204 260.891 497.204C258.56 500.179 255.268 503.221 249.661 505.107L209.3 453.191C209.3 453.191 198.952 441.042 199 427.568C199.084 403.951 200.043 374.616 199.955 347.808L236.307 343Z" fill="#131D2E"/>
<path fill-rule="evenodd" clip-rule="evenodd" d="M233.679 219.751C233.679 219.751 234.993 210.674 235.074 208.308C235.156 205.941 235.401 195.17 234.666 194.109C231.143 189.03 227.308 202.864 227.308 206.023C227.308 206.023 226.613 213.572 225.878 213.653C225.142 213.735 224.12 223.527 225.428 224.996C226.736 226.465 229.025 227.362 229.025 227.362L233.679 219.751Z" fill="#FFD8C0"/>
<path fill-rule="evenodd" clip-rule="evenodd" d="M233.215 256.674C233.215 256.674 241.287 253.025 242.758 252.699C244.229 252.373 229.058 227.257 228.209 226.99C228.311 225.888 233.679 219.751 233.679 219.751C233.679 219.751 262.376 251.067 259.433 257.105C256.491 263.144 235.891 274.405 235.891 274.405L225.592 259.227L233.215 256.674Z" fill="#FFD8C0"/>
<path fill-rule="evenodd" clip-rule="evenodd" d="M230.599 254.32C230.599 254.32 232.114 255.619 234.73 255.17C237.345 254.721 239.9 253.416 239.9 253.416C244.423 258.719 247.561 263.955 246.848 269.001L241.467 272.63C241.467 272.63 233.728 276.958 230.745 268.634C227.761 260.311 226.231 255.286 228.415 254.803C230.599 254.32 230.599 254.32 230.599 254.32Z" fill="#D6A42F"/>
<path d="M226.742 243.341C226.662 244.501 226.387 249.573 227.436 253.169C228.628 257.252 210.399 262.044 210.399 262.044L208.948 254.733C205.73 255.803 202.549 256.514 201.226 255.893C199.834 255.239 199.533 252.365 200.444 251.76C200.831 250.88 200.489 250.685 199.663 250.197C198.837 249.711 199.447 248.405 199.447 248.405C198.117 247.686 198.431 246.799 198.673 246.099C198.778 245.794 198.823 245.365 198.792 245.267C195.444 245.026 196.025 243.855 196.585 242.966C197.144 242.078 198.536 239.363 198.666 238.401C198.795 237.44 197.811 237.052 197.261 235.674C196.711 234.296 198.981 227.123 198.981 227.123C200.604 221.68 205.441 220.014 213.539 219.95C216.428 219.927 219.319 220.041 221.494 220.561C223.67 221.081 225.13 222.007 226.441 223.767C227.753 225.526 228.915 228.118 229.014 231.331C229.114 234.543 228.345 239.009 227.188 242.212C227.045 242.607 226.896 242.983 226.742 243.341Z" fill="#FFD8C0"/>
<path d="M209.439 257.207L208.949 254.733L217.5 250.608C217.5 250.608 215.925 252.892 209.439 257.207Z" fill="#D9B096"/>
<path d="M201.001 229.307C198.203 228.889 195.496 228.034 193.593 226.332C189.236 222.434 189.418 215.703 192.5 212.03C192.5 212.03 194.668 208.658 199.812 208.883C199.812 208.883 197.353 210.657 197.093 211.521C196.835 212.387 199.59 209.476 203.27 210.514C202.161 211.598 201.717 212.399 201.692 212.982C201.626 214.526 203.721 214.53 206.036 214.104C211.165 213.16 219.659 209.651 223.83 214.143C241.446 209.371 231.536 242.946 223.423 245.918C220.882 246.849 219.189 245.089 219.556 244.675C220.259 243.192 223.767 238.032 221.724 237.352C219.356 236.563 217.744 238.566 217.744 238.566C214.643 241.759 214.892 237.347 214.387 233.417C213.717 228.193 205.725 230.014 201.001 229.307Z" fill="#131D2E"/>
<path d="M217.374 239.552C217.729 238.355 218.323 237.515 218.545 237.064C219.289 235.851 221.526 233.707 223.943 234.671C226.36 235.636 225.061 239.129 223.804 240.784C223.177 241.61 222.995 242.572 222.598 243.593C222.033 245.046 220.658 245.458 219.382 245.391C217.411 245.287 217.137 244.51 217.089 241.544C217.077 240.798 217.195 240.133 217.374 239.552Z" fill="#FFD8C0"/>
<path fill-rule="evenodd" clip-rule="evenodd" d="M227.453 251.707C225.561 255.274 211.554 261.698 209.767 260.782C205.393 267.411 202.914 273.821 201.489 279.743C198.683 291.4 197.069 349.585 199.132 356.388C222.343 357.418 243.284 351.561 243.284 351.561C241.832 339.263 241.036 303.87 241.92 293.284C244.336 264.328 236.218 258.993 227.453 251.707Z" fill="#FDC53F"/>
<path fill-rule="evenodd" clip-rule="evenodd" d="M198.914 308.435C199.012 308.7 198.686 309.224 198.959 315.533C200.656 328.11 221.614 291.491 222.774 287.054C216.412 292.926 198.336 308.84 198.914 308.435Z" fill="#D6A42F"/>
<path fill-rule="evenodd" clip-rule="evenodd" d="M156.495 277.699C153.698 275.008 153.806 273.25 152.474 269.93C151.446 267.381 150.114 264.883 148.175 262.902C144.66 259.312 142.371 256.048 141.717 258.088C141.064 260.128 144.333 262.902 144.66 264.126C146.34 270.414 135.828 260.906 134.429 260.189C129.864 257.849 124.745 257.504 125.01 267.82C125.089 270.9 128.834 273.736 134.474 276.464C135.517 276.968 136.73 277.475 138.002 278.004L138.056 278.027C144.859 280.86 143.112 280.739 151.583 286.22L151.586 286.222L151.596 286.228L151.61 286.237L151.623 286.246L151.636 286.254L151.65 286.263L151.651 286.264C158.331 290.962 175.668 309.385 181.99 313.24C184.824 314.969 187.273 316.002 189.94 314.719C195.621 311.986 198.091 309.021 198.439 308.86L208.31 300.038L208.303 300.034C198.274 293.625 197.642 284.271 197.642 284.271L197.641 284.27C193.272 289.709 186.834 297.583 186.834 297.583C186.834 297.583 182.093 292.523 177.515 290.81C172.947 289.1 156.565 277.747 156.495 277.699Z" fill="#FFD8C0"/>
<path fill-rule="evenodd" clip-rule="evenodd" d="M209.559 265.758C209.377 269.408 200.514 280.104 197.478 283.883V283.883C197.478 294.517 209.086 300.467 209.086 300.467C214.311 295.798 217.866 291.498 222.782 287.111C227.698 282.723 231.277 270.169 224.083 263.423C216.89 256.678 209.559 265.758 209.559 265.758Z" fill="#FDC53F"/>
</svg>
