<svg width="16" height="16" viewBox="0 0 16 16" fill="none" xmlns="http://www.w3.org/2000/svg">
<path fill-rule="evenodd" clip-rule="evenodd" d="M11.8674 4.86993C12.1603 4.57704 12.1603 4.10216 11.8674 3.80927C11.5745 3.51638 11.0997 3.51638 10.8068 3.80927L7.93711 6.67894L5.06744 3.80927C4.77455 3.51638 4.29967 3.51638 4.00678 3.80927C3.71389 4.10216 3.71389 4.57704 4.00678 4.86993L6.87645 7.7396L4.00678 10.6093C3.71389 10.9022 3.71389 11.377 4.00678 11.6699C4.29967 11.9628 4.77455 11.9628 5.06744 11.6699L7.93711 8.80026L10.8068 11.6699C11.0997 11.9628 11.5745 11.9628 11.8674 11.6699C12.1603 11.377 12.1603 10.9022 11.8674 10.6093L8.99777 7.7396L11.8674 4.86993Z" fill="#636569"/>
</svg>
