<?xml version="1.0" encoding="utf-8"?>
<!-- Generator: Adobe Illustrator 16.0.0, SVG Export Plug-In . SVG Version: 6.00 Build 0)  -->
<!DOCTYPE svg PUBLIC "-//W3C//DTD SVG 1.1//EN" "http://www.w3.org/Graphics/SVG/1.1/DTD/svg11.dtd">
<svg version="1.1" id="Layer_1" xmlns="http://www.w3.org/2000/svg" xmlns:xlink="http://www.w3.org/1999/xlink" x="0px" y="0px"
	 width="300px" height="300px" viewBox="0 0 300 300" enable-background="new 0 0 300 300" xml:space="preserve">
<g>
	<path fill="#3B8CC4" d="M150.005,298.75c-82.028,0-148.764-66.729-148.764-148.746C1.241,67.979,67.977,1.25,150.005,1.25
		c82.024,0,148.754,66.729,148.754,148.754C298.759,232.021,232.029,298.75,150.005,298.75z M150.005,12.145
		c-76.02,0-137.869,61.842-137.869,137.859c0,76.01,61.849,137.852,137.869,137.852c76.017,0,137.859-61.842,137.859-137.852
		C287.864,73.987,226.021,12.145,150.005,12.145z"/>
</g>
<g>
	<path fill="#3B8CC4" d="M235.466,130.19c-2.377,2.548-4.698,5.153-7.146,7.623c-12.406,12.463-24.877,24.841-37.256,37.34
		c-2.385,2.406-4.904,4.038-8.282,2.647c-3.278-1.335-3.797-4.209-3.74-7.445c0.128-5.558,0.042-11.122,0.042-17.212h-4.953
		c-20.576,0-41.152,0-61.721-0.014c-7.09,0-8.786-1.675-8.808-8.673v-6.36c-9.433,9.468-18.667,18.723-27.595,27.68
		c8.822,8.786,18.176,18.085,27.595,27.468c0-2.052-0.028-4.685,0.015-7.325c0.092-5.224,2.172-7.353,7.353-7.367
		c16.013-0.042,32.024-0.035,48.036,0c4.656,0.015,7.268,2.37,7.218,6.296c-0.063,3.769-2.591,6.047-7.097,6.061
		c-13.152,0.064-26.297,0.021-39.455,0.036c-1.029,0-2.059,0.099-3.691,0.17c0,5.621-0.057,11.172,0.021,16.715
		c0.05,3.3-0.283,6.239-3.875,7.7c-3.578,1.448-5.877-0.461-8.197-2.796c-13.592-13.648-27.248-27.262-40.84-40.91
		c-1.27-1.264-2.335-2.726-3.492-4.102v-3.904c1.832-1.994,3.584-4.06,5.494-5.969c12.967-13.01,25.99-25.963,38.916-39.008
		c2.412-2.442,5.003-3.968,8.317-2.605c3.243,1.341,3.755,4.273,3.684,7.495c-0.113,5.465-0.028,10.931-0.028,16.899
		c1.676,0.078,3.173,0.22,4.663,0.22c20.583,0.021,41.151,0.015,61.734,0.021c7.502,0,9.056,1.597,9.07,9.248v5.252
		c9.17-9.184,18.476-18.51,27.503-27.538c-8.609-8.616-17.928-17.957-27.51-27.538c0,2.782,0.092,5.579-0.021,8.375
		c-0.163,4.45-2.406,6.742-6.828,6.771c-16.281,0.057-32.562,0.049-48.845,0.007c-4.364-0.015-6.927-2.449-6.905-6.225
		c0.014-3.776,2.526-6.111,7.033-6.132c12.633-0.064,25.26-0.021,37.9-0.021h5.316c0-6.317,0.043-12.378-0.021-18.432
		c-0.043-3.102,1.15-5.721,4.209-6.104c2.137-0.277,5.16,0.326,6.607,1.731c14.629,14.294,29.029,28.823,43.465,43.309
		c0.803,0.795,1.406,1.803,2.115,2.711V130.19z"/>
</g>
</svg>
