<?xml version="1.0" encoding="utf-8"?>
<!-- Generator: Adobe Illustrator 16.0.0, SVG Export Plug-In . SVG Version: 6.00 Build 0)  -->
<!DOCTYPE svg PUBLIC "-//W3C//DTD SVG 1.1//EN" "http://www.w3.org/Graphics/SVG/1.1/DTD/svg11.dtd">
<svg version="1.1" id="Layer_1" xmlns="http://www.w3.org/2000/svg" xmlns:xlink="http://www.w3.org/1999/xlink" x="0px" y="0px"
	 width="300px" height="300px" viewBox="0 0 300 300" enable-background="new 0 0 300 300" xml:space="preserve">
<g>
	<path fill="#3B8CC4" d="M150.005,298.75c-82.028,0-148.764-66.729-148.764-148.746C1.241,67.979,67.977,1.25,150.005,1.25
		c82.024,0,148.754,66.729,148.754,148.754C298.759,232.021,232.029,298.75,150.005,298.75z M150.005,12.145
		c-76.02,0-137.869,61.842-137.869,137.859c0,76.01,61.849,137.852,137.869,137.852c76.017,0,137.859-61.842,137.859-137.852
		C287.864,73.987,226.021,12.145,150.005,12.145z"/>
</g>
<g>
	<path fill="#3B8CC4" d="M210.743,109.633c-0.268,0.649-0.6,2.039-1.34,3.168c-1.947,2.942-4.093,5.765-6.09,8.686
		c-0.282,0.402-0.416,1.171-0.24,1.616c1.08,2.801,2.23,5.567,3.443,8.305c0.205,0.452,0.791,0.953,1.271,1.038
		c3.231,0.614,6.484,1.129,9.724,1.658c4.396,0.734,6.526,3.246,6.533,7.685c0,5.511,0,11.028-0.007,16.539
		c0,4.212-2.152,6.795-6.302,7.515c-3.315,0.585-6.652,1.087-9.963,1.707c-0.479,0.092-1.058,0.593-1.262,1.044
		c-1.193,2.71-2.259,5.462-3.443,8.172c-0.318,0.719-0.219,1.199,0.219,1.792c2.045,2.822,4.078,5.665,6.082,8.537
		c1.975,2.823,1.904,6.125-0.467,8.595c-4.289,4.473-8.686,8.876-13.166,13.173c-2.398,2.308-5.877,2.406-8.637,0.501
		c-2.879-1.989-5.715-4.035-8.545-6.082c-0.6-0.424-1.072-0.536-1.791-0.212c-2.668,1.172-5.355,2.286-8.072,3.358
		c-0.756,0.29-1.087,0.671-1.214,1.469c-0.494,3.203-1.059,6.413-1.581,9.609c-0.733,4.389-3.245,6.534-7.684,6.534
		c-5.511,0-11.021,0.015-16.531,0c-4.263,0-6.838-2.194-7.543-6.421c-0.559-3.281-1.066-6.576-1.68-9.836
		c-0.092-0.48-0.593-1.059-1.051-1.271c-2.738-1.214-5.504-2.356-8.306-3.443c-0.452-0.176-1.214-0.042-1.622,0.24
		c-2.852,1.962-5.639,4.008-8.461,5.983c-2.921,2.061-6.237,2.004-8.806-0.466c-4.46-4.262-8.827-8.636-13.089-13.081
		c-2.406-2.52-2.455-5.821-0.438-8.707c1.99-2.872,4.071-5.688,6.04-8.566c0.274-0.409,0.353-1.179,0.169-1.637
		c-1.044-2.724-2.236-5.377-3.302-8.101c-0.311-0.79-0.728-1.136-1.56-1.271c-3.211-0.486-6.406-1.044-9.617-1.58
		c-4.305-0.72-6.449-3.246-6.456-7.613c-0.007-5.511-0.007-11.028,0-16.532c0.007-4.347,2.181-6.887,6.484-7.606
		c3.245-0.55,6.484-1.114,9.737-1.623c0.748-0.113,1.094-0.458,1.369-1.157c1.1-2.738,2.293-5.447,3.358-8.199
		c0.177-0.466,0.085-1.228-0.198-1.63c-1.996-2.929-4.092-5.765-6.117-8.672c-1.926-2.745-1.863-6.062,0.459-8.488
		c4.297-4.488,8.686-8.884,13.159-13.188c2.462-2.371,5.899-2.449,8.742-0.494c2.844,1.961,5.651,3.965,8.438,6.012
		c0.699,0.501,1.235,0.501,1.998,0.169c2.639-1.164,5.299-2.244,7.973-3.295c0.691-0.282,1.03-0.635,1.15-1.39
		c0.5-3.246,1.064-6.485,1.602-9.73c0.713-4.325,3.238-6.484,7.6-6.484c5.553,0,11.105-0.014,16.658,0
		c4.185,0,6.768,2.188,7.486,6.336c0.551,3.246,1.107,6.484,1.602,9.737c0.127,0.833,0.473,1.249,1.277,1.56
		c2.71,1.065,5.377,2.251,8.094,3.302c0.459,0.191,1.221,0.106,1.623-0.176c2.893-1.962,5.708-4.043,8.572-6.04
		c2.857-2.004,6.195-1.947,8.707,0.458c4.48,4.297,8.82,8.743,13.188,13.16C210.165,105.54,210.666,107.142,210.743,109.633
		 M191.248,206.031c0.649-0.466,1.298-0.812,1.8-1.312c3.887-3.853,7.747-7.719,11.606-11.586c1.454-1.446,1.496-2.173,0.29-3.859
		c-2.259-3.183-4.517-6.371-6.824-9.533c-0.854-1.171-0.84-2.243-0.261-3.556c1.573-3.556,3.069-7.155,4.474-10.796
		c0.529-1.369,1.291-2.159,2.787-2.385c3.895-0.606,7.783-1.284,11.67-1.961c1.82-0.318,2.336-0.932,2.336-2.717
		c0.008-5.553,0.008-11.099,0-16.659c0-1.792-0.516-2.399-2.328-2.71c-3.889-0.663-7.775-1.354-11.678-1.947
		c-1.496-0.226-2.258-1.009-2.78-2.399c-1.39-3.584-2.851-7.155-4.431-10.675c-0.629-1.404-0.635-2.52,0.281-3.775
		c2.266-3.076,4.467-6.209,6.689-9.313c1.285-1.807,1.234-2.512-0.311-4.058c-3.781-3.789-7.563-7.571-11.353-11.339
		c-1.546-1.559-2.259-1.608-4.05-0.332c-3.105,2.223-6.238,4.431-9.314,6.696c-1.249,0.917-2.371,0.917-3.781,0.282
		c-3.508-1.574-7.078-3.034-10.676-4.431c-1.383-0.522-2.166-1.284-2.393-2.78c-0.607-3.937-1.291-7.86-1.982-11.797
		c-0.304-1.708-0.938-2.215-2.674-2.23c-5.554,0-11.106,0-16.66,0c-1.82,0.015-2.427,0.508-2.73,2.314
		c-0.67,3.895-1.348,7.776-1.939,11.685c-0.227,1.482-1.002,2.258-2.379,2.794c-3.591,1.397-7.168,2.851-10.682,4.431
		c-1.461,0.649-2.598,0.621-3.881-0.325c-3.105-2.3-6.266-4.516-9.42-6.759c-1.645-1.157-2.35-1.101-3.754,0.311
		c-3.846,3.838-7.684,7.677-11.529,11.515c-1.496,1.503-1.539,2.202-0.289,3.944c2.271,3.183,4.522,6.372,6.83,9.54
		c0.818,1.122,0.818,2.173,0.261,3.45c-1.581,3.599-3.091,7.239-4.53,10.908c-0.515,1.327-1.256,2.103-2.695,2.329
		c-3.944,0.606-7.867,1.284-11.797,1.976c-1.785,0.303-2.287,0.931-2.287,2.759c-0.007,5.553-0.007,11.105,0,16.659
		c0.008,1.729,0.529,2.343,2.258,2.639c3.889,0.678,7.776,1.369,11.671,1.947c1.546,0.24,2.329,1.023,2.879,2.456
		c1.384,3.598,2.864,7.154,4.431,10.676c0.601,1.348,0.65,2.448-0.239,3.662c-2.294,3.118-4.516,6.279-6.76,9.426
		c-1.276,1.793-1.221,2.484,0.353,4.051c3.754,3.754,7.508,7.508,11.262,11.261c1.602,1.616,2.301,1.673,4.142,0.339
		c3.147-2.244,6.302-4.474,9.427-6.745c1.122-0.818,2.174-0.833,3.451-0.282c3.647,1.595,7.323,3.118,11.027,4.572
		c1.277,0.501,2.012,1.27,2.23,2.639c0.621,3.938,1.291,7.875,1.969,11.798c0.311,1.806,0.938,2.307,2.744,2.307
		c5.511,0.007,11.021,0.007,16.539,0c1.885,0,2.477-0.501,2.809-2.363c0.656-3.853,1.34-7.691,1.919-11.551
		c0.24-1.616,1.094-2.364,2.555-2.929c3.534-1.326,7.027-2.779,10.464-4.332c1.432-0.663,2.582-0.705,3.881,0.254
		c3.069,2.266,6.202,4.474,9.328,6.676C189.788,205.297,190.465,205.594,191.248,206.031"/>
</g>
<g>
	<path fill="#3B8CC4" d="M147.188,225.848l-5.518-0.008c-5.15,0-8.467-2.814-9.32-7.93l-0.516-3.123
		c-0.367-2.23-0.734-4.463-1.157-6.676c-2.716-1.156-5.454-2.289-8.234-3.365c-1.573,1.168-3.188,2.322-4.798,3.473l-3.592,2.547
		c-3.641,2.561-8.029,2.303-11.092-0.643c-4.354-4.156-8.771-8.576-13.145-13.135c-2.957-3.094-3.189-7.307-0.614-10.99
		c0.91-1.309,1.835-2.609,2.766-3.908c1.101-1.541,2.202-3.084,3.267-4.643c-0.578-1.4-1.164-2.812-1.756-4.227
		c-0.537-1.27-1.066-2.545-1.566-3.832c-2.59-0.516-5.018-0.924-7.451-1.334l-2.344-0.395c-5.199-0.871-7.959-4.117-7.966-9.391
		v-16.54c0.007-5.19,2.844-8.524,7.995-9.384l2.004-0.342c2.582-0.441,5.164-0.878,7.747-1.284c0.438-1.196,0.917-2.339,1.397-3.486
		c0.656-1.573,1.312-3.146,1.926-4.738c-1.143-1.633-2.321-3.281-3.5-4.925c-0.875-1.228-1.75-2.452-2.61-3.69
		c-2.483-3.538-2.237-7.769,0.635-10.771c4.269-4.456,8.714-8.912,13.216-13.241c2.963-2.854,7.458-3.129,11.015-0.681
		c2.857,1.973,5.68,3.987,8.488,6.044c2.857-1.2,5.538-2.29,8.233-3.352c0.375-2.223,0.748-4.459,1.13-6.696l0.501-3.034
		c0.867-5.232,4.106-7.998,9.385-7.998l11.105-0.007l5.561,0.007c5.016,0,8.396,2.854,9.257,7.832l0.19,1.094
		c0.487,2.893,0.98,5.782,1.418,8.683c1.439,0.656,2.717,1.189,3.994,1.722c1.411,0.589,2.822,1.175,4.24,1.729
		c1.666-1.146,3.345-2.343,5.024-3.542c1.157-0.829,2.321-1.658,3.493-2.473c3.549-2.494,7.973-2.254,10.985,0.635
		c3.761,3.609,7.423,7.317,11.085,11.028l2.139,2.166c1.545,1.545,2.243,3.503,2.342,6.548l0.014,0.388l-0.346,0.917
		c-0.254,0.751-0.635,1.891-1.305,2.91c-1.115,1.683-2.286,3.324-3.465,4.964c-0.889,1.246-1.777,2.487-2.646,3.75
		c1.022,2.72,2.166,5.458,3.365,8.171c2.724,0.519,5.511,0.97,8.291,1.425l1.341,0.219c5.264,0.878,8.043,4.149,8.051,9.462
		l-0.008,16.547c0,5.117-2.772,8.416-7.797,9.289l-4.148,0.701c-1.934,0.32-3.867,0.643-5.793,1.002
		c-0.551,1.373-1.121,2.76-1.693,4.145c-0.551,1.346-1.107,2.689-1.686,4.02c2.074,2.84,4.113,5.689,6.124,8.572
		c2.512,3.584,2.258,7.857-0.642,10.881c-4.348,4.529-8.799,8.982-13.224,13.227c-2.879,2.773-7.472,3.068-10.908,0.68
		c-2.894-1.996-5.743-4.049-8.58-6.102c-2.695,1.156-5.405,2.281-8.143,3.361c-0.409,2.102-0.748,4.145-1.094,6.184l-0.579,3.508
		c-0.881,5.268-4.155,8.047-9.469,8.047L147.188,225.848z M122.611,201.176c0.417,0,0.798,0.07,1.144,0.205
		c2.822,1.098,5.616,2.25,8.382,3.475c1.023,0.473,1.898,1.557,2.09,2.582c0.423,2.244,0.797,4.502,1.171,6.76l0.515,3.111
		c0.564,3.359,2.393,4.918,5.766,4.918l5.51,0.008l11.021-0.008c3.549,0,5.313-1.502,5.906-5.023l0.578-3.518
		c0.346-2.021,0.685-4.047,0.995-6.07c0.226-1.439,0.974-2.354,2.35-2.879c2.681-1.059,5.349-2.164,7.994-3.328
		c1.468-0.658,2.886-0.084,3.563,0.393c2.836,2.049,5.658,4.088,8.531,6.072c2.06,1.42,4.649,1.309,6.357-0.318
		c4.389-4.209,8.799-8.627,13.109-13.121c1.707-1.777,1.813-4.135,0.289-6.307c-1.996-2.865-4.021-5.701-6.061-8.514
		c-0.84-1.133-0.975-2.307-0.41-3.584c0.572-1.303,1.115-2.621,1.658-3.941c0.586-1.414,1.164-2.826,1.785-4.227
		c0.459-1.023,1.539-1.895,2.576-2.092c1.954-0.367,3.916-0.691,5.877-1.016l4.107-0.695c3.287-0.572,4.812-2.393,4.812-5.736
		l0.007-16.54c-0.007-3.55-1.51-5.317-5.023-5.902l-1.34-0.219c-2.809-0.455-5.625-0.914-8.426-1.447
		c-1.023-0.18-2.117-1.051-2.575-2.067c-1.235-2.776-2.392-5.571-3.485-8.4c-0.438-1.111-0.113-2.509,0.444-3.302
		c0.868-1.267,1.771-2.533,2.681-3.796c1.15-1.605,2.301-3.207,3.387-4.851c0.402-0.621,0.678-1.426,0.89-2.071
		c0.05-0.138,0.092-0.268,0.134-0.388c-0.113-2.167-0.592-3.084-1.277-3.768l-2.151-2.177c-3.634-3.687-7.274-7.374-11.007-10.955
		c-1.807-1.735-4.227-1.816-6.422-0.286c-1.164,0.812-2.314,1.63-3.464,2.452c-1.7,1.218-3.401,2.431-5.13,3.606
		c-0.861,0.593-2.336,0.758-3.33,0.349c-1.412-0.547-2.852-1.146-4.291-1.746c-1.256-0.522-2.512-1.048-3.774-1.545
		c-1.403-0.543-2.173-1.485-2.399-2.967c-0.438-2.878-0.924-5.747-1.41-8.619l-0.184-1.086c-0.572-3.295-2.385-4.833-5.709-4.833
		l-5.553-0.007l-11.105,0.007c-3.458,0-5.25,1.535-5.814,4.971l-0.516,3.048c-0.367,2.223-0.74,4.442-1.086,6.665
		c-0.212,1.348-0.953,2.254-2.251,2.787c-2.675,1.051-5.313,2.12-7.931,3.274c-1.439,0.642-2.583,0.501-3.775-0.353
		c-2.787-2.047-5.581-4.04-8.41-5.994c-2.166-1.479-4.714-1.373-6.464,0.311c-4.466,4.297-8.876,8.714-13.11,13.134
		c-1.672,1.75-1.785,4.071-0.281,6.203c0.854,1.231,1.721,2.444,2.589,3.658c1.192,1.669,2.378,3.334,3.542,5.034
		c0.607,0.868,0.776,2.262,0.389,3.285c-0.629,1.633-1.299,3.235-1.969,4.84c-0.473,1.129-0.945,2.258-1.397,3.394
		c-0.522,1.319-1.433,2.067-2.78,2.269c-2.561,0.402-5.122,0.839-7.69,1.277l-2.011,0.342c-3.443,0.575-4.975,2.371-4.982,5.829
		v16.525c0.008,3.465,1.531,5.264,4.947,5.836l2.35,0.395c2.412,0.408,4.826,0.814,7.238,1.182c1.489,0.236,2.428,0.998,2.971,2.396
		c0.494,1.262,1.017,2.512,1.539,3.756c0.606,1.447,1.206,2.891,1.771,4.357c0.396,0.992,0.255,2.385-0.36,3.291
		c-1.086,1.592-2.201,3.15-3.315,4.715c-0.917,1.283-1.835,2.57-2.737,3.873c-1.581,2.262-1.482,4.604,0.26,6.428
		c4.333,4.52,8.715,8.9,13.033,13.025c1.877,1.793,4.254,1.891,6.513,0.297l3.577-2.537c1.623-1.16,3.253-2.324,4.904-3.461
		C121.031,201.416,121.836,201.176,122.611,201.176z M149.975,220.943l-8.27-0.008c-2.709,0-4.064-1.139-4.522-3.807
		c-0.678-3.93-1.354-7.877-1.976-11.822c-0.092-0.592-0.275-0.914-1.102-1.238c-3.732-1.463-7.43-2.994-11.099-4.6
		c-0.6-0.254-0.762-0.559-1.658,0.088c-2.399,1.74-4.805,3.457-7.218,5.172l-2.223,1.584c-0.91,0.66-1.926,1.277-3.091,1.277
		c-1.46,0-2.512-0.938-3.387-1.816L94.176,194.52c-2.193-2.188-2.342-3.857-0.543-6.375l1.588-2.238
		c1.715-2.412,3.43-4.826,5.186-7.211c0.381-0.521,0.473-0.896,0.043-1.859c-1.58-3.549-3.069-7.133-4.467-10.76
		c-0.381-0.984-0.713-1.203-1.467-1.32c-3.473-0.514-6.951-1.121-10.422-1.729l-1.285-0.225c-2.582-0.441-3.739-1.803-3.753-4.41
		v-16.67c0-2.727,1.136-4.085,3.789-4.537c3.931-0.692,7.867-1.369,11.825-1.979c0.614-0.096,0.932-0.286,1.285-1.196
		c1.453-3.697,2.97-7.363,4.564-10.982c0.367-0.843,0.282-1.182-0.07-1.658c-1.693-2.325-3.352-4.657-5.018-6.992l-1.82-2.562
		c-1.756-2.452-1.629-4.152,0.48-6.27l11.529-11.519c0.854-0.857,1.828-1.651,3.182-1.651c1.115,0,2.047,0.547,2.887,1.14
		l1.996,1.418c2.506,1.775,4.996,3.546,7.459,5.37c1.199,0.868,1.326,0.462,2.074,0.123c3.111-1.4,6.533-2.818,10.76-4.463
		c0.953-0.37,1.144-0.712,1.25-1.383c0.535-3.546,1.143-7.066,1.749-10.598l0.198-1.122c0.443-2.649,1.785-3.793,4.494-3.814h16.674
		c2.631,0.021,4,1.167,4.451,3.718c0.691,3.955,1.383,7.889,1.99,11.84c0.105,0.702,0.311,1.013,1.242,1.366
		c3.648,1.415,7.246,2.886,10.781,4.473c0.727,0.332,0.875,0.73,1.969-0.092c2.279-1.676,4.594-3.326,6.9-4.971l2.435-1.735
		c0.903-0.646,1.897-1.242,3.048-1.242c1.391,0,2.428,0.851,3.338,1.771c3.781,3.757,7.564,7.543,11.346,11.332
		c2.174,2.177,2.308,3.845,0.508,6.382l-1.898,2.653c-1.587,2.237-3.182,4.473-4.812,6.686c-0.438,0.603-0.522,0.991-0.085,1.965
		c1.447,3.231,2.914,6.752,4.467,10.76c0.359,0.956,0.67,1.161,1.361,1.267c3.07,0.466,6.125,0.991,9.174,1.517l2.539,0.434
		c2.689,0.462,3.832,1.803,3.832,4.491v16.664c0,2.678-1.143,4.025-3.832,4.49c-3.901,0.682-7.797,1.357-11.705,1.969
		c-0.67,0.102-1.01,0.297-1.376,1.252c-1.419,3.666-2.921,7.293-4.509,10.873c-0.396,0.896-0.304,1.252,0.07,1.762
		c2.152,2.955,4.27,5.934,6.379,8.908l0.459,0.645c1.714,2.393,1.572,4.127-0.487,6.186c-3.874,3.877-7.727,7.74-11.614,11.588
		c-0.466,0.463-0.967,0.795-1.453,1.115l-1.496,1.051l-1.736-0.951c-0.535-0.279-1.023-0.541-1.467-0.848
		c-3.141-2.215-6.28-4.432-9.363-6.703c-1.15-0.861-1.285-0.424-2.047-0.066c-3.577,1.611-7.133,3.084-10.591,4.381
		c-1.065,0.414-1.291,0.742-1.404,1.504c-0.451,3.029-0.974,6.047-1.489,9.062l-0.438,2.527c-0.486,2.752-1.812,3.865-4.586,3.865
		L149.975,220.943z M140.965,217.281c0.057,0,0.275,0.043,0.74,0.043l8.27,0.006l8.27-0.006c0.578,0,0.791-0.061,0.848-0.082
		c-0.021-0.01,0.077-0.211,0.183-0.793l0.431-2.516c0.516-2.996,1.03-5.984,1.481-8.986c0.409-2.744,2.188-3.764,3.69-4.346
		c3.4-1.277,6.887-2.717,10.372-4.295c2.152-0.99,3.938-0.846,5.694,0.449c3.055,2.258,6.182,4.459,9.293,6.65
		c0.275,0.189,0.571,0.35,0.896,0.518c0.26-0.172,0.479-0.328,0.635-0.486c3.888-3.85,7.732-7.709,11.586-11.564
		c0.494-0.49,0.613-0.705,0.642-0.762l0,0c-0.028,0-0.127-0.236-0.522-0.791l-0.465-0.648c-2.096-2.965-4.205-5.928-6.351-8.869
		c-1.179-1.621-1.327-3.369-0.452-5.354c1.56-3.531,3.049-7.102,4.438-10.713c0.509-1.316,1.496-3.115,4.206-3.521
		c3.873-0.604,7.746-1.281,11.627-1.955c0.544-0.096,0.742-0.189,0.798-0.223c-0.007-0.018,0.042-0.219,0.042-0.715v-16.656
		c0-0.511-0.057-0.709-0.07-0.766c0,0.003-0.007,0.003-0.007,0.003c-0.042,0-0.247-0.084-0.748-0.169l-2.547-0.438
		c-3.027-0.522-6.062-1.044-9.095-1.507c-2.725-0.409-3.705-2.223-4.206-3.549c-1.368-3.539-2.815-7.077-4.389-10.57
		c-0.586-1.315-1.171-3.323,0.473-5.581c1.623-2.198,3.204-4.424,4.784-6.643l1.898-2.657c0.473-0.67,0.557-0.921,0.57-0.98
		c0,0.018-0.041-0.099-0.691-0.748c-3.781-3.789-7.563-7.567-11.353-11.335c-0.564-0.572-0.79-0.691-0.847-0.716
		c0.028,0.021-0.211,0.103-0.875,0.575l-2.434,1.739c-2.301,1.634-4.594,3.271-6.859,4.939c-1.735,1.27-3.479,1.429-5.596,0.476
		c-3.479-1.559-7.02-3.009-10.59-4.396c-1.306-0.494-3.112-1.471-3.521-4.194c-0.607-3.916-1.284-7.829-1.976-11.752
		c-0.085-0.466-0.169-0.642-0.198-0.688c-0.006,0-0.197-0.046-0.712-0.049h-16.646c-0.529,0.003-0.733,0.06-0.789,0.081
		c0.014,0.014-0.071,0.208-0.163,0.727l-0.19,1.129c-0.607,3.507-1.207,7.007-1.742,10.528c-0.311,2.032-1.454,3.404-3.508,4.206
		c-3.562,1.386-7.111,2.829-10.598,4.396c-2.159,0.967-3.924,0.79-5.694-0.519c-2.441-1.81-4.918-3.567-7.401-5.327l-1.99-1.415
		c-0.515-0.359-0.74-0.451-0.811-0.473c0.014,0.028-0.191,0.155-0.621,0.586l-11.529,11.519c-0.502,0.505-0.629,0.72-0.656,0.783
		l0.006-0.003c0.029,0,0.128,0.247,0.551,0.836l1.835,2.568c1.651,2.325,3.302,4.646,4.988,6.96
		c1.157,1.581,1.306,3.295,0.459,5.236c-1.573,3.581-3.077,7.197-4.509,10.845c-0.776,2.011-2.117,3.144-4.093,3.454
		c-3.937,0.603-7.847,1.28-11.769,1.968c-0.516,0.088-0.699,0.176-0.748,0.205c0.014,0.011-0.043,0.215-0.043,0.776v16.655
		c0,0.455,0.049,0.646,0.07,0.707c0.008,0.01,0.142,0.062,0.685,0.154l1.292,0.227c3.443,0.604,6.887,1.203,10.344,1.717
		c2.779,0.432,3.781,2.258,4.297,3.592c1.369,3.57,2.844,7.1,4.396,10.592c0.578,1.301,1.164,3.285-0.432,5.465
		c-1.75,2.375-3.449,4.77-5.157,7.164l-1.595,2.242c-0.451,0.641-0.543,0.889-0.558,0.951l0,0c0.036,0,0.177,0.232,0.72,0.77
		l11.262,11.266c0.6,0.605,0.84,0.732,0.896,0.758c-0.029-0.021,0.225-0.109,0.91-0.607l2.236-1.59
		c2.398-1.711,4.805-3.42,7.183-5.152c1.573-1.148,3.261-1.326,5.229-0.479c3.642,1.588,7.296,3.104,10.979,4.547
		c1.939,0.766,3.041,2.086,3.352,4.037c0.621,3.934,1.283,7.859,1.961,11.775c0.092,0.529,0.184,0.719,0.212,0.77
		C140.95,217.281,140.957,217.281,140.965,217.281z"/>
</g>
<g>
	<path fill="#3B8CC4" d="M179.26,149.993c0.007,16.144-13.116,29.274-29.261,29.274s-29.268-13.131-29.262-29.274
		c0.008-16.145,13.125-29.269,29.269-29.269C166.144,120.725,179.26,133.842,179.26,149.993 M174.384,149.979
		c-0.021-13.462-11-24.413-24.428-24.357c-13.483,0.042-24.428,11.049-24.342,24.456c0.091,13.449,10.95,24.272,24.371,24.3
		C163.419,174.393,174.413,163.413,174.384,149.979"/>
</g>
<g>
	<path fill="#3B8CC4" d="M149.996,181.07c-8.291,0-16.088-3.236-21.965-9.113c-5.871-5.877-9.109-13.678-9.103-21.968
		c0.007-17.136,13.95-31.075,31.074-31.075c17.125,0,31.061,13.939,31.061,31.075c0.007,8.291-3.231,16.091-9.103,21.968
		C166.091,177.834,158.287,181.07,149.996,181.07z M150.003,122.527c-15.135,0-27.454,12.319-27.462,27.462
		c0,7.328,2.852,14.22,8.044,19.414c5.193,5.193,12.087,8.055,19.411,8.055s14.218-2.861,19.41-8.055
		c5.193-5.193,8.045-12.086,8.045-19.414C177.451,134.846,165.139,122.527,150.003,122.527z M150.01,176.18L150.01,176.18
		c-14.365-0.031-26.106-11.736-26.205-26.092c-0.043-6.95,2.646-13.516,7.57-18.487c4.953-5.002,11.551-7.769,18.572-7.79h0.112
		c14.38,0,26.106,11.734,26.128,26.16c0.014,6.968-2.702,13.541-7.655,18.5C163.572,173.443,156.988,176.18,150.01,176.18z
		 M150.06,125.617l-0.099,1.806c-6.062,0.018-11.748,2.406-16.024,6.721c-4.241,4.283-6.555,9.935-6.52,15.918
		c0.085,12.383,10.21,22.48,22.571,22.506l0,0c6.041,0,11.707-2.361,15.982-6.646c4.27-4.281,6.619-9.943,6.604-15.944
		c-0.021-12.437-10.118-22.555-22.516-22.555V125.617z"/>
</g>
</svg>
