<?xml version="1.0" encoding="utf-8"?>
<!-- Generator: Adobe Illustrator 16.0.0, SVG Export Plug-In . SVG Version: 6.00 Build 0)  -->
<!DOCTYPE svg PUBLIC "-//W3C//DTD SVG 1.1//EN" "http://www.w3.org/Graphics/SVG/1.1/DTD/svg11.dtd">
<svg version="1.1" id="Layer_1" xmlns="http://www.w3.org/2000/svg" xmlns:xlink="http://www.w3.org/1999/xlink" x="0px" y="0px"
	 width="300px" height="300px" viewBox="0 0 300 300" enable-background="new 0 0 300 300" xml:space="preserve">
<g>
	<path fill="#3B8CC4" d="M150.005,298.75c-82.028,0-148.764-66.729-148.764-148.746C1.241,67.979,67.977,1.25,150.005,1.25
		c82.024,0,148.754,66.729,148.754,148.754C298.759,232.021,232.029,298.75,150.005,298.75z M150.005,12.145
		c-76.02,0-137.869,61.842-137.869,137.859c0,76.01,61.849,137.852,137.869,137.852c76.017,0,137.859-61.842,137.859-137.852
		C287.864,73.987,226.021,12.145,150.005,12.145z"/>
</g>
<g>
	<path fill="#3B8CC4" d="M220.825,97.436c-2.054,6.228-5.669,10.832-12.462,12.273c-4.286,0.911-7.734,0.085-13.002-3.22
		c-8.24,8.255-16.439,16.46-24.856,24.885c5.275,7.938,5.324,16.382-0.34,24.914c6.285,6.284,12.472,12.542,18.778,18.672
		c0.508,0.494,1.892,0.382,2.768,0.133c5.918-1.673,11.638,1.265,13.226,6.9c1.59,5.635-1.772,11.284-7.689,12.739
		c-3.672,0.903-6.879-0.212-9.47-2.833c-2.811-2.845-3.716-6.349-2.387-10.132c0.606-1.725,0.438-2.74-0.89-4.02
		c-5.996-5.853-11.865-11.841-17.549-17.533c-3.262,1.216-6.271,2.26-9.194,3.532c-0.621,0.266-1.257,1.354-1.264,2.061
		c-0.086,7.557-0.086,15.111,0.007,22.655c0.015,0.705,0.692,1.75,1.327,2.033c8.179,3.565,11.637,8.29,11.392,15.746
		c-0.219,6.709-4.4,11.525-12.423,14.336c-0.07,0.028-0.119,0.155-0.183,0.248h-5.672c-0.056-0.093-0.106-0.227-0.191-0.255
		c-8.041-2.931-12.054-7.718-12.343-14.765c-0.269-6.838,3.581-11.853,11.588-15.34c0.644-0.283,1.343-1.327,1.343-2.021
		c0.098-7.541,0.113-15.096-0.008-22.639c-0.007-0.729-0.867-1.795-1.589-2.118c-2.831-1.251-5.762-2.275-9.004-3.503
		c-9.977,10.013-20.238,20.346-30.584,30.605c-1.441,1.434-1.722,2.473-1.017,4.52c3.891,11.312-5.869,22.28-17.591,19.956
		c-7.005-1.391-10.593-6.178-12.373-12.696v-5.041c1.455-4.903,3.99-9.041,8.813-11.215c5.996-2.713,11.617-1.78,16.469,2.012
		c10.839-10.846,21.637-21.629,32.676-32.675c-5.157-7.739-5.39-16.15,0.542-24.857c-6.284-6.229-12.563-12.527-18.989-18.686
		c-0.536-0.508-2.067-0.296-3.022-0.007c-5.415,1.603-10.754-1.038-12.64-6.349c-1.851-5.226,0.706-10.84,5.86-12.902
		c5.148-2.041,11.158,0.24,13.002,5.459c0.799,2.302,0.22,5.063,0.324,7.613c0.034,0.932-0.113,2.175,0.409,2.711
		c6.052,6.243,12.218,12.372,18.433,18.615c8.529-5.544,16.982-5.692,25.562,0.042c6.795-6.814,13.524-13.558,20.247-20.303
		c0.96-0.96,1.856-2.012,2.908-2.874c1.526-1.271,1.865-2.401,1.116-4.505c-3.029-8.545,1.598-17.146,10.318-19.815
		c0.465-0.155,0.909-0.41,1.361-0.621h5.672c6.666,2.047,10.966,6.37,12.59,13.22V97.436z M169.297,143.774
		c0.007-8.813-6.709-15.648-15.408-15.705c-8.497-0.035-15.501,6.857-15.515,15.282c-0.016,8.714,6.856,15.741,15.4,15.754
		C162.234,159.114,169.297,152.156,169.297,143.774 M164.164,205.502c0.034-5.798-4.521-10.445-10.263-10.458
		c-5.72-0.016-10.465,4.695-10.43,10.352c0.034,5.536,4.661,10.253,10.169,10.354C159.346,215.861,164.127,211.207,164.164,205.502
		 M195.036,94.456c-0.043,5.819,4.513,10.479,10.241,10.507c5.719,0.015,10.492-4.688,10.464-10.338
		c-0.027-5.55-4.633-10.247-10.146-10.38C199.902,84.11,195.086,88.778,195.036,94.456 M94.717,189.973
		c-5.812-0.028-10.464,4.52-10.458,10.239c0,5.663,4.76,10.423,10.409,10.417c5.494-0.007,10.226-4.683,10.282-10.19
		C105.027,194.647,100.486,190.002,94.717,189.973 M200.156,184.761c-0.007-2.896-2.251-5.183-5.104-5.183
		c-2.819,0-5.121,2.316-5.105,5.183c0.013,2.909,2.252,5.169,5.098,5.184C197.875,189.944,200.171,187.613,200.156,184.761
		 M112.627,97.182c-2.854,0-5.136,2.33-5.114,5.197c0.021,2.924,2.239,5.134,5.142,5.127c2.873-0.014,5.184-2.316,5.155-5.155
		C117.789,99.477,115.485,97.182,112.627,97.182"/>
</g>
</svg>
