<?xml version="1.0" encoding="utf-8"?>
<!-- Generator: Adobe Illustrator 16.0.0, SVG Export Plug-In . SVG Version: 6.00 Build 0)  -->
<!DOCTYPE svg PUBLIC "-//W3C//DTD SVG 1.1//EN" "http://www.w3.org/Graphics/SVG/1.1/DTD/svg11.dtd">
<svg version="1.1" id="Layer_1" xmlns="http://www.w3.org/2000/svg" xmlns:xlink="http://www.w3.org/1999/xlink" x="0px" y="0px"
	 width="300px" height="300px" viewBox="0 0 300 300" enable-background="new 0 0 300 300" xml:space="preserve">
<path fill="#3B8CC4" d="M156.062,151.28h-12.32v3.784c-0.007,9.858,0.089,19.732-0.028,29.591
	c-0.312,25.903-21.034,45.437-46.876,44.273c-19.551-0.887-36.917-16.441-40.475-35.748c-1.844-10.043-0.341-19.447,4-28.428
	c12.675-26.198,25.598-52.273,38.284-78.471c4.489-9.252,11.252-14.976,21.835-15.186c12.413-0.234,22.789,9.781,23.225,22.254
	c0.082,2.323,0.007,4.649,0.007,7.167h12.593c0-1.837-0.007-3.689,0-5.54c0.082-11.926,7.164-20.881,18.598-23.541
	c9.93-2.294,20.512,3.029,25.521,13.146c9.518,19.268,18.924,38.596,28.313,57.924c4.362,8.955,9.214,17.735,12.782,26.998
	c11.688,30.378-13.137,62.559-45.465,59.367c-21.775-2.143-39.16-20.697-39.674-42.593c-0.256-10.986-0.089-21.98-0.131-32.96
	C156.251,152.766,156.154,152.228,156.062,151.28 M135.298,184.685c0.071-19.095-16.022-35.642-34.712-35.695
	c-20.395-0.057-36.46,15.537-36.599,35.51c-0.138,20.002,15.834,35.996,36.031,36.053
	C119.145,220.616,135.224,204.273,135.298,184.685 M236.045,185.109c0.227-19.746-15.492-35.822-35.287-36.092
	c-19.3-0.266-35.763,15.594-36.032,34.688c-0.275,19.761,15.349,36.542,34.309,36.826
	C219.504,220.843,235.81,205.239,236.045,185.109 M135.284,158.285c0-1.923-0.145-3.021,0.022-4.064c0.638-3.82-0.94-6.26-4.22-8.15
	c-3.291-1.898-6.256-4.337-9.466-6.384c-2.745-1.773-3.479-4.054-2.787-7.188c1.131-5.135,2.287-10.292,2.904-15.494
	c0.582-4.926,2.695-8.788,7.221-10.423c6.05-2.185,6.813-6.362,6.447-11.941c-0.492-7.333-4.865-13.306-11.774-14.895
	c-6.433-1.482-13.356,2.114-16.565,8.657c-8.6,17.583-17.193,35.166-25.768,52.76c-0.51,1.032-0.901,2.12-1.585,3.762
	C101.465,136.3,119.56,140.542,135.284,158.285 M220.256,144.851c-0.476-1.234-0.639-1.773-0.88-2.259
	c-8.93-18.311-17.811-36.642-26.853-54.902c-3.058-6.167-10.157-9.405-16.314-7.895c-6.852,1.678-11.05,7.487-11.589,14.707
	c-0.426,5.76,0.426,9.987,6.61,12.218c4.093,1.461,6.312,4.873,6.894,9.529c0.681,5.652,2.016,11.228,3.164,16.82
	c0.553,2.756-0.234,4.81-2.568,6.363c-3.348,2.251-6.652,4.553-9.972,6.855c-4.228,2.943-5.199,6.209-3.349,11.217
	C180.451,140.528,198.58,136.332,220.256,144.851 M170.563,125.307c0.411-7.983-1.532-11.221-8.171-13.881
	c-8.38-3.362-16.76-3.354-25.112,0.146c-6.508,2.738-8.338,5.862-7.816,13.721C143.157,118.863,156.874,118.895,170.563,125.307
	 M130.766,135.023c8.657,11.345,31.549,10.235,38.472-0.181C158.86,126.81,139.93,127.239,130.766,135.023"/>
<path fill="#3B8CC4" d="M72.399,183.053c0.528-13.676,12.643-25.52,26.197-25.619c3.107-0.021,5.068,1.461,5.2,3.965
	c0.131,2.503-1.671,4.185-4.777,4.433c-10.228,0.851-17.477,7.888-18.218,17.683c-0.276,3.667-1.858,5.596-4.479,5.454
	C73.683,188.84,72.254,186.684,72.399,183.053"/>
<path fill="#3B8CC4" d="M173.103,183.337c0.312-13.193,12.355-25.479,25.428-25.911c3.675-0.12,5.81,1.241,6.022,3.852
	s-1.703,4.242-5.384,4.604c-9.852,0.957-16.938,8.179-17.654,17.979c-0.241,3.419-1.873,5.278-4.496,5.086
	C174.401,188.77,173.018,186.798,173.103,183.337"/>
<g>
	<path fill="#3B8CC4" d="M150.005,298.75c-82.028,0-148.764-66.729-148.764-148.746C1.241,67.979,67.977,1.25,150.005,1.25
		c82.024,0,148.754,66.729,148.754,148.754C298.759,232.021,232.029,298.75,150.005,298.75z M150.005,12.145
		c-76.02,0-137.869,61.842-137.869,137.859c0,76.01,61.849,137.852,137.869,137.852c76.017,0,137.859-61.842,137.859-137.852
		C287.864,73.987,226.021,12.145,150.005,12.145z"/>
</g>
</svg>
