<?xml version="1.0" encoding="utf-8"?>
<!-- Generator: Adobe Illustrator 16.0.0, SVG Export Plug-In . SVG Version: 6.00 Build 0)  -->
<!DOCTYPE svg PUBLIC "-//W3C//DTD SVG 1.1//EN" "http://www.w3.org/Graphics/SVG/1.1/DTD/svg11.dtd">
<svg version="1.1" id="Layer_1" xmlns="http://www.w3.org/2000/svg" xmlns:xlink="http://www.w3.org/1999/xlink" x="0px" y="0px"
	 width="300px" height="300px" viewBox="0 0 300 300" enable-background="new 0 0 300 300" xml:space="preserve">
<g>
	<path fill="#3B8CC4" d="M150.005,298.75c-82.028,0-148.764-66.729-148.764-148.746C1.241,67.979,67.977,1.25,150.005,1.25
		c82.024,0,148.754,66.729,148.754,148.754C298.759,232.021,232.029,298.75,150.005,298.75z M150.005,12.145
		c-76.02,0-137.869,61.842-137.869,137.859c0,76.01,61.849,137.852,137.869,137.852c76.017,0,137.859-61.842,137.859-137.852
		C287.864,73.987,226.021,12.145,150.005,12.145z"/>
</g>
<g>
	<path fill="#3B8CC4" d="M150.086,241.477c-1.475,0-2.993-0.201-4.51-0.598c-21.13-5.525-38.87-17.732-52.734-36.287
		c-10.82-14.474-17.503-31.079-19.855-49.345c-0.518-4.007-0.777-8.259-0.777-12.647l-0.014-39.683
		c-0.022-7.474,3.574-13.021,10.395-16.036c20.071-8.863,40.107-17.77,60.121-26.733c4.821-2.158,9.741-2.166,14.562-0.015
		c20.021,8.964,40.071,17.857,60.121,26.755c2.31,1.014,5.662,2.806,7.972,6.525c1.619,2.597,2.396,5.59,2.381,9.144
		c-0.021,5.31-0.015,10.612-0.015,15.914l0.008,12.229c0,0.252,0.007,0.503,0.007,0.755c0.064,4.598,0.115,9.194-0.101,13.777
		c-1.77,37.612-18.727,66.639-50.402,86.28c-6.575,4.079-14.151,7.18-23.165,9.467C152.763,241.312,151.425,241.477,150.086,241.477
		z M150.014,69.564c-0.87,0-1.784,0.216-2.783,0.669c-20.029,8.964-40.093,17.885-60.173,26.755
		c-2.819,1.245-3.82,2.792-3.812,5.899l0.014,39.711c0,3.914,0.23,7.698,0.691,11.238c2.1,16.359,8.072,31.207,17.74,44.136
		c12.504,16.733,27.77,27.266,46.683,32.216c1.13,0.287,2.058,0.323,3,0.079c7.878-2.008,14.446-4.669,20.043-8.151
		c28.798-17.85,43.582-43.165,45.194-77.402c0.208-4.367,0.144-8.741,0.085-13.122c-0.021-2.094-0.049-4.195-0.049-6.288
		l0.035-6.828c0-5.316-0.007-10.64,0.014-15.957c0.008-1.46-0.216-2.475-0.719-3.28c-0.539-0.87-1.453-1.54-3.05-2.245
		c-20.072-8.906-40.137-17.812-60.173-26.777C151.77,69.78,150.878,69.564,150.014,69.564z"/>
</g>
<g>
	<path fill="#3B8CC4" d="M194.086,126.831c-0.036,2.72-0.849,4.863-2.583,6.597c-15.273,15.302-30.539,30.597-45.863,45.848
		c-3.568,3.547-9.029,3.519-12.625-0.042c-8.202-8.087-16.353-16.23-24.438-24.433c-3.619-3.668-3.511-9.25-0.007-12.769
		c3.568-3.575,9.137-3.575,12.884,0.122c5.525,5.44,11.007,10.922,16.431,16.469c1.101,1.137,1.677,1.258,2.885,0.049
		c12.403-12.517,24.885-24.962,37.353-37.423c3.646-3.641,8.208-4.216,12.057-1.555
		C192.755,121.478,193.992,123.997,194.086,126.831"/>
</g>
</svg>
