<?xml version="1.0" encoding="utf-8"?>
<!-- Generator: Adobe Illustrator 16.0.0, SVG Export Plug-In . SVG Version: 6.00 Build 0)  -->
<!DOCTYPE svg PUBLIC "-//W3C//DTD SVG 1.1//EN" "http://www.w3.org/Graphics/SVG/1.1/DTD/svg11.dtd">
<svg version="1.1" id="Layer_1" xmlns="http://www.w3.org/2000/svg" xmlns:xlink="http://www.w3.org/1999/xlink" x="0px" y="0px"
	 width="300px" height="300px" viewBox="0 0 300 300" enable-background="new 0 0 300 300" xml:space="preserve">
<g>
	<path fill="#3B8CC4" d="M150.005,298.75c-82.028,0-148.764-66.729-148.764-148.746C1.241,67.979,67.977,1.25,150.005,1.25
		c82.024,0,148.754,66.729,148.754,148.754C298.759,232.021,232.029,298.75,150.005,298.75z M150.005,12.145
		c-76.02,0-137.869,61.842-137.869,137.859c0,76.01,61.849,137.852,137.869,137.852c76.017,0,137.859-61.842,137.859-137.852
		C287.864,73.987,226.021,12.145,150.005,12.145z"/>
</g>
<g>
	<path fill="#3B8CC4" d="M58.714,148.323c47.593-54.299,121.59-70.559,182.573,2.777c-21.843,24.01-47.238,41.932-80.341,46.336
		c-32.676,4.354-59.498-8.445-83.054-29.686C71.194,161.714,65.177,154.915,58.714,148.323 M178.294,150.469
		c0.027-17.631-13.568-31.774-30.518-31.803c-16.977-0.021-30.765,14.214-30.723,31.703c0.036,17.475,14.044,31.838,30.857,31.632
		C164.797,181.78,178.272,167.815,178.294,150.469 M169.017,186.071c23.313-5.562,42.365-18.369,59.242-34.899
		c-12.047-16.899-48.303-38.828-61.863-37.578C192.841,128.859,196.081,166.665,169.017,186.071 M71.514,147.968
		c15.223,16.637,31.859,30.105,53.312,36.711c-11.166-9.135-17.297-20.629-17.055-35.205c0.241-14.477,6.904-25.601,18.127-34.444
		C104.701,120.961,87.128,132.525,71.514,147.968"/>
</g>
<g>
	<path fill="#3B8CC4" d="M154.17,171.261c-10.031,1.79-18.761-2.849-22.838-11.807c-4.205-9.241-1.627-20.557,6.052-26.652
		c7.104-5.647,17.147-5.938,24.322-0.71c8.517,6.223,11.153,16.885,7.118,26.809c-3.24-1.833-6.365-4.184-9.889-5.356
		c-1.549-0.511-4.233,0.967-5.824,2.245C148.692,159.369,149.104,164.853,154.17,171.261"/>
</g>
</svg>
