<svg width="32" height="41" viewBox="0 0 32 41" fill="none" xmlns="http://www.w3.org/2000/svg">
<path d="M30.5933 20.3515V8.50838L23.2996 1.18652H1.18213V39.8132H30.5933V36.3718" stroke="white" stroke-width="2" stroke-miterlimit="10" stroke-linecap="round" stroke-linejoin="round"/>
<path d="M6.13525 13.1128H15.3913" stroke="white" stroke-width="2" stroke-miterlimit="10" stroke-linecap="round" stroke-linejoin="round"/>
<path d="M6.13525 17.9424H11.8449" stroke="white" stroke-width="2" stroke-miterlimit="10" stroke-linecap="round" stroke-linejoin="round"/>
<path d="M6.13525 22.7842H10.0008" stroke="white" stroke-width="2" stroke-miterlimit="10" stroke-linecap="round" stroke-linejoin="round"/>
<path d="M6.13525 27.6143H11.8449" stroke="white" stroke-width="2" stroke-miterlimit="10" stroke-linecap="round" stroke-linejoin="round"/>
<path d="M6.13525 32.4438H15.3913" stroke="white" stroke-width="2" stroke-miterlimit="10" stroke-linecap="round" stroke-linejoin="round"/>
<path d="M23.2998 1.18652V9.26785H30.3334" stroke="white" stroke-width="2" stroke-miterlimit="10" stroke-linecap="round" stroke-linejoin="round"/>
<path d="M22.0345 28.8248C25.1356 28.8248 27.6496 26.3011 27.6496 23.188C27.6496 20.0749 25.1356 17.5513 22.0345 17.5513C18.9334 17.5513 16.4194 20.0749 16.4194 23.188C16.4194 26.3011 18.9334 28.8248 22.0345 28.8248Z" stroke="white" stroke-width="1.7704" stroke-miterlimit="10" stroke-linecap="round" stroke-linejoin="round"/>
<path d="M26.2666 27.6616L30.8178 32.2422" stroke="white" stroke-width="2" stroke-miterlimit="10" stroke-linecap="round" stroke-linejoin="round"/>
</svg>
