<svg width="118" height="108" viewBox="0 0 118 108" fill="none" xmlns="http://www.w3.org/2000/svg">
<g clip-path="url(#clip0_9158_81011)">
<path d="M117.5 82.9341C117.5 85.6235 115.312 87.7689 112.639 87.7689C111.15 87.7689 109.844 87.1041 108.963 86.0767L108.902 85.9861L82.7432 56.0104L103.858 31.8062C103.919 31.7458 104.01 31.6551 104.071 31.5645L117.318 81.4232V81.4837C117.409 81.9672 117.5 82.4506 117.5 82.9341Z" fill="url(#paint0_linear_9158_81011)"/>
<path d="M103.798 31.8355L66.4891 74.5932C64.6966 76.7386 62.023 78.0984 58.9848 78.0984C55.977 78.0984 53.273 76.7386 51.4805 74.5932L35.2871 56.0397L32.3097 52.6553C32.1577 52.474 32.0058 52.2927 31.8539 52.1416L31.8235 52.1114C29.15 49.2105 25.2915 47.3673 21.0077 47.3673C14.3237 47.3673 8.67268 51.8394 6.94092 57.9132L20.2481 7.99393V7.96371C21.2507 3.70305 25.1396 0.5 29.7576 0.5C32.7046 0.5 35.3478 1.79935 37.1403 3.88435L58.9848 28.9044L60.3216 30.4455C60.3216 30.4455 60.3216 30.4455 60.352 30.4757C60.5343 30.6872 60.7166 30.8988 60.8989 31.0801C66.246 37.0329 74.0541 40.7799 82.7129 40.7799C91.0071 40.7799 98.481 37.3653 103.798 31.8355Z" fill="url(#paint1_linear_9158_81011)"/>
<path d="M35.3173 56.0406L9.1283 86.0163L9.06754 86.107C8.18647 87.1344 6.84967 87.7992 5.39135 87.7992C2.68738 87.7992 0.530273 85.6235 0.530273 82.9644C0.530273 82.4809 0.591037 82.0276 0.742945 81.5744V81.5139L7.00158 57.9443C8.73334 51.8404 14.3843 47.3984 21.0683 47.3984C25.3521 47.3984 29.2106 49.2115 31.8842 52.1426L31.9146 52.1728L32.3703 52.6865L35.3173 56.0406Z" fill="url(#paint2_linear_9158_81011)"/>
<path d="M104.01 31.5938L103.798 31.8355C98.4809 37.3351 90.9766 40.7799 82.7127 40.7799C74.054 40.7799 66.2762 37.0329 60.8987 31.0801L60.3518 30.4757C60.3518 30.4757 60.3518 30.4757 60.3214 30.4455L58.9846 28.9044L59.0454 28.8138L80.8291 3.85414C82.652 1.79935 85.2952 0.5 88.2422 0.5C92.8602 0.5 96.7187 3.70305 97.7213 7.96371V7.99393L104.01 31.5938Z" fill="url(#paint3_radial_9158_81011)"/>
<path d="M2.6571 100.428L4.44963 105.474L6.24215 100.428H8.12581V107.378H6.66749V105.474L6.8194 102.18L4.93573 107.378H3.93314L2.04947 102.211L2.20138 105.504V107.408H0.773438V100.458H2.6571V100.428Z" fill="#0A0D1C"/>
<path d="M16.1161 104.084C16.1161 104.779 15.9946 105.383 15.7515 105.897C15.5085 106.411 15.1743 106.804 14.7185 107.106C14.2628 107.378 13.7463 107.529 13.1691 107.529C12.5918 107.529 12.0753 107.378 11.6196 107.106C11.1639 106.834 10.7993 106.441 10.5562 105.927C10.3132 105.413 10.1917 104.809 10.1917 104.144V103.812C10.1917 103.117 10.3132 102.513 10.5562 101.999C10.7993 101.485 11.1639 101.092 11.6196 100.79C12.0753 100.518 12.5918 100.367 13.1691 100.367C13.7463 100.367 14.2628 100.518 14.7185 100.79C15.1743 101.062 15.5085 101.455 15.7819 101.999C16.0249 102.513 16.1465 103.117 16.1465 103.812V104.084H16.1161ZM14.6578 103.752C14.6578 103.026 14.5362 102.452 14.2628 102.09C13.9894 101.697 13.6248 101.515 13.1387 101.515C12.6526 101.515 12.288 101.697 12.0146 102.09C11.7411 102.452 11.6196 103.026 11.6196 103.721V104.054C11.6196 104.779 11.7411 105.323 12.0146 105.716C12.288 106.109 12.6526 106.29 13.1387 106.29C13.6248 106.29 13.9894 106.109 14.2628 105.716C14.5362 105.353 14.6578 104.779 14.6578 104.054V103.752Z" fill="#0A0D1C"/>
<path d="M20.7343 104.839H19.5798V107.378H18.1519V100.428H20.7647C21.585 100.428 22.223 100.609 22.6787 100.972C23.1345 101.334 23.3471 101.848 23.3471 102.513C23.3471 102.996 23.256 103.389 23.0433 103.691C22.8306 103.993 22.5268 104.265 22.1015 104.447L23.6206 107.287V107.348H22.0711L20.7343 104.839ZM19.5798 103.691H20.7343C21.0989 103.691 21.3723 103.601 21.585 103.419C21.7977 103.238 21.8888 102.996 21.8888 102.664C21.8888 102.331 21.7977 102.09 21.6154 101.878C21.4331 101.697 21.1293 101.606 20.7647 101.606H19.6102V103.691H19.5798Z" fill="#0A0D1C"/>
<path d="M26.8714 104.961V107.409H25.4131V100.459H28.1474C28.6639 100.459 29.15 100.55 29.545 100.731C29.94 100.912 30.2438 101.184 30.4565 101.547C30.6691 101.909 30.7906 102.302 30.7906 102.756C30.7906 103.451 30.5476 103.964 30.0919 104.357C29.6361 104.75 28.9677 104.961 28.1474 104.961H26.8714ZM26.8714 103.783H28.1474C28.5424 103.783 28.8158 103.692 29.0285 103.511C29.2412 103.33 29.3323 103.088 29.3323 102.756C29.3323 102.423 29.2412 102.151 29.0285 101.94C28.8158 101.728 28.5424 101.607 28.1778 101.607H26.841V103.783H26.8714Z" fill="#0A0D1C"/>
<path d="M38.4468 107.409H37.0188V104.417H34.1933V107.409H32.7654V100.459H34.1933V103.269H37.0188V100.459H38.4468V107.409Z" fill="#0A0D1C"/>
<path d="M44.8877 104.387H42.123V106.261H45.3739V107.409H40.6951V100.459H45.3739V101.607H42.123V103.269H44.8877V104.387Z" fill="#0A0D1C"/>
<path d="M52.5135 100.428V105.021C52.5135 105.776 52.2705 106.381 51.7844 106.834C51.2983 107.287 50.6603 107.499 49.8096 107.499C48.9893 107.499 48.3513 107.287 47.8651 106.864C47.379 106.441 47.136 105.837 47.136 105.081V100.458H48.5639V105.051C48.5639 105.504 48.6855 105.837 48.8981 106.048C49.1108 106.26 49.4146 106.35 49.8096 106.35C50.6299 106.35 51.0248 105.927 51.0552 105.081V100.458H52.5135V100.428Z" fill="#0A0D1C"/>
<path d="M58.286 105.566C58.286 105.294 58.1948 105.082 58.0125 104.931C57.8302 104.78 57.4657 104.629 56.9796 104.478C56.4934 104.327 56.0985 104.145 55.7947 103.994C55.0047 103.571 54.6098 102.997 54.6098 102.272C54.6098 101.909 54.7313 101.547 54.944 101.275C55.1567 100.972 55.4605 100.761 55.8554 100.58C56.2504 100.429 56.7061 100.338 57.1922 100.338C57.6783 100.338 58.1341 100.429 58.529 100.61C58.924 100.791 59.2278 101.033 59.4405 101.365C59.6531 101.698 59.7747 102.06 59.7747 102.483H58.3467C58.3467 102.151 58.2556 101.909 58.0429 101.728C57.8302 101.547 57.5568 101.456 57.1922 101.456C56.8276 101.456 56.5542 101.516 56.3719 101.667C56.1896 101.819 56.0681 102 56.0681 102.242C56.0681 102.453 56.1896 102.665 56.4023 102.816C56.6454 102.967 56.9796 103.118 57.4049 103.239C58.2252 103.481 58.8328 103.783 59.1974 104.145C59.562 104.508 59.7747 104.961 59.7747 105.505C59.7747 106.109 59.5316 106.593 59.0759 106.925C58.6202 107.258 58.0125 107.439 57.2226 107.439C56.6757 107.439 56.1896 107.348 55.7643 107.137C55.3086 106.956 54.9744 106.684 54.7617 106.321C54.5186 105.989 54.4275 105.596 54.4275 105.142H55.8858C55.8858 105.898 56.3415 106.291 57.2834 106.291C57.6176 106.291 57.891 106.23 58.0733 106.079C58.1948 106.019 58.286 105.837 58.286 105.566Z" fill="#0A0D1C"/>
<path d="M61.6887 106.714C61.6887 106.503 61.7495 106.322 61.9014 106.171C62.0533 106.019 62.2356 105.959 62.4483 105.959C62.6609 105.959 62.8736 106.019 63.0255 106.171C63.1774 106.322 63.2382 106.473 63.2382 106.714C63.2382 106.926 63.1774 107.107 63.0255 107.228C62.8736 107.349 62.6913 107.44 62.4483 107.44C62.2356 107.44 62.0229 107.379 61.871 107.228C61.7495 107.107 61.6887 106.926 61.6887 106.714Z" fill="#0A0D1C"/>
<path d="M71.0161 107.409H70.4388L66.4284 101.456V107.409H65.8208V100.459H66.4284L70.4692 106.412V100.459H71.0465V107.409H71.0161Z" fill="#0A0D1C"/>
<path d="M77.6392 104.054H74.358V106.894H78.1253V107.378H73.7808V100.428H78.1253V100.911H74.3884V103.54H77.6696V104.054H77.6392Z" fill="#0A0D1C"/>
<path d="M85.2042 100.942H82.8041V107.409H82.2268V100.942H79.8267V100.459H85.2042V100.942Z" fill="#0A0D1C"/>
<path d="M88.6981 105.536L88.9108 106.623L89.1842 105.596L90.7033 100.459H91.2502L92.7389 105.596L93.0123 106.623L93.2554 105.536L94.5314 100.459H95.139L93.3465 107.409H92.7693L91.1894 101.97L91.0071 101.275L90.8248 101.97L89.2146 107.409H88.607L86.8145 100.459H87.4221L88.6981 105.536Z" fill="#0A0D1C"/>
<path d="M102.37 104.296C102.37 104.931 102.248 105.505 102.036 105.989C101.823 106.472 101.489 106.835 101.094 107.107C100.669 107.379 100.213 107.499 99.666 107.499C98.8457 107.499 98.1773 107.197 97.6912 106.623C97.1747 106.049 96.9316 105.263 96.9316 104.266V103.541C96.9316 102.906 97.0532 102.332 97.2658 101.849C97.4785 101.365 97.8127 100.972 98.2381 100.731C98.6634 100.459 99.1191 100.338 99.666 100.338C100.213 100.338 100.669 100.459 101.094 100.731C101.519 101.003 101.823 101.365 102.036 101.819C102.248 102.302 102.37 102.846 102.4 103.45V104.296H102.37ZM101.793 103.541C101.793 102.695 101.61 102.06 101.215 101.577C100.821 101.093 100.304 100.852 99.6356 100.852C98.9976 100.852 98.4811 101.093 98.0862 101.577C97.6912 102.06 97.5089 102.725 97.5089 103.571V104.296C97.5089 105.112 97.6912 105.777 98.0862 106.261C98.4811 106.744 98.9976 106.986 99.666 106.986C100.334 106.986 100.851 106.744 101.246 106.261C101.641 105.777 101.823 105.112 101.823 104.266V103.541H101.793Z" fill="#0A0D1C"/>
<path d="M107.474 104.508H105.438V107.409H104.831V100.459H107.109C107.869 100.459 108.446 100.64 108.872 101.003C109.297 101.366 109.51 101.879 109.51 102.514C109.51 102.967 109.388 103.36 109.115 103.692C108.841 104.025 108.507 104.266 108.051 104.387L109.813 107.349V107.409H109.175L107.474 104.508ZM105.438 103.994H107.261C107.747 103.994 108.142 103.843 108.446 103.571C108.75 103.299 108.902 102.937 108.902 102.484C108.902 102 108.75 101.607 108.416 101.335C108.112 101.063 107.656 100.942 107.079 100.942H105.408V103.994H105.438Z" fill="#0A0D1C"/>
<path d="M113.672 103.933L112.7 104.9V107.378H112.123V100.428H112.7V104.175L116.285 100.428H117.044L114.097 103.54L117.257 107.408H116.528L113.672 103.933Z" fill="#0A0D1C"/>
</g>
<defs>
<linearGradient id="paint0_linear_9158_81011" x1="138.774" y1="79.0727" x2="67.8271" y2="34.46" gradientUnits="userSpaceOnUse">
<stop offset="0.1505" stop-color="#5891BA"/>
<stop offset="0.5998" stop-color="#1D2749"/>
<stop offset="0.6254" stop-color="#1A2241"/>
<stop offset="0.727" stop-color="#0E1326"/>
<stop offset="0.7868" stop-color="#0A0D1C"/>
</linearGradient>
<linearGradient id="paint1_linear_9158_81011" x1="-6.64004" y1="26.45" x2="87.1582" y2="50.3109" gradientUnits="userSpaceOnUse">
<stop offset="0.2686" stop-color="#5891BA"/>
<stop offset="0.4287" stop-color="#4E7EA6"/>
<stop offset="0.7538" stop-color="#334F73"/>
<stop offset="1" stop-color="#1D2749"/>
</linearGradient>
<linearGradient id="paint2_linear_9158_81011" x1="-9.91059" y1="101.881" x2="36.0373" y2="33.7394" gradientUnits="userSpaceOnUse">
<stop offset="0.0531239" stop-color="#5891BA"/>
<stop offset="0.4421" stop-color="#30496D"/>
<stop offset="0.6474" stop-color="#1D2749"/>
</linearGradient>
<radialGradient id="paint3_radial_9158_81011" cx="0" cy="0" r="1" gradientUnits="userSpaceOnUse" gradientTransform="translate(89.0449 1.3709) scale(51.8869 51.6064)">
<stop stop-color="#5891BA"/>
<stop offset="0.1284" stop-color="#49769D"/>
<stop offset="0.351" stop-color="#314B6F"/>
<stop offset="0.5233" stop-color="#223153"/>
<stop offset="0.6229" stop-color="#1D2749"/>
<stop offset="0.8671" stop-color="#0A0D1C"/>
</radialGradient>
<clipPath id="clip0_9158_81011">
<rect width="117" height="107" fill="white" transform="translate(0.5 0.5)"/>
</clipPath>
</defs>
</svg>
