<svg width="202" height="56" viewBox="0 0 202 56" fill="none" xmlns="http://www.w3.org/2000/svg">
<path d="M0 1.65655H7.73456V35.9289H18.9985V43.303H0V1.65655Z" fill="#2564FD"/>
<path d="M24.7355 0.890625C26.0572 0.890625 27.1836 1.37122 28.1297 2.33241C29.0759 3.2936 29.5415 4.45003 29.5415 5.81672C29.5415 7.15337 29.0759 8.3098 28.1297 9.25597C27.1986 10.2021 26.0722 10.6827 24.7656 10.6827C23.4289 10.6827 22.2875 10.2021 21.3413 9.22593C20.3952 8.26474 19.9296 7.07828 19.9296 5.71159C19.9296 4.38995 20.3952 3.24854 21.3263 2.31739C22.2875 1.3562 23.4139 0.890625 24.7355 0.890625Z" fill="#FF9600"/>
<path d="M28.5206 13.2659H20.9813V43.3181H28.5206V13.2659Z" fill="#2564FD"/>
<path d="M31.0733 13.2659H38.6126V16.3447C40.3247 14.903 41.8716 13.8967 43.2533 13.341C44.635 12.7703 46.0618 12.5 47.5186 12.5C50.4923 12.5 53.0304 13.5363 55.103 15.6238C56.8451 17.396 57.7162 20.0093 57.7162 23.4635V43.3181H50.267V30.1618C50.267 26.5724 50.1018 24.1995 49.7864 23.013C49.471 21.8415 48.9003 20.9404 48.1043 20.3247C47.3083 19.7089 46.3171 19.3935 45.1457 19.3935C43.6138 19.3935 42.3072 19.9041 41.2258 20.9254C40.1295 21.9467 39.3785 23.3584 38.958 25.1606C38.7327 26.0918 38.6276 28.1343 38.6276 31.2582V43.3181H31.0883V13.2659H31.0733Z" fill="#2564FD"/>
<path d="M60.2996 1.65655H67.8389V25.6412L78.9376 13.2659H88.4144L75.4684 27.6537L89.9613 43.303H80.6047L67.8389 29.4559V43.303H60.2996V1.65655Z" fill="#2564FD"/>
<path d="M100.069 1.65655H92.5294V43.303H100.069V1.65655Z" fill="#2564FD"/>
<path d="M132.118 20.3848C130.722 17.9518 128.769 16.0294 126.276 14.6176C123.783 13.2059 121.11 12.485 118.286 12.485C114.366 12.485 110.897 13.8517 107.878 16.57C104.439 19.6939 102.712 23.6138 102.712 28.2995C102.712 32.685 104.229 36.4096 107.278 39.4734C110.326 42.5372 114.006 44.069 118.316 44.069C121.245 44.069 123.918 43.3782 126.351 41.9815C128.784 40.5847 130.707 38.6624 132.103 36.1993C133.515 33.7363 134.221 31.078 134.221 28.2395C134.221 25.446 133.515 22.8178 132.118 20.3848ZM124.279 34.6073C122.717 36.2444 120.749 37.0704 118.391 37.0704C116.033 37.0704 114.081 36.2594 112.534 34.6374C110.987 33.0154 110.221 30.8978 110.221 28.2845C110.221 25.7464 111.002 23.6588 112.564 22.0368C114.126 20.4148 116.079 19.5888 118.421 19.5888C120.824 19.5888 122.792 20.3998 124.324 22.0068C125.871 23.6138 126.637 25.7164 126.637 28.2845C126.622 30.8677 125.841 32.9703 124.279 34.6073Z" fill="#2564FD"/>
<path d="M150.846 12.485C147.152 12.485 143.968 13.7916 141.295 16.4048C138.351 19.2884 136.879 23.1181 136.879 27.894C136.879 32.3546 138.276 36.0341 141.054 38.9477C143.833 41.8613 147.242 43.3181 151.267 43.3181C153.114 43.3181 154.751 43.0328 156.208 42.447C157.665 41.8613 159.047 40.9151 160.383 39.5935C160.383 42.0265 160.128 43.7386 159.617 44.7299C159.107 45.7211 158.236 46.5321 157.004 47.1629C155.773 47.7937 154.136 48.109 152.123 48.109C150.546 48.109 149.164 47.8988 148.008 47.4632C146.852 47.0277 145.905 46.3969 145.169 45.5409H136.864C137.525 47.5834 138.546 49.3255 139.928 50.7523C141.31 52.1791 143.007 53.2604 145.004 53.9963C147.017 54.7322 149.48 55.1077 152.438 55.1077C157.965 55.1077 162.095 53.4857 164.844 50.2417C166.886 47.8537 167.908 44.1141 167.908 39.0228V12.485H150.846ZM158.476 34.1418C156.959 35.7037 155.022 36.4847 152.694 36.4847C150.306 36.4847 148.308 35.6887 146.731 34.0817C145.154 32.4747 144.358 30.4322 144.358 27.9241C144.358 25.5061 145.124 23.5086 146.671 21.9167C148.218 20.3247 150.186 19.5287 152.559 19.5287C154.977 19.5287 156.944 20.3097 158.476 21.8716C160.008 23.4335 160.774 25.4761 160.774 27.9691C160.744 30.5223 159.993 32.5798 158.476 34.1418Z" fill="#2564FD"/>
<path d="M174.921 0.890625C176.243 0.890625 177.369 1.37122 178.315 2.33241C179.262 3.2936 179.727 4.45003 179.727 5.81672C179.727 7.15337 179.262 8.3098 178.315 9.25597C177.384 10.2021 176.258 10.6827 174.951 10.6827C173.615 10.6827 172.473 10.2021 171.527 9.22593C170.581 8.26474 170.115 7.07828 170.115 5.71159C170.115 4.38995 170.581 3.24854 171.512 2.31739C172.473 1.3562 173.6 0.890625 174.921 0.890625Z" fill="#2564FD"/>
<path d="M178.706 13.2659H171.167V43.3181H178.706V13.2659Z" fill="#2564FD"/>
<path d="M201.459 17.4561L196.788 22.1269C194.896 20.2495 193.169 19.3034 191.622 19.3034C190.781 19.3034 190.105 19.4836 189.64 19.844C189.159 20.2045 188.919 20.655 188.919 21.1807C188.919 21.5862 189.069 21.9617 189.369 22.2921C189.67 22.6375 190.421 23.1031 191.622 23.6888L194.385 25.0705C197.299 26.5123 199.297 27.9691 200.378 29.4559C201.459 30.9428 202 32.6999 202 34.6974C202 37.3707 201.024 39.5935 199.056 41.3807C197.089 43.1679 194.461 44.054 191.172 44.054C186.786 44.054 183.287 42.3419 180.674 38.9176L185.314 33.8714C186.2 34.9077 187.237 35.7337 188.423 36.3645C189.61 36.9953 190.661 37.3106 191.592 37.3106C192.583 37.3106 193.394 37.0703 193.995 36.5898C194.596 36.1092 194.911 35.5535 194.911 34.9377C194.911 33.7813 193.815 32.6399 191.622 31.5435L189.084 30.2669C184.218 27.8189 181.8 24.7551 181.8 21.0756C181.8 18.7026 182.716 16.6751 184.548 14.993C186.381 13.311 188.723 12.4699 191.577 12.4699C193.529 12.4699 195.362 12.9055 197.089 13.7615C198.801 14.6326 200.258 15.8491 201.459 17.4561Z" fill="#2564FD"/>
</svg>
