<svg width="71" height="72" viewBox="0 0 71 72" fill="none" xmlns="http://www.w3.org/2000/svg">
<path d="M61.883 27.7691C61.9029 27.7691 61.9227 27.7691 61.9426 27.7691C61.9724 27.7691 62.0121 27.7691 62.0419 27.7608C62.9055 27.7773 63.5904 28.361 63.5904 29.068C63.5904 29.3886 63.9081 29.6517 64.2952 29.6517C64.6823 29.6517 65 29.3886 65 29.068C65 27.9006 64.0173 26.8894 62.6375 26.6428V26.0837C62.6375 25.7631 62.3198 25.5 61.9327 25.5C61.5455 25.5 61.2279 25.7631 61.2279 26.0837V26.6756C59.7686 26.9963 58.8355 28.1637 59.0242 29.3969C59.2227 30.63 60.4933 31.559 62.0022 31.559C62.8757 31.559 63.5904 32.1428 63.5904 32.8744C63.5904 33.5979 62.8856 34.1898 62.0022 34.1898C61.1286 34.1898 60.4139 33.6061 60.4139 32.8744C60.4139 32.5538 60.0962 32.2907 59.7091 32.2907C59.322 32.2907 59.0043 32.5538 59.0043 32.8744C59.0043 34.0007 59.9175 34.9873 61.2279 35.275V35.9163C61.2279 36.2369 61.5455 36.5 61.9327 36.5C62.3198 36.5 62.6375 36.2369 62.6375 35.9163V35.2997C64.1364 35.0284 65.1489 33.8692 64.9802 32.6031C64.8114 31.3371 63.5309 30.3834 61.9922 30.3834C61.1385 30.3834 60.4437 29.8244 60.4139 29.1256C60.394 28.4268 61.0393 27.8266 61.883 27.7691Z" fill="white"/>
<path d="M61.6995 43V65.7057C61.6995 68.1788 59.3761 70.4545 55.8046 70.4808C52.2198 70.5072 48.6616 68.8628 48.6616 65.5215V59.8649H19.5188C19.5188 59.8649 19.5188 63.5483 19.5188 64.9953C19.5188 66.4423 21.0324 70.1125 24.5242 70.1125L56.1365 70.4677" stroke="white" stroke-width="2" stroke-miterlimit="10" stroke-linecap="round" stroke-linejoin="round"/>
<path d="M27.0203 59.6927V25.6875H51" stroke="white" stroke-width="2" stroke-miterlimit="10" stroke-linecap="round" stroke-linejoin="round"/>
<path d="M62 39C66.4183 39 70 35.4183 70 31C70 26.5817 66.4183 23 62 23C57.5817 23 54 26.5817 54 31C54 35.4183 57.5817 39 62 39Z" stroke="white" stroke-width="2" stroke-miterlimit="10" stroke-linecap="round" stroke-linejoin="round"/>
<path d="M34.0838 45.9991C35.1983 45.9991 36.1019 45.1038 36.1019 43.9995C36.1019 42.8952 35.1983 42 34.0838 42C32.9692 42 32.0657 42.8952 32.0657 43.9995C32.0657 45.1038 32.9692 45.9991 34.0838 45.9991Z" fill="white"/>
<path d="M34.0838 38.001C35.1983 38.001 36.1019 37.1058 36.1019 36.0015C36.1019 34.8972 35.1983 34.002 34.0838 34.002C32.9692 34.002 32.0657 34.8972 32.0657 36.0015C32.0657 37.1058 32.9692 38.001 34.0838 38.001Z" fill="white"/>
<path d="M38.3191 36.002H49.4319" stroke="white" stroke-width="2" stroke-miterlimit="10" stroke-linecap="round" stroke-linejoin="round"/>
<path d="M38.3188 44H54.8353" stroke="white" stroke-width="2" stroke-miterlimit="10" stroke-linecap="round" stroke-linejoin="round"/>
<path d="M34.0838 54.1416C35.1983 54.1416 36.1019 53.2464 36.1019 52.1421C36.1019 51.0378 35.1983 50.1426 34.0838 50.1426C32.9692 50.1426 32.0657 51.0378 32.0657 52.1421C32.0657 53.2464 32.9692 54.1416 34.0838 54.1416Z" fill="white"/>
<path d="M38.3191 52.1426H54.8356" stroke="white" stroke-width="2" stroke-miterlimit="10" stroke-linecap="round" stroke-linejoin="round"/>
<path d="M21.3428 22.6706C19.2285 24.4706 16.4856 25.5706 13.4999 25.5706C6.82847 25.5706 1.42847 20.1706 1.42847 13.4992C1.42847 6.82773 6.82847 1.42773 13.4999 1.42773C20.1713 1.42773 25.5713 6.82773 25.5713 13.4992C25.5713 14.4849 25.457 15.442 25.2285 16.3563" stroke="white" stroke-width="2" stroke-miterlimit="10" stroke-linecap="round" stroke-linejoin="round"/>
<path d="M23.9572 19.5137C23.9572 19.5137 23.7001 19.9994 23.5715 20.1422" stroke="white" stroke-width="2" stroke-miterlimit="10" stroke-linecap="round" stroke-linejoin="round"/>
<path d="M23.8571 19.7141C23.8649 19.7141 23.8713 19.7077 23.8713 19.6998C23.8713 19.6919 23.8649 19.6855 23.8571 19.6855C23.8492 19.6855 23.8428 19.6919 23.8428 19.6998C23.8428 19.7077 23.8492 19.7141 23.8571 19.7141Z" fill="white"/>
<path d="M18.6557 20H9.09515V18.3691L13.8315 13.2031C14.5151 12.4414 15.0001 11.8066 15.2866 11.2988C15.5795 10.7845 15.726 10.2702 15.726 9.75586C15.726 9.07878 15.5339 8.5319 15.1498 8.11523C14.7722 7.69857 14.2612 7.49023 13.6166 7.49023C12.8484 7.49023 12.2527 7.72461 11.8295 8.19336C11.4063 8.66211 11.1948 9.30339 11.1948 10.1172H8.82171C8.82171 9.2513 9.01702 8.47331 9.40765 7.7832C9.80478 7.08659 10.3679 6.54622 11.0971 6.16211C11.8328 5.77799 12.6791 5.58594 13.6362 5.58594C15.0164 5.58594 16.1036 5.93424 16.8979 6.63086C17.6987 7.32096 18.0991 8.27799 18.0991 9.50195C18.0991 10.2116 17.8972 10.957 17.4936 11.7383C17.0964 12.513 16.4422 13.3952 15.5307 14.3848L12.0541 18.1055H18.6557V20Z" fill="white"/>
</svg>
