<svg width="38" height="41" viewBox="0 0 38 41" fill="none" xmlns="http://www.w3.org/2000/svg">
<path d="M5.08447 13.8125H8.87531L14.0046 32.7954H29.0643" stroke="#3B8CC5" stroke-width="2" stroke-miterlimit="10" stroke-linecap="round" stroke-linejoin="round"/>
<path d="M10.8613 17.6777H32.2075L30.2214 27.9229H13.3396" stroke="#3B8CC5" stroke-width="2" stroke-miterlimit="10" stroke-linecap="round" stroke-linejoin="round"/>
<path d="M16.9319 39.1244C17.9238 39.1244 18.728 38.3082 18.728 37.3014C18.728 36.2947 17.9238 35.4785 16.9319 35.4785C15.9399 35.4785 15.1357 36.2947 15.1357 37.3014C15.1357 38.3082 15.9399 39.1244 16.9319 39.1244Z" stroke="#3B8CC5" stroke-width="2" stroke-miterlimit="10" stroke-linecap="round" stroke-linejoin="round"/>
<path d="M26.1284 39.1244C27.1204 39.1244 27.9245 38.3082 27.9245 37.3014C27.9245 36.2947 27.1204 35.4785 26.1284 35.4785C25.1364 35.4785 24.3323 36.2947 24.3323 37.3014C24.3323 38.3082 25.1364 39.1244 26.1284 39.1244Z" stroke="#3B8CC5" stroke-width="2" stroke-miterlimit="10" stroke-linecap="round" stroke-linejoin="round"/>
<path d="M15.5676 20.6406V25.3732" stroke="#3B8CC5" stroke-width="2" stroke-miterlimit="10" stroke-linecap="round" stroke-linejoin="round"/>
<path d="M21.4653 20.6406V25.3732" stroke="#3B8CC5" stroke-width="2" stroke-miterlimit="10" stroke-linecap="round" stroke-linejoin="round"/>
<path d="M27.3545 20.6406V25.3732" stroke="#3B8CC5" stroke-width="2" stroke-miterlimit="10" stroke-linecap="round" stroke-linejoin="round"/>
<path d="M9.41219 29C6.67902 29 4.193 29 3.41345 29C2.63391 29 2 28.3511 2 27.5506V3.44944C2 2.64888 2.63391 2 3.41345 2H34.5865C35.3661 2 36 2.64888 36 3.44944C36 3.44944 36 26.7416 36 27.5421C36 28.3427 35.3661 28.9916 34.5865 28.9916C33.807 28.9916 33.4878 28.9916 33.4878 28.9916" stroke="#3B8CC5" stroke-width="2" stroke-miterlimit="10" stroke-linecap="round" stroke-linejoin="round"/>
<path d="M2.17432 9.01953H35.7219" stroke="#3B8CC5" stroke-width="2" stroke-miterlimit="10" stroke-linecap="round" stroke-linejoin="round"/>
<path d="M5.83568 6.64404C6.44135 6.64404 6.93235 6.14571 6.93235 5.531C6.93235 4.91629 6.44135 4.41797 5.83568 4.41797C5.23001 4.41797 4.73901 4.91629 4.73901 5.531C4.73901 6.14571 5.23001 6.64404 5.83568 6.64404Z" fill="#3B8CC5"/>
<path d="M9.52294 6.64404C10.1286 6.64404 10.6196 6.14571 10.6196 5.531C10.6196 4.91629 10.1286 4.41797 9.52294 4.41797C8.91726 4.41797 8.42627 4.91629 8.42627 5.531C8.42627 6.14571 8.91726 6.64404 9.52294 6.64404Z" fill="#3B8CC5"/>
<path d="M13.2014 6.64404C13.8071 6.64404 14.2981 6.14571 14.2981 5.531C14.2981 4.91629 13.8071 4.41797 13.2014 4.41797C12.5957 4.41797 12.1047 4.91629 12.1047 5.531C12.1047 6.14571 12.5957 6.64404 13.2014 6.64404Z" fill="#3B8CC5"/>
</svg>
