<svg width="30" height="32" viewBox="0 0 30 32" fill="none" xmlns="http://www.w3.org/2000/svg">
<path d="M25.061 23.9971V27.6863C25.061 29.4458 23.6204 30.8761 21.8483 30.8761H4.35596C2.58386 30.8647 1.14331 29.4458 1.14331 27.6863V15.9261C1.14331 14.1666 2.58386 12.7363 4.35596 12.7363H21.8598C23.6319 12.7363 25.0724 14.1666 25.0724 15.9261V18.6164" stroke="#2D5FAA" stroke-width="2" stroke-miterlimit="10"/>
<path d="M19.5847 12.748H25.6556C27.4277 12.748 28.8683 14.1783 28.8683 15.9378V27.6867C28.8683 29.4462 27.4277 30.8765 25.6556 30.8765H19.5847" stroke="#2D5FAA" stroke-width="2" stroke-miterlimit="10"/>
<path d="M29.0853 24.5537H22.0312C20.5106 24.5537 19.2644 23.3164 19.2644 21.8066C19.2644 20.2969 20.5106 19.0596 22.0312 19.0596H29.0853" stroke="#2D5FAA" stroke-width="2" stroke-miterlimit="10"/>
<path d="M8.70055 12.6343C10.0897 12.6343 11.2158 11.5162 11.2158 10.137C11.2158 8.75775 10.0897 7.63965 8.70055 7.63965C7.31142 7.63965 6.1853 8.75775 6.1853 10.137C6.1853 11.5162 7.31142 12.6343 8.70055 12.6343Z" stroke="#2D5FAA" stroke-width="2" stroke-miterlimit="10"/>
<path d="M18.8873 8.38921C20.2764 8.38921 21.4026 7.27111 21.4026 5.89187C21.4026 4.51263 20.2764 3.39453 18.8873 3.39453C17.4982 3.39453 16.3721 4.51263 16.3721 5.89187C16.3721 7.27111 17.4982 8.38921 18.8873 8.38921Z" stroke="#2D5FAA" stroke-width="2" stroke-miterlimit="10"/>
<path d="M8.82617 1.13477V2.75804" stroke="#2D5FAA" stroke-width="2" stroke-miterlimit="10" stroke-linecap="round" stroke-linejoin="round"/>
<path d="M12.2217 1.13477V4.97159" stroke="#2D5FAA" stroke-width="2" stroke-miterlimit="10" stroke-linecap="round" stroke-linejoin="round"/>
</svg>
