<svg width="120" height="120" viewBox="0 0 120 120" fill="none" xmlns="http://www.w3.org/2000/svg">
<g filter="url(#filter0_d_1796_1)">
<circle cx="60" cy="56" r="40" fill="white"/>
</g>
<path d="M73.6411 50.6409V45.3746L67.2896 39.0283H48.0293V72.5083H73.6411V66.3163" stroke="#2D5FAA" stroke-width="2" stroke-miterlimit="10" stroke-linecap="round" stroke-linejoin="round"/>
<path d="M52.9089 49.2012H59.9398" stroke="#2D5FAA" stroke-width="2" stroke-miterlimit="10" stroke-linecap="round" stroke-linejoin="round"/>
<path d="M52.9089 53.3975H59.9398" stroke="#2D5FAA" stroke-width="2" stroke-miterlimit="10" stroke-linecap="round" stroke-linejoin="round"/>
<path d="M52.9089 57.584H59.9398" stroke="#2D5FAA" stroke-width="2" stroke-miterlimit="10" stroke-linecap="round" stroke-linejoin="round"/>
<path d="M52.9089 61.7705H59.9398" stroke="#2D5FAA" stroke-width="2" stroke-miterlimit="10" stroke-linecap="round" stroke-linejoin="round"/>
<path d="M52.9089 65.9668H59.9398" stroke="#2D5FAA" stroke-width="2" stroke-miterlimit="10" stroke-linecap="round" stroke-linejoin="round"/>
<path d="M67.2898 39.0283V46.0329H73.4148" stroke="#2D5FAA" stroke-width="2" stroke-miterlimit="10" stroke-linecap="round" stroke-linejoin="round"/>
<path d="M68.3191 54.457H79.272" stroke="#2D5FAA" stroke-width="2" stroke-miterlimit="10" stroke-linecap="round" stroke-linejoin="round"/>
<path d="M76.9971 50.7441L80.4765 54.2104C80.6103 54.3441 80.6103 54.5601 80.4765 54.6836L76.9971 58.1499" stroke="#2D5FAA" stroke-width="2" stroke-miterlimit="10" stroke-linecap="round" stroke-linejoin="round"/>
<path d="M79.0867 62.3359H68.1338" stroke="#2D5FAA" stroke-width="2" stroke-miterlimit="10" stroke-linecap="round" stroke-linejoin="round"/>
<path d="M70.4089 66.0385L66.9295 62.5722C66.7956 62.4385 66.7956 62.2225 66.9295 62.0991L70.4089 58.6328" stroke="#2D5FAA" stroke-width="2" stroke-miterlimit="10" stroke-linecap="round" stroke-linejoin="round"/>
<defs>
<filter id="filter0_d_1796_1" x="0" y="0" width="120" height="120" filterUnits="userSpaceOnUse" color-interpolation-filters="sRGB">
<feFlood flood-opacity="0" result="BackgroundImageFix"/>
<feColorMatrix in="SourceAlpha" type="matrix" values="0 0 0 0 0 0 0 0 0 0 0 0 0 0 0 0 0 0 127 0" result="hardAlpha"/>
<feOffset dy="4"/>
<feGaussianBlur stdDeviation="10"/>
<feColorMatrix type="matrix" values="0 0 0 0 0 0 0 0 0 0 0 0 0 0 0 0 0 0 0.15 0"/>
<feBlend mode="normal" in2="BackgroundImageFix" result="effect1_dropShadow_1796_1"/>
<feBlend mode="normal" in="SourceGraphic" in2="effect1_dropShadow_1796_1" result="shape"/>
</filter>
</defs>
</svg>
