<svg width="35" height="36" viewBox="0 0 35 36" fill="none" xmlns="http://www.w3.org/2000/svg">
<path d="M26.6411 12.6419V7.37558L20.2896 1.0293H1.0293V34.5093H26.6411V28.3173" stroke="#3B8CC5" stroke-width="2" stroke-miterlimit="10" stroke-linecap="round" stroke-linejoin="round"/>
<path d="M5.90894 11.2012H12.9398" stroke="#3B8CC5" stroke-width="2" stroke-miterlimit="10" stroke-linecap="round" stroke-linejoin="round"/>
<path d="M5.90894 15.3984H12.9398" stroke="#3B8CC5" stroke-width="2" stroke-miterlimit="10" stroke-linecap="round" stroke-linejoin="round"/>
<path d="M5.90894 19.584H12.9398" stroke="#3B8CC5" stroke-width="2" stroke-miterlimit="10" stroke-linecap="round" stroke-linejoin="round"/>
<path d="M5.90894 23.7695H12.9398" stroke="#3B8CC5" stroke-width="2" stroke-miterlimit="10" stroke-linecap="round" stroke-linejoin="round"/>
<path d="M5.90894 27.9668H12.9398" stroke="#3B8CC5" stroke-width="2" stroke-miterlimit="10" stroke-linecap="round" stroke-linejoin="round"/>
<path d="M20.2898 1.0293V8.03387H26.4148" stroke="#3B8CC5" stroke-width="2" stroke-miterlimit="10" stroke-linecap="round" stroke-linejoin="round"/>
<path d="M21.3191 16.457H32.272" stroke="#3B8CC5" stroke-width="2" stroke-miterlimit="10" stroke-linecap="round" stroke-linejoin="round"/>
<path d="M29.9971 12.7441L33.4765 16.2104C33.6103 16.3441 33.6103 16.5601 33.4765 16.6836L29.9971 20.1499" stroke="#3B8CC5" stroke-width="2" stroke-miterlimit="10" stroke-linecap="round" stroke-linejoin="round"/>
<path d="M32.0867 24.3359H21.1338" stroke="#3B8CC5" stroke-width="2" stroke-miterlimit="10" stroke-linecap="round" stroke-linejoin="round"/>
<path d="M23.4089 28.0385L19.9295 24.5722C19.7956 24.4385 19.7956 24.2225 19.9295 24.0991L23.4089 20.6328" stroke="#3B8CC5" stroke-width="2" stroke-miterlimit="10" stroke-linecap="round" stroke-linejoin="round"/>
</svg>
