<svg width="35" height="33" viewBox="0 0 35 33" fill="none" xmlns="http://www.w3.org/2000/svg">
<path d="M24.6312 11.8477V7.65667L19.0202 2.01367H2.00146V31.7907H24.6312V25.3007" stroke="#3B8CC5" stroke-width="2" stroke-miterlimit="10" stroke-linecap="round" stroke-linejoin="round"/>
<path d="M6.31104 11.0664H14.5907" stroke="#3B8CC5" stroke-width="2" stroke-miterlimit="10" stroke-linecap="round" stroke-linejoin="round"/>
<path d="M6.31104 14.7852H14.5907" stroke="#3B8CC5" stroke-width="2" stroke-miterlimit="10" stroke-linecap="round" stroke-linejoin="round"/>
<path d="M6.31104 18.5137H14.5907" stroke="#3B8CC5" stroke-width="2" stroke-miterlimit="10" stroke-linecap="round" stroke-linejoin="round"/>
<path d="M6.31104 22.2422H14.5907" stroke="#3B8CC5" stroke-width="2" stroke-miterlimit="10" stroke-linecap="round" stroke-linejoin="round"/>
<path d="M6.31104 25.9609H14.5907" stroke="#3B8CC5" stroke-width="2" stroke-miterlimit="10" stroke-linecap="round" stroke-linejoin="round"/>
<path d="M19.0203 2.01367V8.23967H24.4234" stroke="#3B8CC5" stroke-width="2" stroke-miterlimit="10" stroke-linecap="round" stroke-linejoin="round"/>
<path d="M27.4313 25.1243C30.9469 25.1243 33.7969 22.258 33.7969 18.7223C33.7969 15.1866 30.9469 12.3203 27.4313 12.3203C23.9157 12.3203 21.0657 15.1866 21.0657 18.7223C21.0657 22.258 23.9157 25.1243 27.4313 25.1243Z" stroke="#3B8CC5" stroke-width="2" stroke-miterlimit="10"/>
<path d="M27.4312 18.6784V15.1914" stroke="#3B8CC5" stroke-width="2" stroke-miterlimit="10" stroke-linecap="round" stroke-linejoin="round"/>
<path d="M27.4312 22.1983V21.7363" stroke="#3B8CC5" stroke-width="2" stroke-miterlimit="10" stroke-linecap="round" stroke-linejoin="round"/>
</svg>
