<svg width="69" height="72" viewBox="0 0 69 72" fill="none" xmlns="http://www.w3.org/2000/svg">
<g clip-path="url(#clip0)">
<path d="M56.4207 57.3747L60.9526 54.1218C60.9526 54.1218 64.4154 52.2992 66.3211 55.1369C68.0409 57.6977 66.3444 59.8433 66.3444 59.8433L51.3776 70.1328H16.9121V55.1369H29.2295C29.2295 55.1369 31.112 51.4687 36.0854 51.4225C41.0589 51.3764 42.2674 53.8449 42.2674 53.8449L52.3304 53.9372C52.3304 53.9372 55.9327 54.0295 55.9327 57.4209C55.9327 60.8123 52.284 61.043 52.284 61.043H46.0555" stroke="white" stroke-width="2" stroke-miterlimit="10" stroke-linecap="round" stroke-linejoin="round"/>
<path d="M25.9524 55.0449V68.9334" stroke="white" stroke-width="2" stroke-miterlimit="10" stroke-linecap="round" stroke-linejoin="round"/>
<path d="M22.4897 59.5905C22.4897 60.3749 21.839 61.0209 21.0488 61.0209C20.2586 61.0209 19.6079 60.3749 19.6079 59.5905C19.6079 58.8061 20.2586 58.1602 21.0488 58.1602C21.839 58.1602 22.4897 58.7831 22.4897 59.5905Z" fill="white"/>
<path d="M29.3459 54.468V27.8906H61.7663V53.6144" stroke="white" stroke-width="2" stroke-miterlimit="10" stroke-linecap="round" stroke-linejoin="round"/>
<path d="M40.4314 27.8906V42.2406L45.521 38.5723L50.7036 42.3098V27.8906" stroke="white" stroke-width="2" stroke-miterlimit="10" stroke-linecap="round" stroke-linejoin="round"/>
<g clip-path="url(#clip1)">
<path d="M21.8428 23.1706C19.7285 24.9706 16.9856 26.0706 13.9999 26.0706C7.32847 26.0706 1.92847 20.6706 1.92847 13.9992C1.92847 7.32773 7.32847 1.92773 13.9999 1.92773C20.6713 1.92773 26.0713 7.32773 26.0713 13.9992C26.0713 14.9849 25.957 15.942 25.7285 16.8563" stroke="white" stroke-width="2" stroke-miterlimit="10" stroke-linecap="round" stroke-linejoin="round"/>
<path d="M24.4572 20.0137C24.4572 20.0137 24.2001 20.4994 24.0715 20.6422" stroke="white" stroke-width="2" stroke-miterlimit="10" stroke-linecap="round" stroke-linejoin="round"/>
<path d="M24.3571 20.2141C24.3649 20.2141 24.3713 20.2077 24.3713 20.1998C24.3713 20.1919 24.3649 20.1855 24.3571 20.1855C24.3492 20.1855 24.3428 20.1919 24.3428 20.1998C24.3428 20.2077 24.3492 20.2141 24.3571 20.2141Z" fill="white"/>
<path d="M12.3101 12.1406H13.814C14.5301 12.1406 15.0607 11.9616 15.4058 11.6035C15.7508 11.2454 15.9233 10.7702 15.9233 10.1777C15.9233 9.60482 15.7508 9.15885 15.4058 8.83984C15.0672 8.52083 14.5985 8.36133 13.9995 8.36133C13.4591 8.36133 13.0067 8.51107 12.6421 8.81055C12.2775 9.10352 12.0952 9.48763 12.0952 9.96289H9.27295C9.27295 9.2207 9.47152 8.55664 9.86865 7.9707C10.2723 7.37826 10.8322 6.91602 11.5483 6.58398C12.271 6.25195 13.0653 6.08594 13.9312 6.08594C15.4351 6.08594 16.6134 6.44727 17.4663 7.16992C18.3192 7.88607 18.7456 8.87565 18.7456 10.1387C18.7456 10.7897 18.547 11.3887 18.1499 11.9355C17.7528 12.4824 17.2319 12.9023 16.5874 13.1953C17.3882 13.4818 17.9839 13.9115 18.3745 14.4844C18.7716 15.0573 18.9702 15.7344 18.9702 16.5156C18.9702 17.7786 18.508 18.791 17.5835 19.5527C16.6655 20.3145 15.4481 20.6953 13.9312 20.6953C12.5119 20.6953 11.3498 20.321 10.4448 19.5723C9.54639 18.8236 9.09717 17.834 9.09717 16.6035H11.9194C11.9194 17.1374 12.118 17.5736 12.5151 17.9121C12.9188 18.2507 13.4136 18.4199 13.9995 18.4199C14.6701 18.4199 15.1942 18.2441 15.5718 17.8926C15.9559 17.5345 16.1479 17.0625 16.1479 16.4766C16.1479 15.0573 15.3667 14.3477 13.8042 14.3477H12.3101V12.1406Z" fill="white"/>
</g>
</g>
<defs>
<clipPath id="clip0">
<rect width="68" height="71" fill="white" transform="translate(0.5 0.5)"/>
</clipPath>
<clipPath id="clip1">
<rect width="27" height="27" fill="white" transform="translate(0.5 0.5)"/>
</clipPath>
</defs>
</svg>
