<svg width="35" height="36" viewBox="0 0 35 36" fill="none" xmlns="http://www.w3.org/2000/svg">
<g clip-path="url(#clip0)">
<path d="M26.5604 16.364C26.0365 12.1202 22.6995 8.77945 18.4506 8.27446C17.8395 8.20648 17.2283 8.19677 16.6172 8.23561C13.6294 8.45897 10.9035 10.1779 9.39018 12.7611C7.21723 16.4708 7.86718 21.1032 10.8453 24.0457C12.2616 25.4053 13.0667 27.2699 13.0958 29.2316C13.0958 29.824 13.5712 30.2998 14.1629 30.2998H20.5653C21.1571 30.2998 21.6421 29.8142 21.6421 29.2219C21.6518 27.299 22.4279 25.4636 23.8054 24.1234C25.891 22.1131 26.9096 19.2386 26.5604 16.364Z" stroke="#3B8CC5" stroke-width="2" stroke-miterlimit="10"/>
<path d="M16.0738 12.0898C16.0738 12.0898 13.2801 13.0513 11.825 16.4405" stroke="#3B8CC5" stroke-width="2" stroke-miterlimit="10" stroke-linecap="round" stroke-linejoin="round"/>
<path d="M17.3738 0.970703V3.4471V5.09803" stroke="#3B8CC5" stroke-width="2" stroke-miterlimit="10" stroke-linecap="round" stroke-linejoin="round"/>
<path d="M5.95605 5.4375L7.70217 7.18554L8.87595 8.36062" stroke="#3B8CC5" stroke-width="2" stroke-miterlimit="10" stroke-linecap="round" stroke-linejoin="round"/>
<path d="M0.969971 15.6641H3.44364H5.09275" stroke="#3B8CC5" stroke-width="2" stroke-miterlimit="10" stroke-linecap="round" stroke-linejoin="round"/>
<path d="M29.0437 5.4375L27.2976 7.18554L26.1238 8.36062" stroke="#3B8CC5" stroke-width="2" stroke-miterlimit="10" stroke-linecap="round" stroke-linejoin="round"/>
<path d="M34.0298 15.6641H31.5561H29.907" stroke="#3B8CC5" stroke-width="2" stroke-miterlimit="10" stroke-linecap="round" stroke-linejoin="round"/>
<path d="M20.0027 30.8145V32.3683C20.0027 33.8347 18.8095 35.0292 17.3447 35.0292C15.8799 35.0292 14.6868 33.8347 14.6868 32.3683V30.8145" stroke="#3B8CC5" stroke-width="2" stroke-miterlimit="10"/>
</g>
<defs>
<clipPath id="clip0">
<rect width="35" height="36" fill="white"/>
</clipPath>
</defs>
</svg>
