<svg width="92" height="71" viewBox="0 0 92 71" fill="none" xmlns="http://www.w3.org/2000/svg">
<path d="M74.7956 51.7596H21.337C21.337 51.7596 19.6145 51.9606 20.5587 54.2473C21.5028 56.5339 24.0035 61.2832 25.037 62.4642C26.0704 63.6452 24.1821 67.9798 23.8376 68.7337C23.4932 69.5001 25.1263 69.6634 25.1263 69.6634H80.9708L90.7821 48.6562H80.2818L77.3601 51.5334L74.7956 51.7596Z" stroke="white" stroke-width="2" stroke-miterlimit="10" stroke-linecap="round" stroke-linejoin="round"/>
<path d="M26.2363 63.4805H67.2808" stroke="white" stroke-width="2" stroke-miterlimit="10" stroke-linecap="round" stroke-linejoin="round"/>
<path d="M75.4079 65.4294C76.5706 65.4294 77.5131 64.5012 77.5131 63.3563C77.5131 62.2114 76.5706 61.2832 75.4079 61.2832C74.2452 61.2832 73.3027 62.2114 73.3027 63.3563C73.3027 64.5012 74.2452 65.4294 75.4079 65.4294Z" stroke="white" stroke-width="2" stroke-miterlimit="10" stroke-linecap="round" stroke-linejoin="round"/>
<path d="M48.717 51.2817V32.8125H67.9953V51.2817" stroke="white" stroke-width="2" stroke-miterlimit="10" stroke-linecap="round" stroke-linejoin="round"/>
<path d="M26.6702 39.7607V30.7773H39.314V39.7607" stroke="white" stroke-width="2" stroke-miterlimit="10" stroke-linecap="round" stroke-linejoin="round"/>
<path d="M49.24 42.2227H76.8369V51.1934" stroke="white" stroke-width="2" stroke-miterlimit="10" stroke-linecap="round" stroke-linejoin="round"/>
<path d="M30.5488 43.5799H44.3919V40.0117H22.2812V43.6553H26.3257" stroke="white" stroke-width="2" stroke-miterlimit="10" stroke-linecap="round" stroke-linejoin="round"/>
<path d="M23.5696 51.3693V43.9941" stroke="white" stroke-width="2" stroke-miterlimit="10" stroke-linecap="round" stroke-linejoin="round"/>
<path d="M42.7585 51.3693V43.9941" stroke="white" stroke-width="2" stroke-miterlimit="10" stroke-linecap="round" stroke-linejoin="round"/>
<path d="M33.0366 30.4374V24.2559" stroke="white" stroke-width="2" stroke-miterlimit="10" stroke-linecap="round" stroke-linejoin="round"/>
<path d="M61.4246 38.6427V36.3184" stroke="white" stroke-width="2" stroke-miterlimit="10" stroke-linecap="round" stroke-linejoin="round"/>
<path d="M55.2876 38.6427V36.3184" stroke="white" stroke-width="2" stroke-miterlimit="10" stroke-linecap="round" stroke-linejoin="round"/>
<path d="M61.4246 47.965V45.6406" stroke="white" stroke-width="2" stroke-miterlimit="10" stroke-linecap="round" stroke-linejoin="round"/>
<path d="M55.2876 47.965V45.6406" stroke="white" stroke-width="2" stroke-miterlimit="10" stroke-linecap="round" stroke-linejoin="round"/>
<path d="M21.3428 22.6706C19.2285 24.4706 16.4856 25.5706 13.4999 25.5706C6.82847 25.5706 1.42847 20.1706 1.42847 13.4992C1.42847 6.82773 6.82847 1.42773 13.4999 1.42773C20.1713 1.42773 25.5713 6.82773 25.5713 13.4992C25.5713 14.4849 25.457 15.442 25.2285 16.3563" stroke="white" stroke-width="2" stroke-miterlimit="10" stroke-linecap="round" stroke-linejoin="round"/>
<path d="M23.9572 19.5137C23.9572 19.5137 23.7001 19.9994 23.5715 20.1422" stroke="white" stroke-width="2" stroke-miterlimit="10" stroke-linecap="round" stroke-linejoin="round"/>
<path d="M23.8571 19.7141C23.8649 19.7141 23.8713 19.7077 23.8713 19.6998C23.8713 19.6919 23.8649 19.6855 23.8571 19.6855C23.8492 19.6855 23.8428 19.6919 23.8428 19.6998C23.8428 19.7077 23.8492 19.7141 23.8571 19.7141Z" fill="white"/>
<path d="M15.5209 20H13.1576V8.58398L9.67132 9.77539V7.77344L15.2182 5.73242H15.5209V20Z" fill="white"/>
</svg>
