<svg width="37" height="39" viewBox="0 0 37 39" fill="none" xmlns="http://www.w3.org/2000/svg">
<g clip-path="url(#clip0)">
<path d="M14.7001 17.72C19.3172 17.72 23.0601 13.9771 23.0601 9.36C23.0601 4.7429 19.3172 1 14.7001 1C10.083 1 6.34009 4.7429 6.34009 9.36C6.34009 13.9771 10.083 17.72 14.7001 17.72Z" stroke="white" stroke-width="2" stroke-miterlimit="10"/>
<path d="M22.48 23.66C21.1 22.58 19.63 21.92 19.63 21.92C19.63 21.92 17.3 20.73 14.7 20.75C9.23 20.8 3.93 25.76 1 32.95C1.21 32.95 17.69 32.95 17.91 32.95" stroke="white" stroke-width="2" stroke-miterlimit="10" stroke-linecap="round" stroke-linejoin="round"/>
<path d="M28.44 23.29L30.28 27.01C30.39 27.23 30.59 27.38 30.83 27.41L34.93 28.01C35.53 28.1 35.77 28.84 35.34 29.26L32.37 32.15C32.2 32.32 32.12 32.56 32.16 32.8L32.86 36.89C32.96 37.49 32.33 37.95 31.79 37.67L28.12 35.74C27.91 35.63 27.65 35.63 27.44 35.74L23.77 37.67C23.23 37.95 22.6 37.5 22.7 36.89L23.4 32.8C23.44 32.56 23.36 32.32 23.19 32.15L20.22 29.26C19.78 28.83 20.02 28.09 20.63 28.01L24.73 27.41C24.97 27.38 25.18 27.22 25.28 27.01L27.12 23.29C27.39 22.75 28.17 22.75 28.44 23.29Z" stroke="white" stroke-width="2" stroke-miterlimit="10" stroke-linecap="round" stroke-linejoin="round"/>
</g>
<defs>
<clipPath id="clip0">
<rect width="36.56" height="38.76" fill="white"/>
</clipPath>
</defs>
</svg>
