<svg width="48" height="40" viewBox="0 0 48 40" fill="none" xmlns="http://www.w3.org/2000/svg">
<g clip-path="url(#clip0)">
<path d="M7.43555 18.6021H21.7332" stroke="white" stroke-width="2" stroke-miterlimit="10" stroke-linecap="round" stroke-linejoin="round"/>
<path d="M7.43555 24.7715H21.7332" stroke="white" stroke-width="2" stroke-miterlimit="10" stroke-linecap="round" stroke-linejoin="round"/>
<path d="M7.43555 30.9275H21.7332" stroke="white" stroke-width="2" stroke-miterlimit="10" stroke-linecap="round" stroke-linejoin="round"/>
<path d="M38.1491 31.4225C42.3291 31.4225 45.7177 28.0192 45.7177 23.8211C45.7177 19.623 42.3291 16.2197 38.1491 16.2197C33.9691 16.2197 30.5806 19.623 30.5806 23.8211C30.5806 28.0192 33.9691 31.4225 38.1491 31.4225Z" stroke="white" stroke-width="2" stroke-miterlimit="10" stroke-linecap="round" stroke-linejoin="round"/>
<path d="M35.311 24.089L36.9234 26.712L41.6671 21.9478" stroke="white" stroke-width="2" stroke-miterlimit="10" stroke-linecap="round" stroke-linejoin="round"/>
<path d="M41.9069 34.5409V37.7661C41.9069 38.1676 41.5871 38.4888 41.1873 38.4888H2.05207C1.65232 38.4888 1.33252 38.1676 1.33252 37.7661V2.06104C1.33252 1.65956 1.65232 1.33838 2.05207 1.33838H41.174C41.5738 1.33838 41.8936 1.65956 41.8936 2.06104V13.1018" stroke="white" stroke-width="2" stroke-miterlimit="10" stroke-linecap="round" stroke-linejoin="round"/>
<path d="M1.33252 10.9336H41.9069" stroke="white" stroke-width="2" stroke-miterlimit="10"/>
<path d="M7.90167 7.60133C8.85836 7.60133 9.63391 6.82242 9.63391 5.86158C9.63391 4.90074 8.85836 4.12183 7.90167 4.12183C6.94498 4.12183 6.16943 4.90074 6.16943 5.86158C6.16943 6.82242 6.94498 7.60133 7.90167 7.60133Z" fill="white"/>
<path d="M13.0853 7.60133C14.042 7.60133 14.8175 6.82242 14.8175 5.86158C14.8175 4.90074 14.042 4.12183 13.0853 4.12183C12.1286 4.12183 11.353 4.90074 11.353 5.86158C11.353 6.82242 12.1286 7.60133 13.0853 7.60133Z" fill="white"/>
</g>
<defs>
<clipPath id="clip0">
<rect width="47.037" height="39.8269" fill="white"/>
</clipPath>
</defs>
</svg>
