<svg width="63" height="39" viewBox="0 0 63 39" fill="none" xmlns="http://www.w3.org/2000/svg">
<g clip-path="url(#clip0)">
<path d="M31.2001 9.48271C33.1883 9.48271 34.8001 7.87094 34.8001 5.88271C34.8001 3.89449 33.1883 2.28271 31.2001 2.28271C29.2119 2.28271 27.6001 3.89449 27.6001 5.88271C27.6001 7.87094 29.2119 9.48271 31.2001 9.48271Z" stroke="white" stroke-width="2" stroke-miterlimit="10" stroke-linecap="round" stroke-linejoin="round"/>
<path d="M31.2 14.9824V21.4824" stroke="white" stroke-width="2" stroke-miterlimit="10" stroke-linecap="round" stroke-linejoin="round"/>
<path d="M28.7 15.6826L31.2 13.1826L33.7 15.6826" stroke="white" stroke-width="2" stroke-miterlimit="10" stroke-linecap="round" stroke-linejoin="round"/>
<path d="M12.4 17.2825C14.3883 17.2825 16 15.6707 16 13.6825C16 11.6943 14.3883 10.0825 12.4 10.0825C10.4118 10.0825 8.80005 11.6943 8.80005 13.6825C8.80005 15.6707 10.4118 17.2825 12.4 17.2825Z" stroke="white" stroke-width="2" stroke-miterlimit="10" stroke-linecap="round" stroke-linejoin="round"/>
<path d="M18.8 20.1826L23.4 24.6826" stroke="white" stroke-width="2" stroke-miterlimit="10" stroke-linecap="round" stroke-linejoin="round"/>
<path d="M17.6001 22.3828V18.8828H21.1001" stroke="white" stroke-width="2" stroke-miterlimit="10" stroke-linecap="round" stroke-linejoin="round"/>
<path d="M4.6 36.0828C6.58822 36.0828 8.2 34.471 8.2 32.4828C8.2 30.4946 6.58822 28.8828 4.6 28.8828C2.61177 28.8828 1 30.4946 1 32.4828C1 34.471 2.61177 36.0828 4.6 36.0828Z" stroke="white" stroke-width="2" stroke-miterlimit="10" stroke-linecap="round" stroke-linejoin="round"/>
<path d="M13.7 32.4829H20.2" stroke="white" stroke-width="2" stroke-miterlimit="10" stroke-linecap="round" stroke-linejoin="round"/>
<path d="M14.3999 34.9829L11.8999 32.4829L14.3999 29.9829" stroke="white" stroke-width="2" stroke-miterlimit="10" stroke-linecap="round" stroke-linejoin="round"/>
<path d="M57.7999 36.0828C59.7882 36.0828 61.4 34.471 61.4 32.4828C61.4 30.4946 59.7882 28.8828 57.7999 28.8828C55.8117 28.8828 54.2 30.4946 54.2 32.4828C54.2 34.471 55.8117 36.0828 57.7999 36.0828Z" stroke="white" stroke-width="2" stroke-miterlimit="10" stroke-linecap="round" stroke-linejoin="round"/>
<path d="M48.7001 32.4829H42.3" stroke="white" stroke-width="2" stroke-miterlimit="10" stroke-linecap="round" stroke-linejoin="round"/>
<path d="M48 29.9829L50.5 32.4829L48 34.9829" stroke="white" stroke-width="2" stroke-miterlimit="10" stroke-linecap="round" stroke-linejoin="round"/>
<path d="M50.1 17.2825C52.0882 17.2825 53.7 15.6707 53.7 13.6825C53.7 11.6943 52.0882 10.0825 50.1 10.0825C48.1118 10.0825 46.5 11.6943 46.5 13.6825C46.5 15.6707 48.1118 17.2825 50.1 17.2825Z" stroke="white" stroke-width="2" stroke-miterlimit="10" stroke-linecap="round" stroke-linejoin="round"/>
<path d="M43.6 20.083L39 24.683" stroke="white" stroke-width="2" stroke-miterlimit="10" stroke-linecap="round" stroke-linejoin="round"/>
<path d="M41.3 18.8828H44.9001V22.3828" stroke="white" stroke-width="2" stroke-miterlimit="10" stroke-linecap="round" stroke-linejoin="round"/>
<path d="M38.0999 27.9829H24.3999V37.0829H38.0999V27.9829Z" stroke="white" stroke-width="2" stroke-miterlimit="10" stroke-linecap="round" stroke-linejoin="round"/>
<path d="M24.3999 28.2827L31.1999 33.7827L38.0999 28.2827" stroke="white" stroke-width="2" stroke-miterlimit="10" stroke-linecap="round" stroke-linejoin="round"/>
</g>
<defs>
<clipPath id="clip0">
<rect width="63" height="38" fill="white" transform="translate(0 0.282715)"/>
</clipPath>
</defs>
</svg>
