<svg width="46" height="43" viewBox="0 0 46 43" fill="none" xmlns="http://www.w3.org/2000/svg">
<g clip-path="url(#clip0)">
<path d="M32.21 12.36V8.74L24.47 1H1V41.83H32.21V35.79" stroke="white" stroke-width="2" stroke-miterlimit="10" stroke-linecap="round" stroke-linejoin="round"/>
<path d="M6.94995 13.4099H18.36" stroke="white" stroke-width="2" stroke-miterlimit="10" stroke-linecap="round" stroke-linejoin="round"/>
<path d="M6.94995 18.52H18.36" stroke="white" stroke-width="2" stroke-miterlimit="10" stroke-linecap="round" stroke-linejoin="round"/>
<path d="M6.94995 23.6299H18.36" stroke="white" stroke-width="2" stroke-miterlimit="10" stroke-linecap="round" stroke-linejoin="round"/>
<path d="M6.94995 28.73H18.36" stroke="white" stroke-width="2" stroke-miterlimit="10" stroke-linecap="round" stroke-linejoin="round"/>
<path d="M6.94995 33.8398H18.36" stroke="white" stroke-width="2" stroke-miterlimit="10" stroke-linecap="round" stroke-linejoin="round"/>
<path d="M24.47 1V9.54H31.93" stroke="white" stroke-width="2" stroke-miterlimit="10" stroke-linecap="round" stroke-linejoin="round"/>
<path d="M36.07 32.6999C40.9191 32.6999 44.85 28.769 44.85 23.9199C44.85 19.0708 40.9191 15.1399 36.07 15.1399C31.221 15.1399 27.29 19.0708 27.29 23.9199C27.29 28.769 31.221 32.6999 36.07 32.6999Z" stroke="white" stroke-width="2" stroke-miterlimit="10"/>
<path d="M36.0701 23.8601V19.0701" stroke="white" stroke-width="2" stroke-miterlimit="10" stroke-linecap="round" stroke-linejoin="round"/>
<path d="M36.0701 28.67V28.05" stroke="white" stroke-width="2" stroke-miterlimit="10" stroke-linecap="round" stroke-linejoin="round"/>
</g>
<defs>
<clipPath id="clip0">
<rect width="45.85" height="42.83" fill="white"/>
</clipPath>
</defs>
</svg>
