<svg width="32" height="41" viewBox="0 0 32 41" fill="none" xmlns="http://www.w3.org/2000/svg">
<path d="M30.5933 20.3517V8.50862L23.2996 1.18677H1.18213V39.8134H30.5933V36.372" stroke="white" stroke-width="2" stroke-miterlimit="10" stroke-linecap="round" stroke-linejoin="round"/>
<path d="M6.13525 13.1128H15.3913" stroke="white" stroke-width="2" stroke-miterlimit="10" stroke-linecap="round" stroke-linejoin="round"/>
<path d="M6.13525 17.9426H11.8449" stroke="white" stroke-width="2" stroke-miterlimit="10" stroke-linecap="round" stroke-linejoin="round"/>
<path d="M6.13525 22.7842H10.0008" stroke="white" stroke-width="2" stroke-miterlimit="10" stroke-linecap="round" stroke-linejoin="round"/>
<path d="M6.13525 27.614H11.8449" stroke="white" stroke-width="2" stroke-miterlimit="10" stroke-linecap="round" stroke-linejoin="round"/>
<path d="M6.13525 32.4438H15.3913" stroke="white" stroke-width="2" stroke-miterlimit="10" stroke-linecap="round" stroke-linejoin="round"/>
<path d="M23.2998 1.18677V9.2681H30.3334" stroke="white" stroke-width="2" stroke-miterlimit="10" stroke-linecap="round" stroke-linejoin="round"/>
<path d="M22.0345 28.8245C25.1356 28.8245 27.6496 26.3009 27.6496 23.1878C27.6496 20.0747 25.1356 17.551 22.0345 17.551C18.9334 17.551 16.4194 20.0747 16.4194 23.1878C16.4194 26.3009 18.9334 28.8245 22.0345 28.8245Z" stroke="white" stroke-width="1.7704" stroke-miterlimit="10" stroke-linecap="round" stroke-linejoin="round"/>
<path d="M26.2666 27.6616L30.8178 32.2422" stroke="white" stroke-width="2" stroke-miterlimit="10" stroke-linecap="round" stroke-linejoin="round"/>
</svg>
