<svg width="44" height="41" viewBox="0 0 44 41" fill="none" xmlns="http://www.w3.org/2000/svg">
<path d="M30.9013 13.1486V8.50862L23.5341 1.18677H1.19385V39.8134H30.9013V31.9694" stroke="white" stroke-width="2" stroke-miterlimit="10" stroke-linecap="round" stroke-linejoin="round"/>
<path d="M6.85352 12.9231H15.0087" stroke="white" stroke-width="2" stroke-miterlimit="10" stroke-linecap="round" stroke-linejoin="round"/>
<path d="M6.85352 17.7649H15.0087" stroke="white" stroke-width="2" stroke-miterlimit="10" stroke-linecap="round" stroke-linejoin="round"/>
<path d="M6.85352 22.5945H15.0087" stroke="white" stroke-width="2" stroke-miterlimit="10" stroke-linecap="round" stroke-linejoin="round"/>
<path d="M6.85352 27.4243H15.0087" stroke="white" stroke-width="2" stroke-miterlimit="10" stroke-linecap="round" stroke-linejoin="round"/>
<path d="M6.85352 32.2661H15.0087" stroke="white" stroke-width="2" stroke-miterlimit="10" stroke-linecap="round" stroke-linejoin="round"/>
<path d="M23.5342 1.18677V9.2681H30.6387" stroke="white" stroke-width="2" stroke-miterlimit="10" stroke-linecap="round" stroke-linejoin="round"/>
<path d="M36.0356 15.2371L39.2595 18.4411" stroke="white" stroke-width="2" stroke-miterlimit="10" stroke-linecap="round" stroke-linejoin="round"/>
<path d="M42.2568 13.3027L40.8956 11.9499C40.1673 11.226 38.9613 11.226 38.2329 11.9499L24.7523 25.3594C24.6091 25.5018 24.5135 25.668 24.4538 25.846L23.021 31.1386L28.2747 29.7502L28.2628 29.7383C28.3941 29.6908 28.5135 29.6078 28.621 29.501L42.2449 15.9609C42.9971 15.2251 42.9971 14.0385 42.2568 13.3027Z" stroke="white" stroke-width="2" stroke-miterlimit="10" stroke-linecap="round" stroke-linejoin="round"/>
</svg>
