<svg width="41" height="47" viewBox="0 0 41 47" fill="none" xmlns="http://www.w3.org/2000/svg">
<g clip-path="url(#clip0)">
<path d="M31.4142 17.0001V8.51119L23.9166 0.945801H0.948975V40.6641C0.948975 40.6641 9.30103 40.6641 10.5 40.6641" stroke="white" stroke-width="2" stroke-miterlimit="10" stroke-linecap="round" stroke-linejoin="round"/>
<path d="M6.73853 16.2656H15.0904" stroke="white" stroke-width="2" stroke-miterlimit="10" stroke-linecap="round" stroke-linejoin="round"/>
<path d="M6.73853 21.2778H15.0904" stroke="white" stroke-width="2" stroke-miterlimit="10" stroke-linecap="round" stroke-linejoin="round"/>
<path d="M6.73853 26.2896H15.0904" stroke="white" stroke-width="2" stroke-miterlimit="10" stroke-linecap="round" stroke-linejoin="round"/>
<path d="M6.73853 31.207H15.0904" stroke="white" stroke-width="2" stroke-miterlimit="10" stroke-linecap="round" stroke-linejoin="round"/>
<path d="M23.9167 0.945801V9.26773H31.1297" stroke="white" stroke-width="2" stroke-miterlimit="10" stroke-linecap="round" stroke-linejoin="round"/>
<path d="M37.6782 45.2032H27.2383C25.9096 45.2032 24.7708 44.0683 24.7708 42.7444C24.7708 41.4205 25.9096 40.2856 27.2383 40.2856H37.6782C39.0069 40.2856 40.1457 41.4205 40.1457 42.7444C40.1457 44.0683 39.0069 45.2032 37.6782 45.2032Z" stroke="white" stroke-width="1.8991" stroke-miterlimit="10" stroke-linecap="round" stroke-linejoin="round"/>
<path d="M37.6782 40.2857H27.2383C25.9096 40.2857 24.7708 39.1509 24.7708 37.8269C24.7708 36.503 25.9096 35.3682 27.2383 35.3682H37.6782C39.0069 35.3682 40.1457 36.503 40.1457 37.8269C40.1457 39.1509 39.0069 40.2857 37.6782 40.2857Z" stroke="white" stroke-width="1.8991" stroke-miterlimit="10" stroke-linecap="round" stroke-linejoin="round"/>
<path d="M37.6782 35.3682H27.2383C25.9096 35.3682 24.7708 34.2334 24.7708 32.9094C24.7708 31.5855 25.9096 30.4507 27.2383 30.4507H37.6782C39.0069 30.4507 40.1457 31.5855 40.1457 32.9094C40.1457 34.3279 39.0069 35.3682 37.6782 35.3682Z" stroke="white" stroke-width="1.8991" stroke-miterlimit="10" stroke-linecap="round" stroke-linejoin="round"/>
<path d="M37.6782 30.5454H27.2383C25.9096 30.5454 24.7708 29.4106 24.7708 28.0867C24.7708 26.7627 25.9096 25.6279 27.2383 25.6279H37.6782C39.0069 25.6279 40.1457 26.7627 40.1457 28.0867C40.1457 29.4106 39.0069 30.5454 37.6782 30.5454Z" stroke="white" stroke-width="1.8991" stroke-miterlimit="10" stroke-linecap="round" stroke-linejoin="round"/>
<path d="M37.6782 25.628H27.2383C25.9096 25.628 24.7708 24.4931 24.7708 23.1692C24.7708 21.8453 25.9096 20.7104 27.2383 20.7104H37.6782C39.0069 20.7104 40.1457 21.8453 40.1457 23.1692C40.1457 24.5877 39.0069 25.628 37.6782 25.628Z" stroke="white" stroke-width="1.8991" stroke-miterlimit="10" stroke-linecap="round" stroke-linejoin="round"/>
<path d="M20.8797 45.9598C24.444 45.9598 27.3334 43.0807 27.3334 39.5292C27.3334 35.9777 24.444 33.0986 20.8797 33.0986C17.3154 33.0986 14.426 35.9777 14.426 39.5292C14.426 43.0807 17.3154 45.9598 20.8797 45.9598Z" fill="#3B8CC5" stroke="white" stroke-width="2.2564" stroke-miterlimit="10" stroke-linecap="round" stroke-linejoin="round"/>
<path d="M10.5346 12.8614V11.8211C9.77536 11.8211 9.0161 11.5374 8.63647 11.3483L9.0161 10.0243C9.49064 10.308 10.155 10.4972 10.9143 10.4972C11.5786 10.4972 12.0531 10.2135 12.0531 9.8352C12.0531 9.36236 11.6735 9.17323 10.8193 8.88952C9.58555 8.51126 8.73138 7.94385 8.73138 6.80904C8.73138 5.7688 9.39573 5.01226 10.6295 4.82313V3.59375H11.7684V4.63399C12.5277 4.63399 13.0022 4.82313 13.4768 5.01226L13.0971 6.33621C12.8124 6.24164 12.243 5.95794 11.4837 5.95794C10.7244 5.95794 10.5346 6.24164 10.5346 6.61991C10.5346 6.99818 10.9143 7.18731 11.9582 7.56558C13.2869 8.03842 13.8564 8.70039 13.8564 9.74063C13.8564 10.7809 13.192 11.632 11.8633 11.8211V12.9559H10.5346V12.8614Z" fill="white"/>
<path d="M20.5949 43.2172V42.3661C20.0255 42.3661 19.456 42.177 19.0764 41.9879L19.3611 40.9476C19.7408 41.1368 20.3102 41.3259 20.8797 41.3259C21.3542 41.3259 21.7338 41.1368 21.7338 40.7585C21.7338 40.3802 21.4491 40.1911 20.7847 40.0019C19.8357 39.7182 19.1713 39.2454 19.1713 38.3943C19.1713 37.6378 19.7408 36.9758 20.6898 36.7867V35.9355H21.544V36.6921C22.1135 36.6921 22.4931 36.8812 22.8727 36.9758L22.588 38.016C22.3982 37.9215 21.9236 37.7323 21.2593 37.7323C20.6898 37.7323 20.5 38.016 20.5 38.2052C20.5 38.4889 20.7847 38.678 21.544 38.9617C22.588 39.34 23.0625 39.8128 23.0625 40.6639C23.0625 41.4205 22.4931 42.177 21.4491 42.2716V43.2172H20.5949Z" fill="white"/>
</g>
<defs>
<clipPath id="clip0">
<rect width="41" height="47" fill="white"/>
</clipPath>
</defs>
</svg>
