<svg width="40" height="45" viewBox="0 0 40 45" fill="none" xmlns="http://www.w3.org/2000/svg">
<g clip-path="url(#clip0)">
<path d="M33.12 12.69V8.97L25.16 1H1V43.03H33.12V38.28" stroke="white" stroke-width="2" stroke-miterlimit="10" stroke-linecap="round" stroke-linejoin="round"/>
<path d="M7.12012 13.77H15.9401" stroke="white" stroke-width="2" stroke-miterlimit="10" stroke-linecap="round" stroke-linejoin="round"/>
<path d="M7.12012 19.0298H15.9401" stroke="white" stroke-width="2" stroke-miterlimit="10" stroke-linecap="round" stroke-linejoin="round"/>
<path d="M7.12012 24.29H15.9401" stroke="white" stroke-width="2" stroke-miterlimit="10" stroke-linecap="round" stroke-linejoin="round"/>
<path d="M7.12012 29.5498H15.9401" stroke="white" stroke-width="2" stroke-miterlimit="10" stroke-linecap="round" stroke-linejoin="round"/>
<path d="M7.12012 34.8101H15.9401" stroke="white" stroke-width="2" stroke-miterlimit="10" stroke-linecap="round" stroke-linejoin="round"/>
<path d="M25.1599 1V9.79H32.8399" stroke="white" stroke-width="2" stroke-miterlimit="10" stroke-linecap="round" stroke-linejoin="round"/>
<path d="M38.4899 23.7401C38.4899 29.8301 35.3099 32.9901 30.1899 36.1301C30.1199 36.1701 30.0299 36.1701 29.9699 36.1301C24.8499 32.9901 21.6699 29.8301 21.6699 23.7401V19.3701C21.6699 19.2901 21.7099 19.2201 21.7899 19.1801L29.9899 15.0801C30.0499 15.0501 30.1199 15.0501 30.1799 15.0801L38.3799 19.1801C38.4499 19.2201 38.4999 19.2901 38.4999 19.3701L38.4899 23.7401Z" stroke="white" stroke-width="2" stroke-miterlimit="10"/>
<path d="M25.9299 26.0101L27.9699 28.9301L34.0299 22.1001" stroke="white" stroke-width="2" stroke-miterlimit="10" stroke-linecap="round" stroke-linejoin="round"/>
</g>
<defs>
<clipPath id="clip0">
<rect width="39.49" height="44.03" fill="white"/>
</clipPath>
</defs>
</svg>
