<svg width="30" height="46" viewBox="0 0 30 46" fill="none" xmlns="http://www.w3.org/2000/svg">
<g clip-path="url(#clip0)">
<path d="M28.15 26.0899C28.15 34.9999 23.03 39.6299 14.76 44.2199C14.65 44.2799 14.51 44.2799 14.4 44.2199C6.12 39.6299 1 34.9999 1 26.0899V19.6899C1 19.5699 1.07 19.4699 1.19 19.4099L14.42 13.4099C14.52 13.3699 14.63 13.3699 14.72 13.4099L27.95 19.4099C28.07 19.4599 28.14 19.5699 28.14 19.6899L28.15 26.0899Z" stroke="white" stroke-width="2" stroke-miterlimit="10"/>
<path d="M24 26.6407C24 32.7023 20.4114 35.8477 14.6252 38.9656C14.551 39.0115 14.449 39.0115 14.3748 38.9656C8.58858 35.8569 5 32.7023 5 26.6407V22.294C5 22.2115 5.04636 22.1381 5.12982 22.1014L14.3934 18.0206C14.4583 17.9931 14.5417 17.9931 14.6066 18.0206L23.8702 22.1014C23.9536 22.1381 24 22.2115 24 22.294V26.6407Z" stroke="white" stroke-width="2" stroke-miterlimit="10"/>
<path d="M11.09 28.69L13.28 31.82L19.77 24.5" stroke="white" stroke-width="1.5535" stroke-miterlimit="10" stroke-linecap="round" stroke-linejoin="round"/>
<path d="M4.34998 17.78V11.22C4.34998 5.6 8.94998 1 14.57 1C20.19 1 24.79 5.6 24.79 11.22V17.78" stroke="white" stroke-width="2" stroke-miterlimit="10"/>
</g>
<defs>
<clipPath id="clip0">
<rect width="29.15" height="45.27" fill="white"/>
</clipPath>
</defs>
</svg>
