<svg width="53" height="39" viewBox="0 0 53 39" fill="none" xmlns="http://www.w3.org/2000/svg">
<g clip-path="url(#clip0)">
<path d="M45.24 18.26L48.35 21.37" stroke="white" stroke-width="2" stroke-miterlimit="10" stroke-linecap="round" stroke-linejoin="round"/>
<path d="M51.2499 16.3801L49.9399 15.0701C49.2299 14.3601 48.0699 14.3601 47.3599 15.0701L34.3499 28.0901C34.2099 28.2301 34.1299 28.3901 34.0699 28.5601L32.6799 33.7001L37.7599 32.3501L37.7499 32.3401C37.8799 32.2901 37.9899 32.2101 38.0999 32.1101L51.2599 18.9501C51.9599 18.2501 51.9599 17.0901 51.2499 16.3801Z" stroke="white" stroke-width="2" stroke-miterlimit="10" stroke-linecap="round" stroke-linejoin="round"/>
<path d="M11.46 20.5H23.82" stroke="white" stroke-width="2" stroke-miterlimit="10" stroke-linecap="round" stroke-linejoin="round"/>
<path d="M11.46 25.8101H23.82" stroke="white" stroke-width="2" stroke-miterlimit="10" stroke-linecap="round" stroke-linejoin="round"/>
<path d="M11.46 31.1201H23.82" stroke="white" stroke-width="2" stroke-miterlimit="10" stroke-linecap="round" stroke-linejoin="round"/>
<path d="M41.2799 34.2301V37.0001C41.2799 37.3501 40.9999 37.6301 40.6499 37.6301H6.79992C6.44992 37.6301 6.16992 37.3501 6.16992 37.0001V6.25012C6.16992 5.90012 6.44992 5.62012 6.79992 5.62012H40.6499C40.9999 5.62012 41.2799 5.90012 41.2799 6.25012V15.7601" stroke="white" stroke-width="2" stroke-miterlimit="10" stroke-linecap="round" stroke-linejoin="round"/>
<path d="M4.83 33H1.63C1.28 33 1 32.72 1 32.38V1.63C1 1.28 1.28 1 1.63 1H35.48C35.83 1 36.11 1.28 36.11 1.63V4.3" stroke="white" stroke-width="2" stroke-miterlimit="10" stroke-linecap="round" stroke-linejoin="round"/>
<path d="M6.16992 13.8899H41.2799" stroke="white" stroke-width="2" stroke-miterlimit="10"/>
<path d="M0.540039 9.05005H5.93004" stroke="white" stroke-width="2" stroke-miterlimit="10"/>
<path d="M11.8501 11.03C12.6785 11.03 13.3501 10.3585 13.3501 9.53003C13.3501 8.7016 12.6785 8.03003 11.8501 8.03003C11.0217 8.03003 10.3501 8.7016 10.3501 9.53003C10.3501 10.3585 11.0217 11.03 11.8501 11.03Z" fill="white"/>
<path d="M16.3501 11.03C17.1785 11.03 17.8501 10.3585 17.8501 9.53003C17.8501 8.7016 17.1785 8.03003 16.3501 8.03003C15.5217 8.03003 14.8501 8.7016 14.8501 9.53003C14.8501 10.3585 15.5217 11.03 16.3501 11.03Z" fill="white"/>
</g>
<defs>
<clipPath id="clip0">
<rect width="52.78" height="38.63" fill="white"/>
</clipPath>
</defs>
</svg>
