<svg width="43" height="43" viewBox="0 0 43 43" fill="none" xmlns="http://www.w3.org/2000/svg">
<g clip-path="url(#clip0)">
<path d="M32.37 21.3C32.37 27.42 27.41 32.37 21.3 32.37C15.19 32.37 10.23 27.41 10.23 21.3C10.23 15.19 15.19 10.23 21.3 10.23C27.41 10.23 32.37 15.18 32.37 21.3Z" stroke="white" stroke-width="2" stroke-miterlimit="10"/>
<path d="M21.2998 10.79C21.2998 9.11 21.2998 7.43 21.2998 5.75" stroke="white" stroke-width="2" stroke-miterlimit="10"/>
<path d="M21.2999 5.78C22.6199 5.78 23.6899 4.70996 23.6899 3.39C23.6899 2.07004 22.6199 1 21.2999 1C19.98 1 18.9099 2.07004 18.9099 3.39C18.9099 4.70996 19.98 5.78 21.2999 5.78Z" stroke="white" stroke-width="2" stroke-miterlimit="10"/>
<path d="M21.2998 31.8101C21.2998 33.4901 21.2998 35.1701 21.2998 36.8501" stroke="white" stroke-width="2" stroke-miterlimit="10"/>
<path d="M21.2999 41.6001C22.6199 41.6001 23.6899 40.53 23.6899 39.2101C23.6899 37.8901 22.6199 36.8201 21.2999 36.8201C19.98 36.8201 18.9099 37.8901 18.9099 39.2101C18.9099 40.53 19.98 41.6001 21.2999 41.6001Z" stroke="white" stroke-width="2" stroke-miterlimit="10"/>
<path d="M28.73 13.8701C29.92 12.6801 31.1 11.5001 32.29 10.3101" stroke="white" stroke-width="2" stroke-miterlimit="10"/>
<path d="M33.9601 11.02C35.28 11.02 36.3501 9.94995 36.3501 8.62999C36.3501 7.31003 35.28 6.23999 33.9601 6.23999C32.6401 6.23999 31.5701 7.31003 31.5701 8.62999C31.5701 9.94995 32.6401 11.02 33.9601 11.02Z" stroke="white" stroke-width="2" stroke-miterlimit="10"/>
<path d="M13.8701 28.73C12.6801 29.92 11.5001 31.1 10.3101 32.29" stroke="white" stroke-width="2" stroke-miterlimit="10"/>
<path d="M8.62999 36.3501C9.94995 36.3501 11.02 35.28 11.02 33.9601C11.02 32.6401 9.94995 31.5701 8.62999 31.5701C7.31003 31.5701 6.23999 32.6401 6.23999 33.9601C6.23999 35.28 7.31003 36.3501 8.62999 36.3501Z" stroke="white" stroke-width="2" stroke-miterlimit="10"/>
<path d="M31.8101 21.2998C33.4901 21.2998 35.1701 21.2998 36.8501 21.2998" stroke="white" stroke-width="2" stroke-miterlimit="10"/>
<path d="M39.2101 23.6899C40.53 23.6899 41.6001 22.6199 41.6001 21.2999C41.6001 19.98 40.53 18.9099 39.2101 18.9099C37.8901 18.9099 36.8201 19.98 36.8201 21.2999C36.8201 22.6199 37.8901 23.6899 39.2101 23.6899Z" stroke="white" stroke-width="2" stroke-miterlimit="10"/>
<path d="M10.79 21.2998C9.11 21.2998 7.43 21.2998 5.75 21.2998" stroke="white" stroke-width="2" stroke-miterlimit="10"/>
<path d="M3.39 23.6899C4.70996 23.6899 5.78 22.6199 5.78 21.2999C5.78 19.98 4.70996 18.9099 3.39 18.9099C2.07004 18.9099 1 19.98 1 21.2999C1 22.6199 2.07004 23.6899 3.39 23.6899Z" stroke="white" stroke-width="2" stroke-miterlimit="10"/>
<path d="M28.73 28.73C29.92 29.92 31.1 31.1 32.29 32.29" stroke="white" stroke-width="2" stroke-miterlimit="10"/>
<path d="M33.9601 36.3501C35.28 36.3501 36.3501 35.28 36.3501 33.9601C36.3501 32.6401 35.28 31.5701 33.9601 31.5701C32.6401 31.5701 31.5701 32.6401 31.5701 33.9601C31.5701 35.28 32.6401 36.3501 33.9601 36.3501Z" stroke="white" stroke-width="2" stroke-miterlimit="10"/>
<path d="M13.8701 13.8701C12.6801 12.6801 11.5001 11.5001 10.3101 10.3101" stroke="white" stroke-width="2" stroke-miterlimit="10"/>
<path d="M8.62999 11.02C9.94995 11.02 11.02 9.94995 11.02 8.62999C11.02 7.31003 9.94995 6.23999 8.62999 6.23999C7.31003 6.23999 6.23999 7.31003 6.23999 8.62999C6.23999 9.94995 7.31003 11.02 8.62999 11.02Z" stroke="white" stroke-width="2" stroke-miterlimit="10"/>
<path d="M24.9399 17.6599H17.6599V24.9399H24.9399V17.6599Z" stroke="white" stroke-width="2" stroke-miterlimit="10" stroke-linecap="round" stroke-linejoin="round"/>
<path d="M21.3 16.9301V13.8601" stroke="white" stroke-width="2" stroke-miterlimit="10" stroke-linecap="round" stroke-linejoin="round"/>
<path d="M24.2002 16.9301V15.1101" stroke="white" stroke-width="2" stroke-miterlimit="10" stroke-linecap="round" stroke-linejoin="round"/>
<path d="M18.4001 16.9301V15.1101" stroke="white" stroke-width="2" stroke-miterlimit="10" stroke-linecap="round" stroke-linejoin="round"/>
<path d="M21.3 25.6702V28.7402" stroke="white" stroke-width="2" stroke-miterlimit="10" stroke-linecap="round" stroke-linejoin="round"/>
<path d="M18.4001 25.6702V27.4902" stroke="white" stroke-width="2" stroke-miterlimit="10" stroke-linecap="round" stroke-linejoin="round"/>
<path d="M24.2002 25.6702V27.4902" stroke="white" stroke-width="2" stroke-miterlimit="10" stroke-linecap="round" stroke-linejoin="round"/>
<path d="M25.6702 21.3H28.7402" stroke="white" stroke-width="2" stroke-miterlimit="10" stroke-linecap="round" stroke-linejoin="round"/>
<path d="M25.6702 24.2002H27.4902" stroke="white" stroke-width="2" stroke-miterlimit="10" stroke-linecap="round" stroke-linejoin="round"/>
<path d="M25.6702 18.4001H27.4902" stroke="white" stroke-width="2" stroke-miterlimit="10" stroke-linecap="round" stroke-linejoin="round"/>
<path d="M16.9301 21.3H13.8601" stroke="white" stroke-width="2" stroke-miterlimit="10" stroke-linecap="round" stroke-linejoin="round"/>
<path d="M16.9301 18.4001H15.1101" stroke="white" stroke-width="2" stroke-miterlimit="10" stroke-linecap="round" stroke-linejoin="round"/>
<path d="M16.9301 24.2002H15.1101" stroke="white" stroke-width="2" stroke-miterlimit="10" stroke-linecap="round" stroke-linejoin="round"/>
</g>
<defs>
<clipPath id="clip0">
<rect width="42.6" height="42.6" fill="white"/>
</clipPath>
</defs>
</svg>
