<svg width="38" height="41" viewBox="0 0 38 41" fill="none" xmlns="http://www.w3.org/2000/svg">
<path d="M31.68 30.54V35.31C31.68 37.58 29.84 39.42 27.57 39.42H5.11C2.84 39.42 1 37.58 1 35.31V20.12C1 17.85 2.84 16.01 5.11 16.01H27.56C29.83 16.01 31.67 17.85 31.67 20.12V23.6" stroke="white" stroke-width="2" stroke-miterlimit="10"/>
<path d="M24.6599 16.01H32.4399C34.7099 16.01 36.5499 17.85 36.5499 20.12V35.31C36.5499 37.58 34.7099 39.42 32.4399 39.42H24.6599" stroke="white" stroke-width="2" stroke-miterlimit="10"/>
<path d="M36.85 31.2699H27.81C25.86 31.2699 24.26 29.6699 24.26 27.7199C24.26 25.7699 25.86 24.1699 27.81 24.1699H36.85" stroke="white" stroke-width="2" stroke-miterlimit="10"/>
<path d="M10.69 15.8699C12.4738 15.8699 13.92 14.4238 13.92 12.6399C13.92 10.856 12.4738 9.40991 10.69 9.40991C8.90608 9.40991 7.45996 10.856 7.45996 12.6399C7.45996 14.4238 8.90608 15.8699 10.69 15.8699Z" stroke="white" stroke-width="2" stroke-miterlimit="10"/>
<path d="M23.77 10.3799C25.5539 10.3799 27 8.9338 27 7.14992C27 5.36604 25.5539 3.91992 23.77 3.91992C21.9862 3.91992 20.54 5.36604 20.54 7.14992C20.54 8.9338 21.9862 10.3799 23.77 10.3799Z" stroke="white" stroke-width="2" stroke-miterlimit="10"/>
<path d="M10.8501 1V3.1" stroke="white" stroke-width="2" stroke-miterlimit="10" stroke-linecap="round" stroke-linejoin="round"/>
<path d="M15.2102 1V5.96" stroke="white" stroke-width="2" stroke-miterlimit="10" stroke-linecap="round" stroke-linejoin="round"/>
</svg>
